<?xml version="1.0" encoding="UTF-8" standalone="no"?>
<svg width="48px" height="48px" viewBox="0 0 48 48" version="1.1" xmlns="http://www.w3.org/2000/svg" xmlns:xlink="http://www.w3.org/1999/xlink" xmlns:sketch="http://www.bohemiancoding.com/sketch/ns">
    <!-- Generator: Sketch 3.4.2 (15855) - http://www.bohemiancoding.com/sketch -->
    <title>btn_google+_light_normal-mdpi.9</title>
    <desc>Created with Sketch.</desc>
    <defs>
        <rect id="path-1" x="0" y="0" width="40" height="40" rx="2"></rect>
    </defs>
    <g id="Button" stroke="none" stroke-width="1" fill="none" fill-rule="evenodd" sketch:type="MSPage">
        <g id="btn_google+_light_normal" sketch:type="MSArtboardGroup">
            <g id="button" sketch:type="MSLayerGroup" transform="translate(4.000000, 4.000000)">
                <g id="button-bg">
                    <use fill="#FFFFFF" fill-rule="evenodd" sketch:type="MSShapeGroup" xlink:href="#path-1"></use>
                    <use fill="none" xlink:href="#path-1"></use>
                    <use fill="none" xlink:href="#path-1"></use>
                    <use fill="none" xlink:href="#path-1"></use>
                </g>
                <path d="M16,19 L16,21.4 L19.97,21.4 C19.81,22.43 18.77,24.42 16,24.42 C13.61,24.42 11.66,22.44 11.66,20 C11.66,17.56 13.61,15.58 16,15.58 C17.36,15.58 18.27,16.16 18.79,16.66 L20.69,14.83 C19.47,13.69 17.89,13 16,13 C12.13,13 9,16.13 9,20 C9,23.87 12.13,27 16,27 C20.04,27 22.72,24.16 22.72,20.16 C22.72,19.7 22.67,19.35 22.61,19 L16,19 L16,19 Z" id="Shape" fill="#000000" sketch:type="MSShapeGroup"></path>
                <path d="M31,19 L29,19 L29,17 L27,17 L27,19 L25,19 L25,21 L27,21 L27,23 L29,23 L29,21 L31,21" id="Shape" fill="#000000" sketch:type="MSShapeGroup"></path>
            </g>
        </g>
    </g>
</svg>
