<?xml version="1.0" encoding="utf-8"?>
<!-- Generator: Adobe Illustrator 19.1.0, SVG Export Plug-In . SVG Version: 6.00 Build 0)  -->
<svg version="1.1" id="Layer_1" xmlns="http://www.w3.org/2000/svg" xmlns:xlink="http://www.w3.org/1999/xlink" x="0px" y="0px"
	 width="259.5px" height="278.8px" viewBox="0 0 259.5 278.8" enable-background="new 0 0 259.5 278.8" xml:space="preserve">
<g>
	<g>
		<path fill="#FFFFFF" d="M46.5,263.3h3v15.2h-3V263.3z"/>
		<path fill="#FFFFFF" d="M52.9,263.3h3.7l5.8,11.3h0v-11.3h2.9v15.2h-3.7l-5.8-11.3h0v11.3h-2.9V263.3z"/>
		<path fill="#FFFFFF" d="M71.9,265.7h-4.3v-2.4h11.7v2.4H75v12.8h-3V265.7z"/>
		<path fill="#FFFFFF" d="M81.6,263.3h9v2.4h-5.9v3.7H90v2.4h-5.4v4.3h6v2.4h-9V263.3z"/>
		<path fill="#FFFFFF" d="M93.8,263.3H97c3.3,0,7.1-0.1,7.1,4.1c0,1.8-1.2,3.3-3.1,3.5v0c0.8,0.1,1.3,0.9,1.6,1.6l2.4,5.9h-3.4
			l-1.8-4.7c-0.4-1.1-0.8-1.6-2.1-1.6h-1v6.3h-3V263.3z M96.8,269.8h1c1.5,0,3.2-0.2,3.2-2.1c0-1.8-1.7-2-3.2-2h-1V269.8z"/>
		<path fill="#FFFFFF" d="M107.5,263.3h3.7l5.8,11.3h0v-11.3h2.9v15.2h-3.7l-5.8-11.3h0v11.3h-2.9V263.3z"/>
		<path fill="#FFFFFF" d="M128,263.3h3.4l6,15.2h-3.4l-1.3-3.5h-6.2l-1.3,3.5h-3.2L128,263.3z M129.7,266.4L129.7,266.4l-2.2,6.3
			h4.4L129.7,266.4z"/>
		<path fill="#FFFFFF" d="M140.8,265.7h-4.3v-2.4h11.7v2.4h-4.3v12.8h-3V265.7z"/>
		<path fill="#FFFFFF" d="M150.2,263.3h3v15.2h-3V263.3z"/>
		<path fill="#FFFFFF" d="M163.6,263.1c4.8,0,7.4,3.2,7.4,7.8c0,4.6-2.6,7.9-7.4,7.9c-4.9,0-7.4-3.2-7.4-7.9
			C156.1,266.2,158.7,263.1,163.6,263.1z M163.6,276.4c3.1,0,4.3-2.8,4.3-5.5c0-2.7-1.2-5.4-4.3-5.4c-3,0-4.3,2.7-4.3,5.4
			C159.3,273.6,160.4,276.4,163.6,276.4z"/>
		<path fill="#FFFFFF" d="M174,263.3h3.7l5.8,11.3h0v-11.3h2.9v15.2h-3.7l-5.8-11.3h0v11.3H174V263.3z"/>
		<path fill="#FFFFFF" d="M194.5,263.3h3.4l6,15.2h-3.4l-1.3-3.5h-6.2l-1.3,3.5h-3.2L194.5,263.3z M196.2,266.4L196.2,266.4
			l-2.2,6.3h4.4L196.2,266.4z"/>
		<path fill="#FFFFFF" d="M206.3,263.3h3v12.8h5.9v2.4h-8.9V263.3z"/>
	</g>
	<g>
		<path fill="#FFFFFF" d="M0,234.9h5.5v7.8h6.5v-7.8h5.5v20.5h-5.5v-8.8H5.5v8.8H0V234.9z"/>
		<path fill="#FFFFFF" d="M39.2,247.6c0,5.6-3.6,8.1-9,8.1c-5.4,0-9-2.5-9-8.1v-12.7h5.5v11.8c0,2.7,0.7,5,3.5,5
			c2.8,0,3.5-2.3,3.5-5v-11.8h5.5V247.6z"/>
		<path fill="#FFFFFF" d="M43,234.9h8.6l4.4,13.6H56l4.6-13.6h8.3v20.5h-5.3l0.1-15.8h-0.1l-5.2,15.8h-5l-5-15.8h-0.1l0.1,15.8H43
			V234.9z"/>
		<path fill="#FFFFFF" d="M78.7,234.9h6.7l7.9,20.5h-6l-1.5-4.4h-7.7l-1.6,4.4h-5.6L78.7,234.9z M82,239.1L82,239.1l-2.7,8h5.1
			L82,239.1z"/>
		<path fill="#FFFFFF" d="M95.6,234.9h7l6.9,13.9h0.1l-0.1-13.9h5v20.5h-6.8l-7.2-14h-0.1l0.2,14h-5V234.9z"/>
		<path fill="#FFFFFF" d="M118.5,234.9h14.5v3.9h-9v4.2h8.5v3.9h-8.5v4.6h9.3v3.9h-14.8V234.9z"/>
		<path fill="#FFFFFF" d="M156.7,238.6c-1.3-0.6-2.7-0.9-4.2-0.9c-1.4,0-3.2,0.6-3.2,2.8c0,3.6,9,2.1,9,8.9c0,4.5-3.6,6.2-7.7,6.2
			c-2.2,0-3.2-0.3-5.3-0.8l0.4-3.7c1.4,0.8,3,1.3,4.6,1.3c1.6,0,3.6-0.8,3.6-2.7c0-3.9-9-2.3-9-9.1c0-4.6,3.6-6.3,7.2-6.3
			c1.8,0,3.4,0.2,4.9,0.7L156.7,238.6z"/>
		<path fill="#FFFFFF" d="M170.2,234.5c6.4,0,10.1,4.4,10.1,10.6c0,6.2-3.6,10.7-10.1,10.7c-6.6,0-10.1-4.4-10.1-10.7
			C160.1,238.8,163.6,234.5,170.2,234.5z M170.2,252.5c4.2,0,5.8-3.7,5.8-7.4c0-3.6-1.7-7.3-5.8-7.3c-4.1,0-5.8,3.7-5.8,7.3
			C164.4,248.8,166,252.5,170.2,252.5z"/>
		<path fill="#FFFFFF" d="M198.3,255.1c-1.5,0.4-3.1,0.6-4.7,0.6c-6.6,0-11.3-3.3-11.3-10.3c0-7,4.3-11,11.3-11
			c1.4,0,3.1,0.3,4.7,0.8l-0.3,3.5c-1.6-0.9-3-1.1-4.4-1.1c-4.2,0-6.9,3.2-6.9,7.4c0,4.2,2.6,7.3,7,7.3c1.6,0,3.5-0.4,4.5-0.9
			L198.3,255.1z"/>
		<path fill="#FFFFFF" d="M201.7,234.9h4.1v20.5h-4.1V234.9z"/>
		<path fill="#FFFFFF" d="M209.7,234.9h12.1v3.2h-8v5.1h7.3v3.2h-7.3v5.8h8.1v3.2h-12.2V234.9z"/>
		<path fill="#FFFFFF" d="M229.6,238.1h-5.9v-3.2h15.9v3.2h-5.9v17.3h-4.1V238.1z"/>
		<path fill="#FFFFFF" d="M248,247.3l-7.5-12.4h4.8l4.9,8.6l4.9-8.6h4.4l-7.4,12.4v8.1H248V247.3z"/>
	</g>
</g>
<path fill="#FFFFFF" d="M122.1,33l-0.1,0l-0.1,0l-0.1,0l-0.1,0l-0.1,0l-0.1,0l-0.1,0l-0.1,0l-0.1,0l-0.1,0l-0.1,0l-0.1,0l-0.1,0
	l-0.1,0l-0.1,0l-0.1-0.1l-0.1-0.1l-0.1-0.1l-0.1-0.1l-0.1-0.1l-0.1-0.1l-0.1-0.1l-0.1-0.1l-0.1-0.1l-0.1-0.1l-0.1-0.1l-0.1-0.1
	l-0.1-0.1l-0.1-0.1l-0.1-0.1l-0.1-0.1l-0.1-0.1l-0.4-0.1L114,31l-0.5-0.1c0,0-0.7-0.1-0.8-0.3c-0.2-0.2-0.2-0.6-0.2-0.7
	c0-0.1,0.2-0.3,0.3-0.5c0.1-0.2,0.5-0.4,0.8-0.5c0.4-0.1,1.2-0.2,1.4-0.3c0.2-0.1,0.1-0.3,0.1-0.3l0-0.4l0-0.4L115,27l-0.1-0.4
	l-0.1-0.4l-0.1-0.4l-0.1-0.4l-0.1-0.4l-0.2-0.4l-0.2-0.4l-0.2-0.4l-0.2-0.4l-0.2-0.4l-0.2-0.4l-0.2-0.4l-0.2-0.4l-0.2-0.4l-0.2-0.4
	l-0.2-0.4l-0.2-0.4l-0.2-0.4l-0.2-0.4l-0.2-0.4l-0.2-0.4l-0.1-0.4l-0.1-0.4l-0.1-0.4l-0.1-0.4l-0.1-0.4l-0.1-0.4l0-0.4l0-0.4
	c0,0-0.1-0.5-0.3-0.6c-0.2-0.2-0.9-0.3-0.6-0.3c0.3,0.1-0.6-0.1-0.8-0.2c-0.2-0.1-1-0.7-1-0.7s-0.4-0.2-0.6-0.4
	c-0.2-0.2-1.5-1.3-1.6-1.5c-0.2-0.2-0.3-0.2-0.4-0.3c-0.2-0.1-0.1-0.1-0.4-0.2c-0.2-0.1-4.2-1.1-4.2-1.1l-3.2-1l-0.4-0.2l-1.8-0.3
	l-0.3-0.1L95,7.5c0,0-1.7-1.5-1.6-2.5c0-0.4,1.6-0.9,1.6-0.9l0.2,0L95.3,4l0.2-0.1l0.2-0.1l0.2-0.1L96,3.8l0.2-0.1l0.2-0.1l0.2-0.1
	l0.2-0.1l0.2-0.1L97,3.3l0.2-0.1l0.2-0.1l0.2-0.1L97.7,3l0.2-0.1L98,2.8l0.2-0.1l0.2-0.1l0.2-0.1l0.2-0.1l0.2-0.1l0.2-0.1l0.2-0.1
	l0.2-0.1L99.6,2l0.2-0.1l0.2-0.1l0.2-0.1l0.2-0.1l0.2-0.1l0.3-0.1l0.3-0.1l0.3-0.1l0.3-0.1l0.3,0l0.3-0.1l0.3-0.1l0.3,0l0.3,0l0.3,0
	l0.3,0l0.3,0l0.3,0l0.3,0l0.3,0l0.3,0l0.3,0l0.3,0h0.3h0.3l0.3,0l0.3,0l0.3,0l0.3,0l0.3,0l0.3,0l0.3,0.1l0.3,0.1l0.3,0.1l0.3,0.1
	l0.3,0.1l0.3,0.1h0.5l2.6,0.3h0.8l0.2,0l0.2,0h0.2h0.2l0.2,0l0.2,0l0.2,0l0.2,0l0.2,0l0.2,0l0.2,0l0.2,0l0.2,0l0.2,0l0.2,0l0.2,0
	l0.2,0l0.2,0l0.2,0h0.2h0.2l0.2,0l0.2,0l0.2,0l0.2,0l0.2,0l0.2,0l0.2,0l0.2,0.1l0.2,0.1l0.2,0.1l0.2,0.1l0.4,0.1l0.4,0.1l0.4,0.1
	l0.4,0l0.4,0h0.4l0.4,0l0.4,0l0.4-0.1l0.4-0.1l0.4-0.1L127,2l0.4-0.1l0.4-0.1l0.4-0.1l0.4-0.1l0.4-0.1l0.4-0.1l0.4-0.1l0.4-0.1
	l0.4-0.1l0.4-0.1l0.4-0.1l0.4-0.1l0.4-0.1l0.4-0.1l0.4-0.1l0.4-0.1l0.4,0c0,0,1.5-0.2,1.2-0.1c-0.3,0,0.7-0.2,1.6-0.1
	c0.9,0,4.2,1.7,4.8,2c0.6,0.3,0.8,0.3,1.1,0.5c0.4,0.2,0.5,0.4,0.8,0.6c0.3,0.3,1.1,1.4,1.4,2.1c0.4,0.8,0.4,1.2,0.5,1.6
	c0.1,0.4,0.5,1.4,0.7,2.2c0.1,0.8,0.6,2.4,0.5,3.5c-0.1,1.1-0.3,2.2-0.5,2.5c-0.1,0.3-0.4,1.1-0.4,1.1l-0.1,0.5l-0.1,0.5l-0.1,0.5
	l-0.1,0.5l-0.1,0.5l-0.1,0.5l-0.2,0.5l-0.1,0.5l-0.2,0.5l-0.2,0.5l-0.2,0.5l-0.2,0.5l-0.2,0.5l-0.2,0.5l-0.2,0.5l-0.2,0.5l-0.2,0.2
	l-0.1,0.2l-0.1,0.2l-0.1,0.2l-0.1,0.2l-0.1,0.2l-0.1,0.2l-0.1,0.2l0,0.2l0,0.2l0,0.2l0,0.2l0,0.2l0,0.2l0,0.2l0,0.2
	c0,0-1.5,3.9-1.6,4.1c-0.1,0.2-0.6,0.5-0.8,0.5c-0.2,0.1-1.2,0-1.5,0.1c-0.3,0.1-1.3,0.5-1.5,0.6c-0.3,0.1-4.7-0.1-4.7-0.1l-0.1,0
	l-0.1,0l-0.1,0l-0.1,0l-0.1,0l-0.1,0l-0.1,0l-0.1,0l-0.1,0l-0.1-0.1l-0.1-0.1L131,31l-0.1-0.1l-0.1-0.1l-0.1-0.1l-0.1-0.1
	c0,0-1.9-0.5-2.1-0.5c-0.2,0-0.1,1-0.2,1.3c-0.1,0.4-0.6,0.8-0.8,0.8c-0.2,0-5,0.5-5,0.5 M120.9,30.4c0.3,0,0.9-0.4,1.3-0.8
	c0.4-0.4,0.3-0.4,0.4-0.9c0.1-0.5-0.1-1.9-0.4-2.6c-0.3-0.7-1.1-2.2-1.5-2.1c-0.4,0.1-1,4.6-0.9,5.1c0.1,0.5,0,1.3,0.4,1.3
	 M128.8,27.4c0.4,0.2,3.3-0.9,3.3-1.4c0.1-0.4-0.1-1.2-0.1-1.9c0-0.6,0.4-2.2,0.4-2c-0.1,0.5,0.1-0.7,0.1-1.1c0-0.4,0.4-0.7,0.1-0.9
	c-0.2-0.3-4-0.3-4.3,0c-0.3,0.3,0,0.8,0,0.8l0,0.2l0.1,0.5l0.1,0.5l0.1,0.5l0.1,0.5l0.1,0.5l0,0.5l0,0.4l-0.1,0.4l-0.2,0.8
	c0,0-0.4,0.3-0.4,0.5C128,26.2,128.4,27.3,128.8,27.4z"/>
<g>
	<g>
		<path fill="#FFFFFF" d="M183.7,39.5c0.4-1.3,1-6,1-8.9c0-1.4-0.4-3-0.4-4.5c0-1.8-0.7-3.9,1.3-5.2c1-0.5,2.3-0.6,3.3-0.4
			c0.5-0.2,0.3-0.7,0.1-0.9c-2.1-2.2-5.4-3.2-8.4-3.5c-2.4-0.6-3.7-3.4-6.1-4.5c-2.5-2-5.2-3.9-8.1-4.7c-3.7-1.4-7.3-1.9-10.9,0
			c-0.6,0-1.4,0.3-2,0.3c-0.6,0-0.8,0-0.8,0s-0.2-0.1-0.4,0c-0.2,0-0.3,0-0.5,0.1c-0.2,0-0.4,0.2-0.5,0.4c-0.1,0.2-0.2,0.4-0.1,0.6
			c0.1,0.2,0.3,0.5,0.6,0.6c0.1,0.1,0.5,0.2,0.5,0.2l1.1,0.4c0,0,0.1,0.1,0.1,0.1c3,1.3,5.7,3.8,8.6,5.5c0,2.4,0.8,5.1,2.7,6.8
			c1,0.7,1.6,2.3,3,1.7c0.3-0.4-0.5-0.8-0.6-1.3c-0.4-0.8-0.9-1.9-0.8-2.9c2.8,2.7,5.1,5.9,7.8,8.6c0.7,1.2,2.1,3.2,2.2,3.7
			c0.1,0.4,0.4,0.8,0.4,1.3c1.1,2.9,0.2,6.2,0.4,8.9c0,0,0,1.9-0.1,3.2c-1.3,0.2-2.5,2.8-2.4,3.6c0,0.7,0.2,1.3,0.9,1.8
			c0.6,0.6,1.5,0.4,2,1c0.7,0.8,0.2,4.7,0.5,4.8c0.3,0,0.3,0.1,0.5-0.2c0.2-0.2,0.9-2,1.2-4.9c0.1-0.6-0.1-3.5-0.1-3.9
			c0-0.4,0.1-0.3,0.4-0.6c0.2-0.2,0.6-0.8,0.8-1.1c1.2-1.7,1.7-2.9,2.4-4.7L183.7,39.5z"/>
	</g>
</g>
<g>
	<g>
		<path fill="#FFFFFF" d="M23.3,93.1c-0.9,0.9-0.9,2.2-1.4,3.3c-0.4,1.8-0.4,4.2,0.8,5.8c0.5,0.7,1.7,2.5,2.6,2.9
			c2.4,1.8,5.3,4.1,5.8,7.3c-0.1,0.1,0.1,0.3,0,0.5c-1.2,1.3-2.7,2.7-2.4,4.7c0.2,0.8,0.3,1.6,0.4,2.5c0.1,0.4-0.4,0.7-0.1,1.1
			c0.2,0.6,0.8,1,0.5,1.6c-0.4,0.5-0.4,0.9-0.8,1.7c0.1,1.1-0.4,2.3,0.1,3.3c0.5,0.8-0.2,1.6-0.6,2.3c-0.2,0.9-0.5,1.9-0.4,2.8
			c0.1,0-0.1,0,0.3,0.2c0.4,0.3,0.4,0.1,0.5,0.5l0.1,0.1l0.2,0.1c0.2,0.1-0.2,0.1,0.7,0.4c0.5-1.2,0.5-1.2,0.8-0.6
			c0.1,0,0.1,0,0.2-0.1c0-1-0.2-1.9-0.3-2.9l0.2-0.5c0.1,0.5,0.5,1,0.8,1.5c0.2,0.2,0.4,0,0.6-0.2c-0.3-0.7-1.1-1.4-1.1-2.2
			c0-0.2,0.1-0.5,0.1-0.7c0.1-0.3,0.2-0.6,0.4-0.9c0-1,0.1-1.7-0.1-2.7c-0.1-0.6,0.5-0.9,0.7-1.4c0.6-1.1,0.4-2.6,1.5-3.5
			c0.5-0.1,0.9,0.3,1.3,0.7c-0.2,1.1,0,2.2-0.3,3.3c-0.1,0.4,0.2,0.7,0.2,1.1c0.4,0.7,0,1.6,0.5,2.3c-0.1,1,0.2,1.9,0.5,2.8
			c0.3,0,0.3-0.4,0.5-0.5c0-0.5-0.2-1-0.3-1.6c0.3-0.1,0.5,0.3,0.8,0.5c0.4,0.7,0.8,1.6,1.6,2.1c0.2-0.2,0-0.5,0.1-0.7
			c-0.3-0.3-0.4-0.7-0.6-1c0.3,0,0.5,0.4,0.7,0.6c0.5,1.1,2.1,1.5,2,3c0,0.7-0.6,1.7,0,2.3l0.1,0.1c0.2,0.6,0.4,0.8,0.7,1.1
			c0.1,0.1,0.2,0,0.2-0.1c0.1-0.6,0.2,0.1,1.1,0.3c0.1-0.1,0.1-0.4,0.1-0.4c-0.1-0.4-0.2-0.9,0.1-0.8c0.2,0.2,0.6,0.4,0.7,0.7
			c0.1,0,0.2,0,0.3-0.1c0-1-1.3-1.4-1.1-2.5c0-0.2-0.2-0.4-0.1-0.6c0.3,0.5,0.8,1.1,1.5,1l0.2-0.2c-0.3-0.5-1-0.6-1.3-1.2
			c-0.4-0.5-1.3-0.7-1.1-1.6c-0.1-1,0.3-2,0-3.1l0.2-1.1c0.5,0.1,1,0.2,1.5,0.1c0.4,0,0.2,0.5,0.4,0.8c0.4,0.7,1.3,1,1.3,1.9
			c-0.3,0.6-1,0.9-1,1.6c0.4,0.5,0.7-0.3,1-0.3c-0.3,0.4-0.3,1.4-1.2,1.1c-0.4-0.1-0.8-0.4-1.2,0c-0.2,0.5,0.7,0.9,0.8,1
			c0.6,0.4,1.2,0.6,1.9,0.3c0.4-0.4,0.4-1,0.8-1.5c0.2-0.7,0.1-1.5,0.4-2.2c-0.2-1.2,0.5-2.1-0.1-3.2c-0.4-1.1,0.4-1.7,0.6-2.7
			c0.4-0.2,0.1-0.7,0.6-0.8c0.4-0.1,0.7,0.1,1,0.4c0.3,0,0.6,0.2,0.9,0.1c0.5-0.4,1.3-0.7,1.6-1.2c0.1-0.4-0.4-0.3-0.5-0.6l0.1,0
			c-0.2-0.7,0.2-1.6-0.5-2.1c-0.1-0.4-0.5-0.8-0.8-1.2c-0.1-0.5-0.5-1-1-1.2c-0.4,0-0.2,0.5-0.5,0.5c-0.6-0.2-1.3-0.8-2-0.3
			c-0.6-0.4-1.2-0.7-1.9-0.9c-0.6,0-1.2,0.1-1.8,0.2c-0.1-0.2-0.3-0.1-0.4-0.2c-0.9-1-1.9-1.9-2.7-3c-1.2-1.1-3-1.4-4.7-1.4
			c-0.3,0.3-0.7,0-1,0.3l-0.1-0.1c-0.2-3.5-2.8-6.6-5.5-8.8c-1.6-1.8-2.1-4-1.8-6.3c0.2-0.3,0-0.7,0.2-1c0.2-1.2,1.4-2.2,2.5-2.5
			c1.4,0,2.7,0.9,3.3,2.1c0.6,1.4,0.6,3.1-0.5,4.3c-0.2,0.3-0.1,0.5-0.4,0.8c0.1,0.6,0.5,0.9,0.8,1.3c0.5,0.3,1.4,0.5,1.9,0
			c0.8-0.4,1.2-1.2,1.7-1.8c0.4-0.9,0.6-2,0.5-3.1C36.2,97,36,96.7,36,96.3c-0.9-2.3-2.2-4.6-4.4-6c-0.5-0.1-0.9-0.6-1.5-0.6
			c-1.3-0.5-2.8,0-4,0.5C24.9,90.9,23.8,91.9,23.3,93.1"/>
	</g>
</g>
<g>
	<g>
		<path fill="#FFFFFF" d="M56.3,88.4c-0.2,1.1-0.7,4.7-1.5,5.6c-0.3,0.9-0.4,2-1.5,2.5c-0.7,1-2,1.9-1.7,3.2
			c-0.6,1.3-0.6,2.7-1.6,3.8c-0.1,0.3-0.2,0.8-0.3,0.9c-0.1,0.1,0,0.2-0.1,0.3c-0.4,0.6-1.2,0.8-0.9,1.7c-0.3,0.7,0.3,1.5,0.4,1.8
			c0.2,0.5,0.1,1.3,0.8,1.3c0.7-0.1,1.7-0.2,2.4-0.2c0.6-0.4,0.4-1.1,1.1-1.5c0.2-0.2,0.4-0.1,0.6-0.2c0.9-0.8,2.2-0.1,3.1-0.8
			c0.9,1.6,1.2,3.5,1.2,5.4c-0.4,1.1-0.4,2.1,0.1,3c0.7,1.5,0.3,3.4,1.6,4.7c0,2.1,1.4,3.8,1.8,5.8c1.9,1.7,0.1,4.5,1.5,6.4
			c0.1,1.3-0.2,2.7-0.6,4c-1,0.8,0,2.3-1.3,2.9c-0.3,0.6-0.7,1.1-0.8,1.8c0.6,0.2,1.1,0.4,1.7,0.2c0.1,0.2-0.1,0.6,0.2,0.6
			c0.3,0,1.5,0.5,2.9,0.3c0.7-0.1-0.1-2.8-0.1-2.8c-0.3-0.2,0-0.9-0.1-1.2c0.2-0.3,0.5,0,0.7-0.3c0.2-1.3,0.4-2.6,0.1-3.8
			c0-1.4,0.5-2.6,1-3.8c0.2-0.8-0.2-1.4-0.1-2.1c0.8-2,1-4.2,1.9-6.2c0-0.4-0.2-0.8-0.2-1.2c2.1,1.6,5.6,0.9,8.1,0.1
			c-0.2,1.9,1.5,2.9,2.7,4c1.1,0.8,0.2,2.1,0.9,3.1c0.1,0.9-0.6,1.5-0.6,2.4c-0.2,1.2-1,2.2-1.8,3.2c-0.7,0.8-0.3,2.2-1.6,2.4
			c-0.3,0.8-0.6,1.6-0.9,2.4c0.9,0.4,2.2,0.5,3.2,0.2c0.5-0.6,0.9-1.3,0.8-2.2c0-0.2-0.2-0.3-0.3-0.4c0.2-0.4,0.3-0.9,0.8-1.1
			c0,0,0.2,0,0.8-0.2c0.6-0.1,0.9-2.2,0.6-3.8c0-0.3,0.3-1.3,1.1-2.6c0.5-0.9,1.7-1.5,1.2-2.6c-0.5-1.3-1.9-2.1-1.7-3.7
			c-0.2-1.4,0.2-2.8,0.4-4.3c0.2-0.2,0.5-0.4,0.8-0.4c0.2,1.3,0.9,2.5,1.7,3.5c0.1,1.4,0.4,2.9,1,4.2c-0.7,1.3,0.2,2.3,0.3,3.5
			c0.4,1.1,0.9,2.6,0.9,3.4c0,0.8-0.4,1.7-0.5,2.6c0.1,0.7-0.3,1.9,0.7,1.9c0.3,0.9-0.6,1.8-0.5,2.6c-0.4,1.4,3.2,0.6,3,0.4
			c-0.2-0.9,0.1-2-0.8-2.4c-0.3-0.1-0.4-0.2-0.4-0.2c0.3-1,0.7-2,0.2-2.9c-0.3-0.5-0.6-2.8-0.6-4.7c0-1.2,0.2-2.1,0.1-2.4
			c-0.2-0.5-0.1-2.8-0.8-3.9c0.2-2,1.3-4.2,0.5-6.1c0.2-2.5,0.9-5.3,0-7.5l0.1-0.1c0.5,1.6,1.2,4.1,1.4,4.6c0.2,0.6,1,2,1.3,3.1
			c0.3,1.4,0.2,3.1,0.1,4.6c0,0.5,0.1,0.7,0,1c-0.1,1.4,0,2.6-0.3,3.9c0,0-0.1,0.2,0.1,0.2c0.1,0,0.3-0.5,0.4-0.7
			c0.6,0.1,0.4-0.9,0.8-1.2c0,0.7-0.3,1.5-0.6,2.2c-0.1,0.1,0,0.4,0.2,0.2c1.4-2.3,2-5.1,1.8-7.7c-0.5-2.4-2.2-4.3-3.2-6.6
			c-0.6-2.2-0.8-4.8-2.5-6.4c-0.8-1.4-2.3-1.9-3.6-2.6c-2-1-4.5-2.1-6.9-0.8c-2,0.8-4.4,2.1-6.6,1c-0.7-0.8-2.1-1-2-2.4
			c-1-1.1-1.4-3-3.1-3.2c-1.6-0.6-2.3-2.6-3.9-3.3c0-0.5,2.3-3.6,2.5-4.1c0.1-1,0-2.3,0.4-3.3l0-0.5c-1,0.2-1.3,1.3-2.1,1.9
			c-1.1,0.4-3.5,5.3-4.7,4.2c0.4-1.2,0.3-4.8-0.1-5.9c-0.1-0.1-0.3-0.3-0.5-0.1C56.5,87.5,56.4,88,56.3,88.4"/>
	</g>
</g>
<g>
	<g>
		<path fill-rule="evenodd" clip-rule="evenodd" fill="#FFFFFF" d="M44.1,161.7l0.1-0.2c0,0-0.3-0.7-0.3-0.8
			c-0.1-0.1-0.3-0.5-0.3-0.7c-0.4-0.8-0.2-0.4-0.5-1.5c-0.3-1-0.4-1.7-0.3-2.5c0.1-0.5,0.1-1.1,0-1.5c0-0.4-0.1-0.8-0.1-1.2
			c0-0.2,0-0.4,0-0.5c0-0.1,0-0.3,0.1-0.4c0-0.1,0-0.3,0.1-0.4c0-0.3,0.1-0.6,0.1-0.8c0-0.2,0-0.5,0-0.7c-0.1-0.4,0-0.7-0.1-1.1
			c-0.1-0.2-0.1-0.4-0.1-0.6c0-0.2-0.2-0.5-0.2-0.6c-0.1-0.2-0.2-0.3-0.2-0.5c-0.1-0.1-0.2-0.3-0.3-0.5c-0.1-0.2-0.1-0.5-0.2-0.7
			c0-0.2-0.1-0.4,0-0.6c0-0.2,0-0.3,0-0.5c0-0.2-0.2-0.3-0.2-0.4c-0.1-0.1-0.1-0.4-0.2-0.6c0-0.2,0-0.3,0-0.5c-0.2,0-0.5,0-0.7,0
			c-0.2,0-0.5,0-0.7,0c-0.2,0-0.4,0-0.7,0c-0.2,0-0.5,0-0.6-0.1c-0.1-0.5,0.2-0.3,0.6-0.4c0.5,0,0.9,0,1.4,0c0.1,0,0.3,0,0.5,0
			c0.1,0,0.1,0,0.2,0c0.1,0,0.1-0.1,0.1-0.2c0.1-0.2-0.1-0.2-0.2-0.2c-0.1,0-0.2-0.1-0.4-0.1c-0.2-0.1-0.6-0.1-0.8-0.2
			c-0.4-0.1-0.5-0.1-0.8-0.2c-0.3-0.1-0.6-0.1-0.5-0.4c0-0.1,0.1-0.1,0.4-0.1c0.4,0.1,0.8,0.2,1.2,0.3c0.2,0.1,0.5,0.1,0.8,0.2
			c0.1,0,0.2,0.1,0.4,0.1c0.1,0,0.2,0,0.3-0.1c0-0.1-0.2-0.2-0.3-0.2c-0.1-0.1-0.2-0.1-0.4-0.2c-0.2-0.1-0.5-0.2-0.7-0.3
			c-0.2-0.1-0.5-0.2-0.7-0.3c-0.1-0.1-0.3-0.1-0.4-0.2c-0.1-0.1-0.3-0.1-0.3-0.2c0-0.1,0-0.2,0.1-0.2c0,0,0.1,0,0.1,0
			c0.1,0,0,0,0.2,0.1c0.2,0.1,0.4,0.2,0.7,0.3c0.2,0.1,0.4,0.2,0.6,0.3c0.5,0.1,1.3,0.6,1.3,0.5c0.2-0.1,0.3-0.2,0.4-0.3
			c0.2,0,0.3-0.2,0.5-0.2c0,0,0.1,0,0.1,0c0.6,0.1,0.9,0.5,1.3,0.8c0.2,0.2,0.4,0.3,0.6,0.5c0.2,0.2,0.4,0.3,0.7,0.4
			c0.1,0,0.2,0,0.4,0.1c0,0,0.1,0,0.1,0c0.1,0,0.1,0,0.2,0c0.2,0,0.4,0.1,0.7,0.2c0.2,0,0.4,0.2,0.6,0.2c0.2,0.1,0.4,0.2,0.6,0.3
			c0.2,0.1,0.4,0.2,0.5,0.4c0.2,0.1,0.3,0.3,0.5,0.4c0.2,0.1,0.3,0.3,0.4,0.4c0.1,0.2,0.3,0.3,0.4,0.5c0.1,0.2,0.2,0.4,0.3,0.6
			c0.1,0.2,0.2,0.5,0.3,0.7c0.2,0.5,0.3,1,0.5,1.4c0.2,0.7,0.5,1.4,0.8,2c0.1,0.1,0.1,0.2,0.1,0.3c0.1,0.1,0.1,0.2,0.2,0.2
			c0.1,0.2,0.3,0.3,0.4,0.5c0.3,0.4,0.6,0.6,1,0.9c0,0,0.1,0.1,0.1,0.1c0,0,0,0,0.1,0c0.2,0.2,0.4,0.3,0.6,0.5
			c0.2,0.2,0.4,0.4,0.6,0.5c0.2,0.2,0.5,0.4,0.7,0.6c0.1,0.1,0.1,0.2,0.2,0.2c0.3,0.3,0.6,0.6,0.9,0.9c0.3,0.3,0.6,0.6,0.9,0.9
			c0.3,0.3,0.6,0.6,0.9,0.9c0.3,0.3,0.6,0.6,0.8,1c0.3,0.3,0.6,0.6,0.8,1c0.2,0.4,0.5,0.7,0.8,1.1c0.3,0.3,0.5,0.7,0.8,1.1
			c0.2,0.4,0.4,0.8,0.7,1.1c0.2,0.4,0.5,0.7,0.7,1.1c0.2,0.4,0.4,0.8,0.6,1.2c0.2,0.4,0.4,0.8,0.6,1.2c0.2,0.4,0.4,0.8,0.6,1.2
			c0,0.2,0.1,0.3,0.2,0.5c0.1,0.2,0.2,0.5,0.4,0.8c0.1,0.2,0.2,0.5,0.2,0.7c0.1,0.2,0.2,0.3,0.2,0.6c0.1,0.2,0.2,0.5,0.3,0.7
			c0.1,0.2,0.2,0.4,0.3,0.6c0.1,0.2,0.2,0.4,0.2,0.6c0,0.1,0.1,0.2,0.1,0.3c0.1,0.2,0.2,0.4,0.3,0.6c0,0,0,0.1,0,0.1
			c0.1,0.1,0.1,0.3,0.2,0.4c0.1,0.1,0.1,0.3,0.2,0.4c0.1,0.3,0.3,0.4,0.4,0.7c0.1,0.2,0.2,0.3,0.3,0.5c0.1,0.2,0.2,0.4,0.4,0.5
			c0.1,0.2,0.3,0.3,0.4,0.5c0.1,0.2,0.3,0.3,0.4,0.5c0.1,0.2,0.3,0.3,0.4,0.5c0.1,0,0.1,0.1,0.2,0.2c0.1,0,0.1,0.1,0.2,0.2
			c0.1,0.1,0.1,0.1,0.3,0.3c0.2,0.2,0.4,0.4,0.7,0.6c0.3,0.2,0.5,0.4,0.8,0.6c0.2,0.2,0.5,0.4,0.8,0.5c0.3,0.1,0.6,0.3,0.9,0.4
			c0.1,0.1,0.1,0.1,0.2,0.1c0.1,0.1,0.1,0.1,0.2,0.1c0.1,0.1,0.2,0.1,0.4,0.2c0.1,0.1,0.3,0.2,0.4,0.3c0.2,0,0.2,0.2,0.4,0.2
			c0.3,0.2,0.5,0.3,0.8,0.5c0.1,0.1,0.3,0.2,0.4,0.3c0.1,0.1,0.2,0.2,0.4,0.3c0.1,0.1,0.2,0.2,0.4,0.3c0.4,0.3,0.8,0.7,1.1,1.2
			c0,0,0,0,0.1,0c0,0,0.1,0.1,0.1,0.2c0.1,0.1,0.2,0.2,0.3,0.3c0.2,0.2,0.4,0.5,0.6,0.8c0.2,0.3,0.4,0.6,0.6,0.9
			c0.1,0.2,0.3,0.4,0.4,0.7c0.1,0.2,0.2,0.4,0.3,0.7c0,0.1,0,0.1,0.1,0.2c0,0,0.1,0.1,0.1,0.2c0.1,0.2,0.1,0.5,0.1,0.7
			c0,0.3,0,0.5-0.1,0.6c-0.3,0.1-0.6-0.1-0.8-0.2c-0.2-0.1-0.4-0.3-0.7-0.4c-0.2-0.2-0.3-0.2-0.6-0.2c-0.2,0-0.3-0.1-0.5,0
			c-0.2,0-0.3,0-0.6-0.2c-0.2-0.1-0.3-0.3-0.4-0.4c-0.1,0-0.2-0.1-0.4-0.2c-0.1,0-0.1,0-0.2-0.1c-0.2-0.1-0.3-0.2-0.5-0.3
			c-0.3-0.2-0.6-0.4-0.9-0.7c-0.2-0.1-0.2-0.3-0.4-0.4c-0.1-0.1-0.1-0.1-0.2-0.2c0-0.1-0.1-0.2-0.2-0.2c-0.1-0.2-0.3-0.3-0.4-0.4
			c-0.1-0.1-0.1-0.1-0.2-0.2c-0.1-0.1-0.2-0.1-0.3,0c0,0,0,0.1-0.1,0.1c0,0.2,0,0.3,0.1,0.4c0.1,0.1,0.1,0.3,0.2,0.4
			c0.1,0.2,0.2,0.5,0.4,0.7c0.1,0.2,0.1,0.4,0.2,0.6c0.1,0.2,0.1,0.4,0.2,0.6c0,0.2,0,0.3,0,0.4c-0.1,0.1-0.1,0.2-0.1,0.3
			c-0.1,0.2-0.2,0.3-0.3,0.5c0,0,0,0.1,0,0.2c0,0.2,0.1,0.5,0.1,0.7c0.1,0.3,0,0.5-0.2,0.6c-0.1,0-0.3,0-0.4-0.1
			c-0.1-0.1-0.2-0.1-0.3-0.2c-0.1-0.2-0.4-0.3-0.5-0.5c-0.2-0.2-0.2-0.2-0.4-0.5c-0.1-0.2-0.3-0.3-0.4-0.5c-0.2-0.2-0.3-0.4-0.4-0.6
			c-0.1-0.2-0.2-0.4-0.3-0.6c-0.3-0.4-0.8-1.5-0.9-1.5c0-0.1-0.1-0.2-0.2-0.3c-0.1-0.2-0.2-0.4-0.3-0.7c-0.2-0.6-0.4-0.9-0.6-1.4
			c-0.1-0.1-0.1-0.3-0.2-0.4c0,0,0-0.1-0.1-0.1c0-0.1-0.1-0.2-0.1-0.3c-0.1-0.2-0.2-0.4-0.3-0.5c-0.3-0.4-0.7-0.5-1.1-0.7
			c-0.2-0.1-0.2-0.2-0.3-0.2c0,0-0.1-0.1-0.1-0.1c0-0.1-0.2-0.2-0.2-0.3c0,0,0-0.1-0.1-0.1c-0.1-0.1-0.2-0.2-0.2-0.3
			c-0.2-0.3-0.5-0.4-0.7-0.6c-0.5-0.2-0.9-0.4-1.5-0.5c-0.5-0.1-1-0.3-1.5-0.5c-0.5-0.2-0.9-0.4-1.4-0.6c-0.3-0.1-0.5-0.2-0.7-0.3
			c-0.2-0.2-0.5-0.2-0.7-0.3c-0.3-0.1-0.5-0.2-0.7-0.3c-0.2-0.1-0.5-0.2-0.7-0.3c-0.2-0.1-0.4-0.2-0.7-0.3c-0.2-0.1-0.4-0.3-0.6-0.4
			c-0.1-0.1-0.3-0.2-0.5-0.3c0,0,0,0-0.1,0c0,0-0.1,0-0.1-0.1c-0.2-0.1-0.4-0.2-0.6-0.4c-0.6-0.4-1.2-0.7-1.8-1.1
			c-0.2-0.1-0.4-0.3-0.6-0.4c-0.3-0.3-0.8-0.5-1.1-0.9c-0.4-0.3-0.7-0.7-1.1-1c-0.1,0-0.2-0.1-0.3-0.2c0,0-0.1-0.1-0.1-0.1
			c-0.1,0-0.1-0.1-0.2-0.2c-0.1-0.1-0.2-0.2-0.3-0.2c-0.1-0.1-0.2-0.2-0.2-0.3c0,0-0.1-0.1-0.1-0.1c0,0-0.1-0.1-0.1-0.1
			c-0.1-0.1-0.1-0.2-0.2-0.2c0,0,0,0-0.1,0c0,0,0,0-0.1-0.1c-0.1-0.1-0.2-0.2-0.3-0.3c-0.1-0.1-0.3-0.3-0.4-0.4
			c-0.1-0.1-0.2-0.2-0.2-0.3c-0.1-0.1-0.1-0.1-0.2-0.2c-0.1-0.1-0.2-0.2-0.2-0.3c-0.1-0.2-0.3-0.3-0.5-0.6c-0.2-0.2-0.3-0.4-0.4-0.6
			c-0.2-0.2-0.3-0.4-0.5-0.5c-0.1-0.2-0.3-0.4-0.5-0.4c-0.1,0-0.2,0-0.4,0.1c-0.2,0.2-0.2,0.7-0.2,1.1c0,0.4,0.3,1.1,0.3,1.7
			c0,0.1,0,0.2,0,0.3c0,0.1-0.1,0.1-0.2,0.2c-0.3,0-0.5-0.2-0.7-0.3c-0.1-0.1-0.2-0.2-0.3-0.3c0,0-0.1-0.1-0.1-0.1
			c0,0,0-0.1-0.1-0.1c-0.1-0.1-0.2-0.2-0.2-0.3c0,0-0.1-0.1-0.1-0.2c0-0.1-0.1-0.2-0.1-0.2c-0.1-0.2-0.1-0.2-0.2-0.3
			c-0.1-0.1-0.1-0.2-0.2-0.3c-0.1-0.3-0.2-0.7-0.3-1c-0.1-0.2-0.1-0.4-0.2-0.6c-0.1-0.5-0.1-0.5-0.1-1c0,0.1,0-0.8,0.2-1.3
			c0-0.2,0.2-0.6,0.3-0.9"/>
	</g>
</g>
<g>
	<g>
		<path fill="#FFFFFF" d="M54.1,52.3c-0.4,0.3-2.2,0.3-2.4,0.2c-0.2-0.1-0.2-0.1-0.3-0.1c0,0-0.4-0.2-0.6-0.4
			c-0.2-0.2-0.2-0.2,0-0.2c0.2,0,0.4,0,0.7-0.1c0.2-0.1,0.8-0.3,1-0.3c-0.5,0-1.2-0.4-1.4-0.6c-0.1-0.1-0.1-0.2,0.1-0.2
			c0.2,0,0.4,0,0.8,0c0.1,0,0.1,0,0.2,0c0.6,0.2,1.1,0,1.3-0.4c0.2-0.3,0.3-0.4,0.4-0.8c0.3-2.4,1.4-5.8,1.5-7.4
			c0.1-1,0.4-1.3,0.8-1.5c2.2-0.8,4.7-3.2,5.8-4.5c1.1-1.2,1.7-2.2,2-3.1c0.2-0.5-0.5-1.8-1-2.2c-0.8-0.6-1.4-0.8-2-1.1
			c-0.5-0.2-0.9-0.5-1.4,0c-4.1,3.4-2.7,7.9-6.7,13.3c-4.4,5.9-10.8,5.8-12.9,0.6c-0.2-0.6,0.3-0.9,0.7-0.3c2.6,3.4,8.1,3.5,11.1-4
			c2.1-5.2,2.2-9.3,5.3-13.6c2.2-3.1,4.7-4.6,7.3-6.1c2-1.1,3.3-2.1,8.1-2.6c4.2-0.5,4.1,0.4,9.2,0.2c0.3,0,1.4-0.2,1.6-0.3
			c0.8-0.2,0.6-0.1,1-0.3c0.2-0.1,0.4-0.3,0.6-0.6c0.5-1,0.8-1.1,1-1.8c0.1-0.2,0.1-2.2,0.1-2.3c0-0.1-0.1-0.4-0.4-0.6
			c-0.7-0.3-0.9-0.5-1.3-1.2C83.7,9,83.8,8,84.3,8c0.6,0,1.6,0.3,2.8,1.3c0.4,0.4,0.7,1.3,1.9,1.7c1.6,0.5,2.5,1,3.3,1.7
			c0.5,0.5,1.3,1,1.8,1.4c0.7,0.4,0.7,0.8,0.6,1.4c0,0.2-0.1,0.3-0.3,0.6c-0.5,0.7-1.8,0.8-2.5,0.6c-1-0.3-1.4-0.2-2.3-0.4
			c-0.6-0.2-0.4,0.9-0.7,1.7c-0.3,1.2,0.2,0.1-1,2.7c-0.7,1.4-2.7,2.5-3.9,3.5c-0.1,0.1,1.6,2.7,2.1,3.5c0.5,0.9,0.5,1.4,0.5,1.7
			c0,0.7-0.1,1.1-0.7,1.4c-0.4,0.2-0.7,0.4-1.1,0.5c-1.6,0.6-2.6-0.2-2.7-0.2c-0.6-0.6-0.3-1.1-0.1-1.4c0,0,0.4-0.4,0.7-0.4
			c0,0,0.3,0.1,0.3,0.1c0-0.2,0.1,0.4,0.4,0.4c1-0.1,0.8-0.5,0.8-0.4c-0.6-2.7-2.2-2.9-2.5-3.6c-2.4,1.5-6.2,2.3-9.7,2.5
			c0,1.4-0.1,2.6-0.5,3.5c-0.7,1.8-1.5,2.7-2.6,3.5c-2.3,1.8-1.7,0.2-7.4,5.3c-3.7,3.4-4.6,4.1-5.2,7.9
			C56.2,51.1,55.2,52.1,54.1,52.3"/>
	</g>
</g>
<g>
	<g>
		<path fill="#FFFFFF" d="M221.6,77.6c0.1,0.4,0.3,1.3,0.7,1.7c0.3,0.4,1.2,2.1,1.8,3.1c0.7,1.5,1.1,3.2,0.1,4.6
			c-0.3,0.4-0.3,0.9-0.9,1.2c-0.7,0.3-1.3,0.4-1.9,0.5c-3.8,0.1-7.7,0.8-11.5-0.3c-1.1-0.1-2.1-0.3-3-0.6c-1.4-0.5-4-0.3-4.2-2.3
			c0.1-0.2,0.5-0.5,0.1-0.8c-1.5-0.8-2-2.7-2.1-2.9c-0.1-0.3-0.6-1.3-1.2-1.6c-0.7-0.4-1.3-0.5-1.8-0.6c-0.4-0.1-1.4-0.2-2.3-0.2
			c-0.7,0-1,0.3-1.4,0.5c-0.2,0.1-0.4,0.2-0.5,0.3c-0.2,0.1-0.2,0.2-0.3,0.2c-0.5,0.4-1.4,0.3-1.1,1.2c-0.5,0.8-1.6,0.9-2.5,1
			c-0.3,0-0.6,0-0.9,0c-0.4,0.3-0.2,1,0,1.5c-0.1,0.3-0.2,0.4-0.1,1.1c0.4,0.9,1,1.8,2,2c1.3,0.2,2.7,1.1,3.2,0.8
			c0.4-0.2,0.6-0.2,0.9-0.1c0.4,0.1,0.5,1,0.9,1.8c0.3,0.7,0.8,1.3,0.9,1.5c0.2,0.5-0.1,3.3,0.9,4.8c-0.3,1.5,1.3,2.2,1,3.6
			c0.2,1.3,0.2,2.5,0.5,3.8c0,0.5,0.1,1.4,0,2c-0.3,0.7,0.1,1.9-0.9,2.1c-0.6,0.3-1.4,1.1-1.4,1.3c0,0.2,0,0.9,0.4,1
			c0.9,0.1,2.1,0.4,2.8-0.3c1.3-0.6,0.2-2,1.4-2.8c0.2-0.3,0.1-0.6,0-1c-0.2-1.7,0-3.4,0.3-4.9c0.7,0.3,0.7,1.2,0.9,1.9
			c0.3,2.2-0.1,4-0.2,6.1c-0.2,0.3-0.3,0.5-0.5,0.7c-0.2,0.1-0.6,0.3-0.7,0.4c-0.3,0.3-1.5,1-1.2,1.9c0.6,0.8,2.7,0.5,2.8,0.5
			c0.1,0,0.2-0.1,0.2-0.1c0.5-0.3,0.3-1,0.8-1.3c0.2-0.7,0.6-1.3,1.1-1.9c0.3-0.1,0.1-0.6,0-0.7c0-0.2,0.1-1,0-1.6
			c0.1-1-0.1-2.1,0.1-3.2c0.4-0.7,0.4-1.5,0.5-2.3c0-0.3,0.2-0.7,0.3-1c0-0.4,0.2-0.4,0.5-0.4c0.3,0,3.2,0,5.4-0.4
			c0.5-0.1,0.9-0.2,1.3-0.3c1.4-0.2,2.6-0.9,4.2-0.4c0.4,0.1,0.6,0.3,0.9,0.5c0.7,0.2,0.8,0.4,1.2,0.4c0.7,0.1,0.5,1.1,1,1.6
			c0.2,1,0.3,2.2-0.1,3.3c-0.5,0.5-0.9,1.7-2,1.7c-0.7,0.3-1.7,0.9-1.2,1.7c1.1,0.3,3.1,0.4,3.3,0c0.2-0.3,0.4-0.6,0.7-0.8
			c0.8-1.2,1.2-2.7,2.5-3.5c0.4-0.5-0.2-1.3,0.4-1.8c0.5,0,0.6,0.6,1.1,0.6c1.1,0.8,1.2,2.1,2.1,2.9c0.2,1.4,1.4,3.1,0.2,4.5
			c-0.6,0.3-0.9,0.9-1.2,1.5c0.4,0.6,1.6,0.5,1.8,0.6c0.2,0.1,1.5,0,1.5-0.1c0-0.1,1-1.2,0.6-2c0.2-1.5-0.3-3.2,0-4.8
			c-0.1-0.5-0.5-0.6-0.8-1c-0.1-0.8-0.8-1.8-1-2.6c-0.1-0.6,0.4-1.1,0.4-1.4c0.2-0.8,0-1.8-0.1-2.9c0,0-0.8-3.7-1-4.1
			c-0.1-0.4-0.4-0.7-0.4-0.9c-0.1-0.3-0.7-1.6-0.6-2.6c0-0.4,0.5-1.1,0.8-1.8c0.3-0.8,0.6-1.3,0.7-1.9c0.2-1.5-0.5-3.6-0.7-4
			c-0.2-0.5-1.8-2.4-2-2.6c-0.2-0.2-0.6-0.7-1.1-1.3c-0.5-0.6-1-2.2-1.1-2.6c-0.1-0.4-0.2-0.6-0.1-1
			C221.8,75.4,221.3,76.5,221.6,77.6"/>
	</g>
</g>
<path fill="#FFFFFF" d="M168.9,182.9c-0.2-1.6-2.2-0.9-3.5-1.3c0.7-0.2,1.7-0.5,1.1-1.1c-1.3-1.1-3.2-0.7-4.9-0.6
	c-0.8,0-1.6,0.1-2.3,0.1c-2.4,0-4.8,0.2-7.2-0.2c-2.5-0.4-4.8-1.5-7.3-2c-3.4-0.7-6.7,0.6-10.2,0.4c-6.7-0.4-13.2,1.6-19.9,1.5
	c-1.9,0-3.7,0-5.6-0.5c-3.5-0.9-6.6-1.6-9.9-3c-3.2-1.5-5.7-4-7.3-7.1c-0.9-1.6-1.7-3.2-2.6-4.8c1.7-2.5,3.8-4.7,4.6-7.9
	c0.2-0.9,0.4-3.1-0.5-2.4c-2.9,2-6.1,2.3-9.2,3.4c-0.2,0.1-0.4,0.1-0.6,0.3c-0.2-0.4-0.5-0.8-0.8-1.1c-3.4-2.9-7.5-4.6-10-8.7
	c-0.2-0.3-0.7-0.6-1-0.4c-0.2,0.1,0,0.6,0,0.8c1.3,5.3,4.3,10,7.9,14c0.6,0.7,1.2,1.5,1.8,2.2c0,8.3,3.9,16,8.5,23
	c2.9,4.3,6.1,8,10.6,10.7c5,2.9,10.3,4.3,15.8,5.1c0,0-0.1,0.1-0.1,0.1c-0.7,0.6-2,2.5-0.7,2.7c2.9,0.4,5.4-0.6,7.6-2.2
	c0,0,0,0,0.1,0c15.2,2.8,29.1-4.1,33.7-6.4c4.7-2.4,7.8-6.4,10.3-11C168.3,185.7,169.1,184.2,168.9,182.9z"/>
<g>
	<g>
		<path fill="#FFFFFF" d="M100.8,158.8c0.3-0.1,0.6-0.2,0.6-0.5c0-0.1-0.1,0-0.2-0.1c-0.1-0.1-0.1-0.1-0.2-0.2
			c-0.1-0.1-0.1-0.2-0.2-0.2c-0.1-0.2-0.2-0.2-0.3-0.5c-0.1-0.3,0-0.5,0-0.8c0.1-0.4,0.3-0.6,0.5-0.9c0.2-0.1,0.2-0.2,0.5-0.2
			c0.6-0.1,1,0.1,1.4,0.4c0.2,0.1,0.2,0.3,0.2,0.4c0.1,0.1,0.1,0.3,0.3,0.4c0.1-0.1,0.2-0.2,0.2-0.3c0.1-0.1,0.1-0.2,0.3-0.4
			c0.1-0.1,0.1-0.1,0.1-0.2c0-0.1,0.4-0.4,0.7-0.7c0.4-0.4,0.9-0.8,1.4-1.1c0.4-0.2,0.6-0.2,1-0.5c0.3-0.2,0.5-0.3,0.9-0.5
			c0.4-0.2,0.6-0.3,1.1-0.3c0.2,0,0.3-0.1,0.5-0.2c0.4-0.1,0.7-0.1,1.1-0.2c0.3,0,0.5,0,1-0.1c0.6-0.1,1.3-0.1,2,0
			c1,0.1,1.7,0.2,2.5,0.4c0.4,0.1,0.6,0.2,1.1,0.3c0.7,0.2,1.4,0.5,2.2,0.7c0.8,0.1,1.7,0.3,2.6,0.3c0.4,0,0.8-0.1,1.3,0
			c0.7,0.1,2.3,0.2,2.5,0.3c1,0.2,2.2,0.4,3.2,0.6c0.6,0.2,1.2,0.3,1.8,0.6c0.4,0.1,0.8,0.2,1.2,0.3c0.2,0.1,0.5,0.2,0.7,0.3
			c0.1,0,0.3,0.1,0.4,0.2c0.5,0.2,1.5,0.6,2.1,0.9c0.4,0.2,0.6,0.4,0.9,0.7c0.3,0.2,0.6,0.4,0.9,0.6c0.4,0.4,0.6,0.7,0.8,1
			c0.3,0.4,0.6,0.7,0.9,1c0.1,0.1,0.3,0.3,0.6,0.4c0.1,0.1,0.2,0,0.3,0.1c0.4,0.2,0.9,0.2,1.5,0.3c0.6,0.1,1.1,0.1,1.6,0.3
			c0.3,0.1,0.5,0.2,0.8,0.4c0.1,0.1,0.3,0.1,0.3,0.2c0,0,0,0,0.1,0c0.1,0.1,0.2,0.2,0.1,0.4c-0.1,0.2-0.3,0.1-0.4,0.2
			c-0.5,0.1-1.1,0.1-1.5,0.3c-0.1,0.1-0.3,0.2-0.5,0.3c-0.3,0.1-0.4,0.2-0.6,0.2c-0.3,0.2-0.4,0.2-0.4,0.4c0,0.5,0.3,0.7,0.4,1
			c0.1,0.2,0.1,0.3,0.3,0.5c0.1,0.2,0.1,0.4,0.2,0.5c0.1,0.1,0.2,0.2,0.3,0.3c0.4,0.2,1,0.3,1.5,0.5c0.1,0,0.1,0.1,0.2,0.2
			c0.1,0.3,0,0.7-0.1,1c-0.1,0.2-0.2,0.3-0.3,0.4c-0.1,0.3-0.2,0.5-0.3,0.7c-0.1,0.2-0.2,0.2-0.3,0.3c-0.3,0.1-0.6,0.1-0.9,0
			c-0.2,0-0.4,0-0.6,0c-0.2,0-0.4-0.1-0.6-0.1c-0.2,0-0.4,0-0.6,0c-0.4,0.1-0.7,0.3-1,0.5c-0.3,0.2-0.3,0.1-0.5,0.2
			c-0.2,0.1-0.3,0.2-0.5,0.2c-0.3,0.1-0.4,0-0.6,0c-0.6,0-1.2,0-1.9-0.2c-0.2,0-0.5-0.1-0.7-0.2c-0.3-0.1-0.5-0.2-0.7-0.3
			c-0.2-0.1-0.5-0.2-0.7-0.3c-0.3-0.1-0.5-0.3-0.7-0.1c0.1,0.4,0.3,0.5,0.6,0.8c0.1,0.1,0.2,0.2,0.3,0.2c0.1,0.1,0.3,0.3,0.4,0.4
			c0.3,0.2,0.5,0.4,0.8,0.5c0.3,0.2,0.6,0.3,0.8,0.5c0,0,0.2,0.2,0.2,0.2c0.1,0.3,0.2,0.4,0.4,0.8c0,0.1,0,0.2,0.1,0.3
			c0.1,0.3,0.2,0.6,0.2,0.8c0,0.2,0.2,0.5,0.1,0.8c-0.4,0.1-0.7,0-1-0.1c-0.3-0.1-0.5-0.3-0.7-0.5c-0.3-0.1-0.3-0.4-0.6-0.5
			c-0.2,0-0.4,0.1-0.5,0c0,0-0.1,0-0.1-0.1c-0.2-0.2-0.2-0.6-0.3-0.9c-0.2-0.2-0.3-0.4-0.6-0.5c-0.3-0.1-0.7-0.1-1-0.2
			c-0.1,0-0.2-0.1-0.3-0.1c-0.2-0.1-0.5-0.2-0.7-0.3c-0.3-0.1-0.5-0.2-0.8-0.3c-0.3-0.1-0.6-0.3-0.8-0.4c-0.3-0.2-0.7-0.5-1-0.7
			c-0.2-0.1-0.3-0.1-0.5-0.2c-0.3-0.2-0.6-0.4-0.8-0.6c-0.3-0.2-0.6-0.5-1-0.4c-0.1,0-0.1,0.1-0.1,0.2c0,0.1-0.1,0.1-0.1,0.2
			c-0.1,0.3-0.2,0.6-0.2,0.9c-0.2,0.6-0.5,1.3-0.8,1.8c-0.2,0.2-0.4,0.4-0.7,0.6c-0.1,0.2-0.3,0.2-0.3,0.3c-0.2,0.1-0.2,0.2-0.3,0.4
			c0,0.3,0.2,0.5,0.3,0.7c0.1,0.1,0.2,0.2,0.4,0.3c0.1,0.1,0.3,0.2,0.4,0.4c0.2,0.2,0.5,0.5,0.4,0.9c-0.6,0-1,0.1-1.5,0.1
			c0,0,0,0-0.1,0c-0.3,0-0.5,0-0.8,0c0,0,0,0,0,0c-0.1,0-0.3-0.1-0.4-0.1c-0.1-0.2-0.1-0.4-0.2-0.5c-0.1-0.1-0.2-0.2-0.3-0.3
			c-0.1-0.1-0.2-0.2-0.4-0.3c-0.3-0.1-0.5-0.4-0.6-0.7c0-0.3,0.2-0.5,0.3-0.8c0-0.8-0.2-1.3-0.4-1.9c0-0.3-0.1-0.6,0-0.9
			c0-0.3,0-0.6-0.2-0.7c-0.4,0-0.8,0.1-1,0.2c-0.5,0.1-1.2,0.1-1.7,0.1c0,0-0.1,0-0.1,0c-0.5,0-0.9-0.1-1.4-0.1
			c-0.2-0.1-0.5-0.1-0.7-0.1c-0.3,0-0.5-0.1-0.7-0.1c-0.4,0-0.9-0.2-1.2-0.4c-0.5,0-0.8-0.2-1.4-0.2c-0.1,0.1-0.3,0.2-0.3,0.4
			c-0.1,0.2-0.1,0.4-0.2,0.6c-0.2,0.3-0.3,0.5-0.5,0.8c0,0.1-0.1,0.1-0.1,0.2c0,0.1,0,0.1-0.1,0.2c-0.1,0.1-0.2,0.1-0.2,0.2
			c-0.1,0.1-0.3,0.3-0.3,0.4c0,0,0,0,0,0c-0.1,0.1-0.2,0.2-0.2,0.3c-0.2,0.8,0.3,1.1,0.3,1.8c0.2,0.3,0.4,0.6,0.7,0.8
			c0.2,0.3,0.6,0.4,0.6,0.9c-0.3,0.3-1,0.2-1.4,0.1c-0.2,0-0.4,0-0.6,0c-0.2,0-0.4,0-0.6,0c-0.2-0.2-0.2-0.5-0.4-0.7
			c-0.2-0.2-0.4-0.4-0.5-0.5c-0.1-0.3-0.2-0.6-0.2-1c-0.1-0.2-0.2-0.3-0.2-0.5c-0.3-0.5-0.6-1-0.8-1.5c0-0.1-0.2-0.3,0-0.4
			c0,0,0.1-0.1,0.1-0.1c0,0,0.1,0,0.3-0.1l0.2-0.1c0.2-0.1,0,0,0.1-0.1l0.2-0.2l0.1-0.1l0.1-0.1l0.1-0.1c0,0,0,0,0-0.1
			c0-0.1-0.4-0.3-0.5-0.1c-0.1,0.1-0.1,0.1-0.1,0.1l-0.1,0.1l-0.1,0.1l-0.2,0.1l-0.2,0.1l-0.1,0.1c-0.1,0-0.1,0-0.2,0.1l-0.1,0.1
			c-0.1,0-0.2,0.1-0.2,0.1c-0.1,0-0.2,0-0.3,0.1c-0.2,0.1-0.5,0.1-0.6,0.3c-0.1,0.2-0.1,0.4-0.2,0.6c0,0.3-0.2,0.4-0.2,0.7
			c-0.1,0.2-0.2,0.4-0.3,0.6c0,0.3-0.2,0.4-0.3,0.6c-0.1,0.1-0.2,0.3-0.3,0.4c-0.1,0.1-0.2,0.2-0.3,0.4c-0.2,0.1-0.3,0.2-0.4,0.3
			c-0.2,0.1-0.3,0.2-0.5,0.3c-0.2-0.1-0.3-0.3-0.3-0.7c0-0.3,0-0.5,0-0.9c0-0.2,0.1-0.4,0.1-0.6c0-0.2,0.1-0.4,0.1-0.6
			c-0.1-0.2-0.2-0.5-0.2-0.8c0.2-0.4,0.4-0.8,0.6-1.3c0.1-0.3,0-0.8,0.1-1.1c0-0.4,0-0.8,0.2-1.1c0.1-0.1,0.3-0.2,0.4-0.2
			c0.2,0,0.4-0.1,0.5-0.1c0.3-0.2,0.6-0.5,0.5-1c-0.1-0.1-0.2-0.2-0.4-0.3c-0.1-0.1-0.2-0.2-0.4-0.3c0-0.1-0.1-0.1-0.2-0.2
			c-0.1,0-0.1-0.1-0.2-0.2c-0.1-0.1-0.2-0.2-0.3-0.3c-0.1-0.2-0.2-0.4-0.3-0.6c-0.1-0.2-0.2-0.4-0.3-0.6c-0.2-0.6-0.4-1.1-0.4-1.8
			c0-0.2-0.1-0.3-0.1-0.5c0-0.3,0-0.6,0.1-0.9c0-0.3,0.1-0.6-0.2-0.7c-0.2,0-0.2,0.1-0.3,0.1c-0.1,0-0.2,0.1-0.3,0.1
			c-0.1,0-0.1,0.1-0.2,0.1c-0.3,0-0.6,0-0.9-0.1c-0.1-0.2-0.4-0.4-0.2-0.6C100.3,158.7,100.5,158.8,100.8,158.8 M101.7,157
			c0,0,0.1,0.2,0.2,0.3c0.1,0,0.3,0.1,0.3,0.1l0.2-0.4l-0.1-0.4c0,0-0.1-0.1-0.2-0.2c-0.1,0-0.3,0-0.3,0l-0.1,0.1l-0.1,0.2
			L101.7,157z"/>
	</g>
</g>
<g>
	<g>
		<path fill="#FFFFFF" d="M144.3,47.2l-0.9-0.5l-0.2-0.1l-0.5-0.2l-0.3-0.2l-0.2,0l-0.2-0.2v-0.4l0.1-0.3l0.4-0.5l0.4-0.5l0.3-1
			l0-0.6l-0.2-0.9l-0.7-1.1l-0.7-0.5l-1.7-1l-1-0.7l-0.5-0.4l-0.6-1l-0.5-1.5l-0.2-0.2l-0.1,0v0.1l0,0.1l0.1,0.1l0.2,1.5l0.2,0.3
			l0.3,0.7l1,1.1l0.5,0.4l0.5,0.5h0.1l0.8,0.7l0.3,0.5l0,0.9l-0.4,1l-0.7,0.8l-0.3,0.3h-0.1l-0.4,0.6l-0.1,0.5l-0.1,0.7v0.6l0.1,0.4
			l0.1,0.4l0.5,0.5l0.5,0.4l0.9,0.3l0.1,0.1l0.3,0l0.3,0.1l0.7,0.2l0.3,0l0.7,0.3l0.5,0.3l0.2,0.3l0.3,0.3l0.7,0.9l0.4,0.9v0.4
			l-0.1,0.1l-0.1,0l-0.1,0.2l-0.1-0.1l-0.4-0.2l0,0l-0.1-0.1l-0.2-0.1l-0.1-0.2l-0.5-1.1l-0.1-0.3l-0.2-0.1l-0.3-0.3l-0.3-0.3
			l-0.6-0.2h-0.6l-0.8,0.1l-0.2,0.1l-0.7-0.1l-0.3,0.4l0,0.3l0.1,0.1v0.1l0,0.1v0.4l0.2,0.4v0.4l0.1,0.2l0.3,0.3l0,0l-0.1,0.1l0,0.3
			l0.4,0.4l0.6,0.4l0,0l0.4,0.2l0.3,0.1l0.4,0l0.1,0.1l1,0.2l0.1,0.1l0.3,0.1l0.4,0.2l0.2,0.4l0.1,0.5l-0.1,0.9l0.1,0.8l0.1,0.3V58
			l0.2,0.2v0.6l0.1,0.8l0.1,0.3v2.5l0,1.3l0.1,1.1v0.7l0.2,1l0.4,0.8l0,0.3l-0.1,1.2l0.3,0.8h0.1l0-1l0.1-0.1l0,0l0.2,1.2l0.5,1.1
			l0.2,0.3l0.1-0.1V71l0,0l-0.1-0.6l0.1-0.2l0,0v0.2l0.1,0.6l0.4,0.9l0,0h0l0-0.2l-0.1-0.4l0.1-0.8l0.1,0.1l0.1,0.7l0.2,0.7l0.3,0.7
			l0.1,0l0-0.1l-0.1-0.1v-0.4l0.1-0.1l0,0l0.2,0.5l0.4,0.7h0.1l0-0.2l-0.1-0.2l0.1-0.1l0.1,0.1v0l0.7,0.9h0.1v-0.1l0-0.1l-0.1-0.1
			v-0.1l0,0l0.6,0.8l0.1-0.1v-0.1l-0.1-0.2V73l1,1.1v0.1h0.1v0l0,0l0-0.5l0,0v0l0.3,0.3l0.1-0.1h0l0.2-0.5l0.2,0.3l0.1,0l0.2-0.2
			v-0.2l0.1,0l0.2,0.2l0,0v-0.1l0,0c0-0.1,0-0.1,0.1-0.2l0.1,0.3l0.1,0.8l0.2,1.3v0.1l0.1,0.2l0.1,1.3l0.1,0.7l0.3,1.5l-0.1,0.8
			l0.1,0.9l0.2,0.6v0.2l0.2,0.4l0.2,0.8l0.1,0.6l0.1,0.7l-0.1,1.1l-0.1,1.8l-0.3,1.1l-0.4,1l-0.6,0.8l-0.8,1.4l-0.1,0.6l0.3,0.1
			l1.1,0.1l0.3-0.1l0.4,0l0.3-0.1V92l0.1-0.1l0-0.8l0.1-0.4l0.1-0.2h0.1l0.2,0l0.4-0.4l0.1-0.2l0-0.4l0-0.4l0.1-0.5l0.1-1l0.1-0.4
			v-0.4l0.1-0.3v-1.9l-0.1-1l0-0.4l0.1-1l0.1-0.3v-0.2l0.1-0.1l0.1-0.6l0-0.6l0.1-0.4l0.2,0.4l0.4,1.2l0,0.4l0.2,0.6l0,1.4l0.1,1.1
			l0.1,0.9l0,0.9l-0.1,0.3l0,0.4l-0.2,0.6l-0.1,0.8l-0.1,0.4l-0.2,0.2v0.1l-0.5,0.7l-0.2,0.7l0.1,0.2l0.1,0l0.3,0h0.3l0.2,0.1h1
			l0.3-0.1l0.3-0.8V90l0.1-0.5l0.4-0.7l0.2-0.5l-0.1-0.4l-0.3-1.3l0-0.3l-0.1-1.3l-0.1-1.1l-0.1-1l0-1.6l0-0.6l-0.2-0.9l0.1-0.5
			l0.1-0.9l-0.1-0.9l0.1-1.1V75l0.2-1.4l-0.1-0.3l0.1-0.1l1-0.2l0.3-0.1h0.9l0.4,0.1l1.7,0.1l0.4,0.1l1.4-0.1l0.8-0.2l0,0h0.1l0.2,0
			l0.5-0.2l0.4-0.1l0.4-0.2l0.7-0.2l0.6-0.3h0.2l0.5-0.2l0.8,0L171,72l0.9,0.1l0.4,0.3l0.3,0.5l1,1.6l0.3,1l0.5,1.1l0.4,0.7l0.4,0.9
			l0.4,0.7l0.4,0.9l0.1,0.6l-0.1,0.1l0.1,1l-0.1,0.9l-0.2,1l-0.1,0.5l0,0.4l-0.1,0.4l-0.1,0.6l-0.2,1.1l-0.4,1.6l-0.7,1.5l-0.3,0.6
			h-0.1v0.1l-0.5,0.9v0.2l0.3,0.1h0.5l0.4,0l0.3-0.1h0.6l0.2,0l0.1-0.2l0.1-0.5l-0.1-0.1l0-0.9l0.5-0.5l0.2-0.5l0.1-0.4l0.1-0.6
			l0.3-0.9l0.1-0.7l0.1-0.4l0.6-2l0.4-1l0.4-1.3l0.2-0.4v-0.7h0l0.1,0.2l0.3,1l0.4,1l0.3,0.8l0.3,1.5l0.2,1.9l-0.1,1.3l0.1,0.1v0.9
			l-0.1,0.1v0.4l-0.1,0.1l-0.1,0.5l-0.2,0.6l-0.4,0.5l-0.4,0.9l0.3,0.2h0.7l0.4,0.1l0.3-0.1l0.3,0l0.1,0.1l0.5-0.1l0.1-0.2l0.1-0.2
			l0-1l0.1-0.7l0.2-0.3l0.4-0.3l0.1-0.2l0-0.3l-0.2-0.8v-0.1l-0.3-1.6l-0.1-0.6V85l-0.1-0.2l-0.2-1.1l-0.1-2.3l0.1-0.4l0-1.3
			l0.1-1.1l0.2-1.3l-0.1-0.3l-0.9-0.6l-0.5-0.6l-1-1.4l-0.4-0.9v-0.2l0.1,0.3l0.1,0l0.1-0.1l0.2,0.4h0.1l0.1-0.1l0.1,0.1v0.1h0.2
			l0.6,0.6l0,0l0.2-0.1l-0.4-0.8l-0.4-1.3l-0.1-0.7l0.1-0.5v-0.6l0.1-0.6l0.1-0.2h0.1l0.1-0.8l0.1-0.1l0.1-1.1l0.2,0L181,67l0.1-0.2
			l0,0l0.1-0.1h0l-0.2-1.3l0.2-0.1l0,0l-0.2-0.5l0.2-0.1v-0.2L181,64l-0.1-0.3l0.1-0.1l-0.6-0.7l-0.2-0.4l-0.4-0.4l-0.7-0.4l-1-0.6
			l-1.3-0.6l-1.1-0.5l-0.4-0.1l-0.1-0.1H175l-1.5-0.4l-0.7-0.2l-0.7-0.1l-1.2-0.3l-1-0.1h-0.5l-1.2,0.1l-0.9,0.1l-1,0l-0.1,0v0l0,0
			l-0.3-0.1v0h-0.6l-0.3-0.1l-0.1-0.2l-0.8-0.3V58l0.1-0.1l0-0.1l-0.3-0.1l-0.3-0.2l0,0l0.2-0.1v-0.1l-0.1-0.1h-1.1v0l0.3-0.1l0-0.1
			l-0.2-0.1l-1-0.1v0l0,0h0.1l0.2-0.2l0,0l-0.2-0.1h-0.5l-0.1-0.1l0.1-0.1l-0.1-0.1h-0.3l-0.5-0.1l0,0h0l0.1-0.1h-1.4v0l0.1-0.1h0
			v-0.2l-0.2-0.1v0l0,0l0.1-0.1V55H159l-0.7,0.3l-0.2,0.1l-0.8,0.4h-0.1l0.1-0.1l0.1-0.3h-0.1l-1,0.6l0,0l0.3-0.3v-0.1h-0.1
			l-0.4,0.3l0,0l-0.3,0.2l-0.7,0.4l0,0l0.1-0.1v-0.3H155l-0.4,0.3l-0.9,1l-0.1,0V57l0.3-0.4l0-0.2h-0.1l-0.5,0.4l-0.6,0.8l-0.1-0.3
			l-0.1,0.1l-0.1,0.3l0,0v0l-0.1-0.4h-0.1l0,0.5l-0.1,0.1l0,0l-0.3-0.7h-0.1l0,0.3l-0.2,0.4l-0.2-0.1l-0.2-0.4l-0.2-0.2l0,0
			l-0.1,0.1l0,0l-0.3-0.7l-0.2-0.2l-0.1-0.3l0.1-0.6l0.4-0.7l0.2-0.2l0.2,0l0.6-0.4l0.1-0.1l0.3,0l0.8-0.3l0.2-0.2l1-1l0.5-0.9
			l0.1-0.6l0-0.8l-0.1-0.2h-0.3l-0.1-0.1l-0.7,0l-0.8,0.2l-0.1,0.1l-0.4,0.1l0,0l-0.5,0.4l-0.8,0.8l-0.2,0.2l-0.6,0.7l-0.5,0.4h-0.2
			l-0.1-0.1v-0.2l0,0h0l0.4-0.7l0.1-0.3l0.6-0.8l0,0l0.6-0.8l0.7-0.6l0.8-0.5l0.8-0.3l0.3,0l0.1-0.1l0.7-0.1l0.6,0l1.1-0.4l0.5-0.4
			l0.4-0.5l0.2-0.9l-0.1-0.5l-0.4-0.6l-0.7-1.1l-0.4-0.5l-0.1-0.5l-0.2-0.7l0-2.2l0.1-0.6l0.4-0.8l2.6-2.8l0.3-0.4l0-0.1l-0.1,0
			l-0.3,0.1l-0.8,0.5l-0.1,0l-1.8,1.6l-0.7,0.8l-0.4,0.6l-0.2,0.3l0,0.2l-0.5,0.8l-0.2,0.8l-0.2,1l-0.1,0.6l0.1,1.5l0.2,0.5l0.1,0.4
			l0.2,0.4l0.3,0.4v0.2h-0.5l-1,0.2l-0.8,0.3l-1,0.5l-1.2,0.9l-0.3,0.3l-1,1.1l0,0l0,0l-0.1,0.2l0,0v0.1l0,0h0l-0.8,1.7l-0.4-1.1
			l-0.8-1.2l-0.8-0.7L144.3,47.2z"/>
		<path fill="#FFFFFF" d="M152.6,57.6C152.6,57.6,152.6,57.6,152.6,57.6L152.6,57.6z"/>
	</g>
</g>
<g>
	<g>
		<path fill="#FFFFFF" d="M166.6,137.8c-0.1-0.8-1.8-1.2-1.8-2.6c0-0.5,0.3-0.8,0.8-0.8c0.5,0,0.7,0.2,0.9,0.5
			c0.1-0.1,0.1-0.4,0.1-0.6c0-0.8-0.6-1-1.2-1.1c-0.2-0.8,0.8-1.5,0.8-1.5c-0.2-0.2-0.8-0.4-1,0c0-0.5-0.2-0.6-0.3-1.1
			c-0.5,0-0.8,0.2-0.8,0.2c-0.2,0-1-1.5-1.4-0.6c-0.5-0.4-1-0.7-1.7-0.8c0.1,0.4,0.1,0.6,0.2,1c-1.2-0.7-2.4-0.5-2.4-0.5
			s0,0.3,0.2,0.7c-0.4,0-0.7,0-1.1-0.1c0.6,1.5,1.1,2.6,3.5,2.2c-0.9,0.8-1.8,1.8-2.3,3c-0.4,0.9-0.7,2.4-0.7,2.8c0,0.3,0,1,0,1.3
			c0,0.3-0.1,1.1-0.3,1.8c-0.1,0.6-0.4,1-0.7,1.6c-0.4,0.8-1.2,0.9-1.9,1.4c-0.8,0.5-1.4,1.4-2.1,1.8c-0.4,0.2-0.8,0.2-1.4,0.3
			c-0.1-0.4-0.4-0.6-0.5-0.9c-0.7-1.8-1.6-2.9-3.1-3.8c-1.1-0.4-1.5-0.9-2.5-1.4c-0.6-0.3-0.9-0.5-1.3-0.5c-0.4,0-2.9,0-3.4,0.1
			c-0.4,0.1-0.5,0.5-0.7,0.7c-1.1,0.9-2.1,3.3-2.4,4.8c-0.4,1.7-0.3,2.6-1.5,3.4c0.1,0,0.2,0.1,0.3,0.1c0.5,0,2.2-0.4,2.5-0.8
			c0.9-1.5,0.6-3.6,2-5c0,0.7-0.2,1.2-0.2,1.7c0.1-0.1,0.8,0,0.9,0c0.6-0.2,0.7-1.3,1.7-1.3c0.4,0,0.5,0.1,0.7,0.3
			c-0.5,0.1-1.1,0.4-1.3,0.9c0.5,0.2,1,0,1.4,0.3c-0.8,0.7-1.6,1.5-1.6,3c0,0.8,0.2,1.3,0.6,1.7c0.1-0.2,0.4-0.6,0.6-0.6
			c0.3,0,0.4,0.7,0.5,0.9c0.5,0.7,1.4,2.4,2.2,2.4c-0.2,0,0.5,0.1-0.2,1.1c-0.3,0.4-0.4,0.9-1,1h0.5c0.9,0,1.2-0.2,1.6-0.8
			c0.2,0.5,0.2,1.3,0.4,1.9c0,1.7,0,1.1,0,1.8c0.5-0.2,1-0.7,1.2-1.2c0.2-0.5,0.2-1,0.6-1.3c0.3,0.4,0.4,1.2,0.5,1.8
			c0.4-0.1,0.6-0.8,0.8-1.2c0.2,0.3,0.6,1,1,1.2l1.2,0l0.3,0.1c0.3,0.5,0.1,1.4,0.7,1.4c0.3,0,0.4-0.2,0.5-0.3
			c0.1,0.7-0.7,0.6-0.7,1c0,0.2,0,1.3,0,1.8c-0.2-0.2-0.6-0.5-0.9-0.5c-0.1,0,0,0.7,0,0.8c0.1,0.5,0.8,0.1,0.8,1
			c0,0.9-1.2,1.8-1.7,2.1l0.3,0.3c0.2,0,0.5-0.1,0.6-0.1c0.5,0,0.6-0.2,1-0.2c0.2,0,0.5,0.4,0.5,0.4c0.4,0,1,0.1,1.4,0.7
			c0.9-0.2,1.5,0.4,1.8,0c-0.3-0.6-0.7-0.6-1.2-0.9c0.2-0.1,0.3,0,0.5,0c0.4,0,0.8,0.1,1.2,0.1c-0.4-0.9-1.3-1.3-2.9-0.9
			c-0.3,0.1-0.3-2.1-0.3-2.8c0-0.1,0.3-0.5,0.3-0.6c0.2,0.4,0.3,1.3-0.3,1.5l0,0.2c0.9,0,1.2,0.6,1.4,0.6c0.6-0.1,1.4,0.3,1.6,0.5
			c0.5,0.1,0.5,0.1,1,0.1c0.5,0,0.6,0.1,1.1,0.3c0-0.3-0.6-0.7-1.2-1.2c0.6,0,1,0.1,1.3,0.5c-0.1-1.1-0.5-0.8-1.4-1.2
			c-0.2-0.1-0.3-0.4-0.7-0.4c-0.4,0-0.9,0.1-1.1,0.1c-0.6,0-0.6,0-0.6-0.7c0-0.5,0.3-0.7,0.3-1.1c0-0.5-0.2-1-0.3-1.4
			c0.6-0.5,1.1-0.8,1.5-1.4c0.1-0.2,0.1-0.7,0.3-0.7c1.4,0,1.2-2.1,2-2.1c0.8,0,2.1-1.1,2.4-2c0.1-0.3,0-0.6,0.1-0.9
			c0.5-0.8,1.5-1,2-1.7c0.5-0.7,0.7-0.9,0.9-1.9c0,0,0.6-2.6,0.1-4.2c-0.3-0.9-0.8-1.6-1.4-2.2c-0.6-0.6-0.9-1.7-0.9-2.2
			c0.3,0.4,0.7,1.1,1.4,1.1c1.1,0,0.7-0.2,1.1-0.9C166.5,138.9,166.7,138.5,166.6,137.8z"/>
	</g>
</g>
<g>
	<g>
		<path fill-rule="evenodd" clip-rule="evenodd" fill="#FFFFFF" d="M177.3,189.6l0.2-0.1l0.2-0.1l0.2-0.1l0.1-0.1l0.1-0.1l0.1-0.1
			l0.1-0.1l0.1-0.1l0.1-0.1l0.1-0.1l0.1-0.1l0.1-0.1l0.1-0.1l0.1-0.1l0.1-0.1l0.1-0.1l0.1-0.1l0.1-0.1l0.1-0.1l0.1-0.1l0.2-0.2
			l0.2-0.2l0.2-0.2l0.2-0.2l0.2-0.2l0.5-0.4l0.3-0.2l0.3-0.2l0.3-0.2l0.3-0.2l0.4-0.2l0.4-0.2l0.4-0.2l0.2-0.1l0.2-0.1l0.2-0.1
			l0.2-0.1l0.2-0.1l0.2-0.1l0.2-0.1l0.2-0.1l0.2-0.1l0.2,0l0.1,0l0.1,0l0.1,0c0,0,0.2-0.1,0.2,0c0,0,0.2,0.2,0.3,0.4
			c0.1,0.2,0.1,0.9,0.4,0.9c0.4-0.1,0.5-0.4,0.6-0.8c0-0.1,0.2-0.5,0.3-0.5c0-0.1,0.3-0.3,0.3-0.3s0.8-0.3,1.5-0.8
			c0.7-0.4,1.5-1,1.6-1.1c0.3-0.2,0.5-0.4,0.7-0.6c0.2-0.2,0.9-0.8,1.1-1c0.2-0.2,0.3-0.3,0.3-0.3l0.2-0.3l0.2-0.3l0.2-0.3l0.2-0.3
			l0.2-0.3l0.2-0.3l0.2-0.3l0.2-0.3l0.2-0.3l0.2-0.3l0.2-0.3l0.2-0.3l0.1-0.3l0.1-0.3l0.1-0.3l0.1-0.3l0.1-0.3l0.1-0.3l0.1-0.3
			l0.1-0.3l0.1-0.3l0.1-0.3l0.1-0.3l0.2-0.7l0.2-0.7l0.2-0.7l0.2-0.7l0,0l0,0l0,0l0,0l0,0l0,0l0,0l0,0l0,0l0,0l0,0l0,0l0,0l0,0l0,0
			l0,0l0.1,0l0.1,0l0.1,0l0.1,0l0.1,0l0.2,0l0.2,0.1l0.2,0.1l0.2,0.1l0.2,0.1l0.5,0.1l0.5,0.1l0.2,0.1l0.2,0.1l0.2,0.1l0.2,0.1
			l0.2,0.1l0.2,0l0.2,0l0.2,0l0.2,0l0.2,0l0.2,0l0.2,0l0.2,0l0.2,0l0.2-0.1l0.2-0.1l0.2-0.1l0.2-0.1l0.2-0.1l0.2-0.1l0.2-0.2
			l0.2-0.2l0.2-0.2l0.1-0.2l0-0.1v-0.1l0-0.1l0-0.1l0-0.1l0-0.1l0-0.1l0-0.1l0-0.1l0-0.1l0-0.1l0-0.1l0-0.1l0-0.1l-0.1-0.1l-0.1-0.1
			l-0.1-0.1l-0.1-0.1l-0.1-0.1l-0.1-0.1l-0.1-0.2l-0.1-0.2l-0.1-0.2l-0.1-0.2l-0.1-0.1l-0.1-0.1l-0.2-0.2l-0.2-0.2l-0.2-0.2
			l-0.2-0.2l-0.3-0.2l-0.3-0.2l-0.3-0.2l-0.3-0.2l-0.3-0.2l-0.3-0.2l-0.3-0.2l-0.3-0.2l-0.5-0.4l-0.6-0.4l-0.3-0.2l-0.3-0.2
			l-0.3-0.2l-0.3-0.2l-0.3-0.2l-0.3-0.2l-0.3-0.2l-0.3-0.2l-0.2-0.2l-0.2-0.2l-0.2-0.2l-0.2-0.2l-0.2-0.2l-0.2-0.2l-0.2-0.2
			l-0.2-0.2l-0.2-0.3l-0.2-0.3l-0.1-0.3l-0.1-0.3l-0.2-0.3l-0.1-0.3l-0.2-0.3l-0.2-0.3l-0.1-0.3l-0.2-0.3l-0.1-0.3l-0.1-0.3
			l-0.2-0.3l-0.2-0.3l-0.1-0.3l-0.2-0.3l-0.2-0.4l-0.2-0.4l-0.2-0.3l-0.2-0.3l-0.2-0.3l-0.2-0.3l-0.2-0.3l-0.2-0.3l-0.2-0.3
			l-0.2-0.3l-0.2-0.3l-0.2-0.3l-0.2-0.3l-0.2-0.3l-0.2-0.3l-0.2-0.3l-0.2-0.2l-0.2-0.2l-0.2-0.2l-0.2-0.2l-0.3-0.2l-0.3-0.2
			l-0.3-0.2l-0.3-0.2l-0.3-0.2l-0.3-0.2l-0.3-0.2l-0.3-0.2l-0.3-0.2l-0.3-0.3l-0.3-0.2l-0.3-0.3l0-0.2l0-0.2l0-0.2l0-0.2l0-0.2
			l0-0.2l0-0.2l0-0.2l-0.1-0.2l-0.1-0.2l-0.1-0.2l-0.1-0.2l-0.1-0.2l-0.1-0.2l-0.1-0.2l-0.1-0.2l-0.1-0.2l-0.1-0.2l-0.1-0.2
			l-0.1-0.2l-0.1-0.2l-0.1-0.2l-0.2-0.2l-0.2-0.2l-0.2-0.1l-0.2-0.1l-0.2-0.1l-0.2-0.1l-0.2-0.1l-0.2-0.1l-0.2-0.1l-0.2-0.1
			l-0.2-0.1l-0.2,0l-0.2,0l-0.2,0h-0.2l-0.2,0l-0.2,0l-0.2,0.1l-0.1,0.2l-0.1,0.2l-0.1,0.2l-0.1,0.1l-0.1,0.1l-0.1,0.1l-0.1,0.1
			l-0.1,0.1l-0.1,0.1l-0.1,0.1l-0.1,0.1l-0.1,0.1l-0.1,0.1l-0.1,0.1l-0.1,0.1l-0.1,0.1l-0.1,0l-0.1,0l-0.1,0l-0.1,0l-0.1,0l-0.1,0
			l-0.1,0l-0.1,0l-0.1,0l-0.1,0l-0.1,0l-0.2,0l-0.2,0l-0.2,0l-0.2,0l-0.2,0l-0.1,0l-0.1,0l-0.1,0l-0.1,0l-0.1,0l-0.1,0l-0.1,0
			l-0.1,0l-0.1,0.1l-0.1,0.1l-0.1,0.1l-0.1,0.1l-0.1,0.1l-0.1,0.1l-0.1,0.1l-0.2,0.1l-0.1,0.1l-0.1,0.1l-0.1,0.1l-0.1,0.1l-0.1,0.1
			l-0.1,0l-0.1,0l-0.1,0l-0.1,0l-0.1,0l-0.1,0l-0.1,0l-0.4,0l-0.4,0l-0.2,0h-0.2l-0.2,0l-0.2,0l-0.2,0l-0.2,0l-0.2,0l-0.2,0l-0.1,0
			l-0.1,0l-0.1,0l-0.1,0.1l-0.1,0.1l-0.1,0.1l-0.1,0.1l-0.1,0.1l-0.1,0.1l-0.1,0.1l0,0.1l0,0.2l0,0.2l0,0.2l0,0.2l0,0.2l0,0.2
			l0.1,0.3l0.1,0.3l0.1,0.3l0.2,0.2l0.2,0.2l0.1,0.2l0.1,0.2l0.1,0.1l0.1,0.1l0.1,0.1l0.1,0.1l0.1,0.1l0.1,0.1l0.1,0.1l0.1,0.1
			l0.1,0.1l0.1,0.1l0.1,0.1l0.1,0.1l0.1,0l0.1,0l0.1,0l0.1,0l0.1,0l0.1,0l0.1,0l0.1,0l0.1,0l0.1,0l0.1,0l0.1,0l0.2,0l0.2,0l0.1,0
			l0.1,0l0.1,0l0.1,0l0.1,0h0.1l0.1,0l0.1,0l0.3,0l0.4,0l0.1,0.3l0.1,0.3l0.1,0.3l0.1,0.3l0.1,0.2l0.1,0.3l0.1,0.2l0.1,0.2l0.1,0.2
			l0.1,0.2l0.1,0.2l0.1,0.2l0.1,0.2l0.1,0.2l0.1,0.2l0.1,0.2l0.1,0.2l0.1,0.2l0.1,0.2l0.1,0.2l0.1,0.2l0.1,0.2l0.1,0.2l0.1,0.2
			l0.3,0.5l0.3,0.5l0.3,0.4l0.3,0.4l0.1,0l0.1,0l0.1,0.1l0.1,0.1l0.1,0.1l0.1,0.1l0.1,0.1l0.1,0.1l0.1,0.1l0.1,0.1l0,0.1l0,0.1
			l0,0.1l0,0.1l0,0.1l0,0.1l0,0l0,0l0.1,0l0.1,0l0.1,0l0.1,0.1l0.1,0.1l0.1,0.1l0.1,0.1l0.1,0.1l0.1,0.1l0.1,0.1l0.1,0.1l0.1,0.1
			l0.1,0.1l0.1,0.1l0.1,0.2l0.1,0.2l0.1,0.2l0.1,0.2l0.1,0.1l0,0.1l0,0.1l0,0.1l0,0.1l0,0.1l0,0.1l0,0.1l-0.3,0.3l-0.4,0.3l-0.4,0.4
			l-0.5,0.4l-0.3,0.2l-0.3,0.2l-0.3,0.3l-0.3,0.3l-0.3,0.3l-0.3,0.3l-0.3,0.3l-0.3,0.3l-0.3,0.3l-0.2,0.3l-0.2,0.3l-0.2,0.3
			l-0.2,0.3l-0.2,0.3l-0.2,0.3l-0.2,0.3l-0.1,0.3l-0.1,0.3l-0.1,0.3l-0.1,0.3l0,0.3l0,0.3l0,0.3l0.1,0.3l0.2,0.1l0.2,0.1l0.2,0.1
			l0.2,0.1l0.2,0.1l0.2,0.1l0.2,0.1l0.2,0l0.2,0l0.2,0l0.2,0l0.2,0l0.2,0l0.2,0l0.2,0l0.2,0l0.2,0l0.2,0l0.2,0l0.2,0l0.2-0.1
			l0.2-0.1l0.2-0.1l0.2-0.1l0.2-0.1l0.2-0.1l0.2-0.1l0.2-0.1l0.3-0.1l0.3-0.1l0.3-0.1l0.3-0.1l0.3-0.1l0.2-0.1l0.3,0l0.2,0l0.1,0
			l0.1,0l0.1,0l0.1,0l0.1,0l0.1,0h0.1l0.1,0l0.1,0l0.1,0l0.1,0l0.1,0l0.1,0l0.1,0l0.1,0l0.1,0.1l0.1,0.1l0.1,0.1l0.1,0.1l0.1,0.1
			l0.2,0.4l0.2,0.4l0.2,0.4l0.2,0.4l0.1,0.4l0.1,0.4l0.1,0.4l0.1,0.3l0.1,0.3l0.1,0.3l0.1,0.3l0,0.3l0,0.3l0,0.3l0,0.3l0,0.3l0,0.3
			l0,0.3l-0.1,0.3l-0.1,0.3l-0.1,0.3l-0.1,0.3l-0.1,0.3l-0.1,0.3l-0.1,0.3l-0.2,0.3l-0.2,0.3L187,178l-0.2,0.4l-0.2,0.4l-0.2,0.4
			c0,0-0.1,0.2-0.3,0.4c-0.1,0.1-0.2,0.2-0.2,0.2l-0.1,0.1l-0.1,0l-0.1,0l-0.1,0l-0.1,0l-0.1,0l-0.1,0l-0.1,0l-0.1,0l-0.1,0l-0.1,0
			l-0.1,0l-0.1,0l-0.1,0l-0.1,0l-0.1,0l-0.1,0l-0.1,0.1l-0.2,0.1c0,0-0.2,0.1-0.4,0.1c-0.2,0-0.4-0.3-0.5-0.3
			c-0.1-0.1-0.2-0.3-0.2-0.3l-0.2-0.3l-0.2-0.3l-0.2-0.3l-0.2-0.3L182,178l-0.2-0.3l-0.2-0.3l-0.2-0.3l-0.2-0.3l-0.2-0.3l-0.2-0.3
			l-0.2-0.3l-0.2-0.3l-0.2-0.3l-0.2-0.2l-0.3-0.2l-0.3-0.2l-0.3-0.2l-0.3-0.2l-0.3-0.2l-0.3-0.2l-0.3-0.1l-0.3-0.1l-0.3-0.1
			l-0.4-0.1l-0.4-0.1l-0.4,0l-0.4,0h-0.4l-0.4,0l-0.5,0l-0.2,0.1l-0.2,0.1l-0.1,0.1l-0.1,0.1l0,0.1l0,0.2l0,0.2l0,0.2l0.1,0.2
			l0.1,0.2l0.1,0.2l0.1,0.2l0.1,0.2l0.2,0.2l0.2,0.2l0.2,0.2l0.2,0.2l0.2,0.2l0.2,0.2l0.2,0.2l0.2,0.2l0.2,0.2l0.2,0.1l0.2,0.1
			l0.4,0.3l0.3,0.2l0.3,0.2l0.2,0.1l0.1,0.2l0.1,0.2l0.1,0.2l0.1,0.2l0.1,0.2l0.1,0.2l0.1,0.2l0.1,0.2l0.1,0.3l0.1,0.3l0,0.3l0,0.3
			l0,0.3l0,0.3l0,0.3l0,0.3l0,0.3l-0.1,0.3l-0.1,0.3l-0.1,0.3l-0.1,0.3l-0.1,0.3l-0.1,0.3l-0.1,0.3l-0.1,0.3l-0.1,0.3l-0.1,0.3
			l-0.1,0.3l-0.1,0.3l-0.2,0.2l-0.1,0.2l-0.2,0.2l-0.3,0.5l-0.3,0.5l-0.3,0.5c0,0-0.2,0.3-0.2,0.5c-0.1,0.3-0.1,0.3-0.1,0.5
			c0,0-0.1,0.8,0.3,1.1c0.2,0.1,0.2,0.2,0.6,0.3C176.9,189.7,177.3,189.6,177.3,189.6z"/>
	</g>
</g>
<path fill="#FFFFFF" d="M226,122.1c0.2,0.2,0.5,0,0.4-0.1c-0.7-0.7-1.6-1.2-2.6-1.6c-1-0.4-1.9-0.4-2.7-0.3
	c-1.3,0.2-2.2,1.3-2.8,2.4c-0.2,0-0.4,0-0.6,0.1c-0.7-0.4-0.6-0.8-0.4-1.6c0,0-0.1,0-0.1,0c0.1-0.1,0.5-0.5,0.5-1.6
	c0.7-1,1.6-2,1.1-3.4c-0.3-0.6-0.4-1.3-0.8-1.9c-0.3-0.6-1.3-0.7-1.4-0.6c-1.3,1.5-3.8,2.8-4.4,4.9c0,0,0,0,0,0
	c-0.9,0.9-0.4,2.5-1,3.5c-0.9,1.4-2.2,2.6-2.7,4.3c-0.2,0.7-1.2,0.8-1.6,0.6c-4.8-1.6-8.3,0.7-10.7,3c-0.6,0.6-1.2,1.3-2,1.8
	c-1,0.6-1.2,1.8-1.7,2.7c-0.4,0.7,0.3,1.6,1.2,1.8c0.2,0.1,0.7,0.1,0.8-0.1c1.5-2.4,5.2-2.6,8-3.5c0.6-0.2,1.2-0.6,1.6-1
	c0.4,0.3,0.2,0.7,0.2,0.9c0,0.8-0.1,1.8,0.1,2.7c-0.6,2.5-0.7,5.3-0.5,8.3c0.1,1.3,0.2,2.5,0.5,3.7c-0.6,2.1-0.1,4.7-0.5,6.9
	c-0.3,1.5,0.7,5,1.6,4.9s2-1.9,2.4-2.6c0.3-0.7,1.4-2.9,1.5-3.3c0.4,0.1,0.8,0.1,1.2,0.1c0.6-0.1,1.1-0.3,1.5-0.6
	c0.7,1,1.9,2.2,2.7,1.9c1.8-0.8,1.8-3.2,1.5-5.4c0-0.3-0.2-0.6-0.3-1c0.5-1,1.1-2.2,1.8-3.6c2.5-5.4,5.8-10.9,3.6-17.9
	c-0.1-0.3-0.2-0.7-0.3-1.1c0.2,0.1,0.4,0.2,0.6,0.3c1.7,0.6,2.9-1.4,4.4,0.2C227.7,125.5,227.9,123.2,226,122.1z"/>
<path fill="#FFFFFF" d="M192.5,114.2c0.1-0.2-0.2-0.2-0.3-0.2c0-0.2,0.6-0.6,0-0.5c0-0.1,0-0.1,0-0.2c-1.8-0.3-3.6-0.8-5.3-1.1
	c0.1-0.1,0.3,0,0.5,0c0.1-0.4-2.2-0.6-2.3-1.1c-0.5-0.3-1.3-0.5-1.6-1.1c-0.4-0.3-0.7-0.6-0.9-1c0,0,0.2-0.2,0-0.2
	c-1-0.6-1.4-1.7-2.2-2.5c-0.1-0.1,0.1-0.2,0.1-0.4c-0.5-0.8-0.9-1.5-1.5-2.2c0-0.1,0.1-0.1,0.1-0.1c0.4,0-0.6-0.8-0.6-0.9
	c0,0,0.1,0,0.1,0c0.3-0.2-0.4-0.2-0.2-0.6c-0.3-0.3-0.7-0.4-1-0.7c0.1-0.1,0.3,0.1,0.3-0.2c-0.4-0.2-0.9-0.3-1.3-0.5
	c0.5-0.6-0.2-0.3-0.7-0.3c0.1-0.1,0.2-0.2,0.2-0.3c-0.5,0.3-1.2,0.3-1.8,0.1c0,0-0.5,0-0.6-0.1c-1.2-0.4-2.5-0.1-3.7,0.2
	c-0.5,0-1,0.3-1.5,0.4c0.2-0.2-0.2-0.1-0.3,0c-0.9,0.4-2.8,1.4-3.8,1.2c0,0,0-0.1,0-0.1c-0.4,0.1-0.8,0.2-1.2,0
	c-0.2-0.2-0.7,0-0.7-0.1c0.3-0.3-0.7-0.1-0.9-0.2c0,0,0.1-0.1,0.1-0.1c-0.4-0.3-1.8,0-2.4-0.4c0,0,0.1,0,0.1,0
	c0.6-0.5-2-0.5-2.1-0.5c0.1,0,0.1-0.1,0.2-0.2c-0.4-0.1-0.9-0.1-1.3,0c0.6-0.8,0.7-1.9,0.6-2.8c-0.1-0.4,0.1-2-0.8-1.8
	c-1.1,0.9-2.4,1.2-3.3,2.3c-0.1,0.2-1.4,0.2-1.6,0l-0.4-0.8c-0.4-0.7-1.1-1.2-1.4-1.9c-0.3-0.4-0.6-1-1.2-1c-0.7,0.7-0.7,2.1-0.6,3
	c0.1,0.7-0.2,1.2-0.1,1.9c0.1,0.3,0.4,0.7,0,0.9c-0.4,0.6-0.2,1.1-0.2,1.8c-0.2,0.5,0.1,1.5,0.1,1.5c-0.7,0.6-1.1,1-1.7,1.7
	c-0.2,0.2,0.3,1.5,0.9,1.1c0.5,0.2,2.6,0.1,2.9-0.2c0.4-0.1,1.4,0.8,1.5,1.3c-0.1,0.6,0.6,0.8,0.6,1.3c0.2,0.1,0.5,0.1,0.7,0.3
	c-0.1,0.1-0.1-0.1-0.2,0c0,0.1,0.5,0.5,0.7,0.7c0.3,1.4,1.7,1.9,2.9,2.4c0.3,0.1,0.3,0.6,0.3,0.8c0.8,2.3-0.2,5.1-0.3,7.5
	c-0.3,0.8-0.3,1.9-1.2,2.3c-0.4,0.2-0.8-0.4-1.3-0.1c-0.4,0.2-0.5,0.6-0.4,1c0.4,0.5,1.1,0.6,1.8,0.7c0.1,0,0.1-0.1,0.1-0.1
	c0.7,0.4,0.8-0.2,1.4-0.3c0.2,0.4,0.8-1.1,0.9-1.2c0.6-0.7,0.6-1.6,0.7-2.4c0.4-1.3,0.5-2.7,1-4.1c0.4-1,0-2.1,0.5-3.1
	c3.3,0.9,1.8,5.3,2.2,7.6c0.1,0.5,0.3,1.1-0.1,1.6c0,0,0,0,0-0.1c-0.2,0-0.8,0.3-0.9,0.6c-0.1,0.3,0.1,1.2,0.5,0.8
	c0.2,0.4,1.7,0.3,2,0.1c0-0.4,0.3-0.6,0.5-0.9c0.1-0.7,0.1-1.4,0.2-2.1c-0.6-1.9,0.1-5.6,0.7-7.4c0.3-0.2,0.5-0.4,0.8-0.4
	c-0.1,0.1-0.1,0.2,0,0.2c0.3,0,0.5-0.3,0.8-0.3c0,0.4,0.4-0.3,0.4,0.2c0.2,0,0.3-0.1,0.4-0.2l0.7-0.2c0.1,0,0.2-0.1,0.4-0.1
	c0,0.1-0.1,0.1-0.1,0.1c0.2-0.2,0.1,0.6,0.1,0.7c-0.1,0.4,0.3,0.8,0.2,1.3c0.2,0,0.3,0.4,0.3,0.5c0.1,0.8,0.8,1,1.3,1.5
	c1.2,1.3-0.2,3.5-0.3,4.9l-0.1,0.1c-0.4,0-1-0.2-1.2,0.4c0.1,0.4-0.3,0.6-0.2,1c0,0.2,1.2,0.3,1.4,0.3c0.7-0.3,1.1-0.3,1.7-0.9
	c0.3-1,0.4-2.1,0.7-3.1c0.1-0.6,0.7-1.9,0.4-2.4c-0.8-0.7-0.6-3,0-3.8c0.2,0.3,0.5,0.5,0.7,0.8c0,0.2,0.8,1.5,1.1,1.4
	c1.3,2.2,0.5,4.4-1,6.1c0.3,0.1-0.7,0.6-0.8,0.7c0,0,0,0,0,0c-1.7,1.4,0.3,2.7,1.2,1.3c0,0,0-0.5,0.3-0.2c0.5,0.1,0.8-1,1.1-1.2
	c0.5-1,0.7-2.1,1.2-3.1c0.3-0.9,0.9-1.7,1.2-2.6c-0.1-0.7-0.9-1.1-0.9-1.9c0-0.9,0-1.8,0.5-2.6c0.1-0.3,0.3-0.2,0.2-0.6
	c0.5,0.1,0.1-0.4,0.5-0.4c0.1,0,0.3,0,0.3-0.1c0,0-0.1,0-0.1-0.1c0.2-0.1,0.4-0.2,0.6-0.4c-0.1,0-0.2,0-0.3-0.1
	c0.1-0.1,0.3-0.2,0.4-0.3c-0.4-0.3-0.3-0.3,0.3-0.5c0,0.3,0,0.7,0,1c0.1,0,0.2-0.2,0.3-0.3c0.1,0.6,0.2,2.1,0.7,2.5l0-0.3
	c0.2,0.6,0.3,1.3,0.6,1.8c0.1-0.2,0.1-0.4,0.1-0.5c0.1,0.3,0.8,1.8,1.2,1.3c0.2,0.3,0.5,0.7,0.8,0.9c0.1-0.1,0-0.2,0-0.2
	c0.3,0.3,0.6,0.6,1,0.9c0-0.1-0.1-0.5,0-0.4c0.3,0.5,0.8,0.9,1.2,1.3c0.2,0.2,0.2-0.4,0.2-0.4c0.4,0,0.6,0.4,1,0.5
	c0-0.2-0.1-0.3-0.1-0.5c0.5,0.2,1.1,0.4,1.6,0.6c0-0.1,0-0.1-0.1-0.2c0.3,0,0.6,0.1,0.9,0.1c0.2-0.1-0.2-0.2-0.1-0.4
	c0.7,0,2.5,0.3,3-0.3c0-0.1-0.2-0.1-0.2-0.1c0.3-0.2,0.7-0.3,1-0.5c0.1-0.5,0.6-0.1,1-0.7c0.1-0.2-0.1-0.1-0.2-0.2
	C192,114.5,192.2,114.4,192.5,114.2z"/>
<g>
	<path fill="#FFFFFF" d="M198.3,179h-1.4v-0.8h3.7v0.8h-1.4v3.9h-0.8V179z M201.6,178.2h1.3l1.2,3.1l1.2-3.1h1.3v4.7h-0.9v-3.6h0
		l-1.3,3.6h-0.7l-1.3-3.6h0v3.6h-0.8V178.2z"/>
</g>
<path fill="#FFFFFF" d="M219.7,60.2L219.7,60.2c0,0-0.9-3.8-1.2-4.4c-0.3-0.7-2.1-4.3-2.4-5.1c-0.4-0.8-0.2-1.3-1.8-3.2
	c-0.1-0.1-0.2-0.3-0.4-0.4c-1.4-2.5-4.8-6.5-7.3-7.3c0,0,0,0,0,0s-0.4-0.1-0.8-0.2c-0.4-0.1-0.9-0.2-1.2-0.2
	c-3.2-2.5-7.9-4.4-10.5-4.6c-2.7-0.2-4.3,1.6-5.1,2.9c-0.1,0.2-0.3,0.4-0.5,0.7c-0.2,0.3-0.3,0.5-0.4,0.7c-0.1,0.2-0.2,0.3-0.2,0.4
	c-0.1,0.2-0.1,0.4-0.1,0.5c0,0,0,0.1,0,0.2c0,1.9,1.3,3.2,1.7,3.6c0.4,0.4,0.9,0.2,0.6-0.2c-1.1-2,0.5-2.9,0.9-3.1
	c0.1,0,0.1-0.1,0.1-0.1l0.2-0.1l0.2,0l0.1,0.3c-0.2,0.2-1.1,1-1.4,1.2C190,42.1,190,43,191,43c1,0,1.8-0.2,2.3-0.4
	c0.2-0.1,0.4-0.1,0.6-0.2c0,0,0,0,0,0.1c0.5,0.1,0.9,0.5,1.1,0.9c0,0,0.6,0.2,0.7,0.6c0,0.1,0,0.2,0,0.3c-0.1,1.8,1.5,4.6,3.6,5.5
	c0,0,0,0,0,0c0.4,0.2,0.7,0.4,0.9,0.7c0.2,0.3,0.1,0.4,0.2,0.9c0,0,0,0,0,0c0.1,0.9,0.4,3,1,4.2c-0.1,0-0.2,0-0.4-0.1
	c-0.3-0.1-0.7-0.1-0.7-0.1l0,0c-1.1-0.2-2.2-0.1-2.7,0.6c-0.6,0.8,0,1.9,0.6,2.1c0.6,0.2,0.8-0.1,0.6-0.3c-0.9-1,0-1.4,0.8-1.4
	c-0.1,0.1-0.1,0.2-0.2,0.4c-0.3,0.3-0.4,1.4,0.5,1.9c0.3,0.1,0.6-0.3,0.2-0.4c-0.3-0.2-0.1-1.1,0.3-1.4c0.2-0.1,0.4-0.3,0.4-0.3
	c0.1,0,0.1,0,0.2,0c0.2,0,0.2,0,0.5,0c0.2,0,0.2-0.1,0.3-0.1c0,0,0.1,0.1,0.1,0.1c0.4,0.3,1.4,0.6,1.3-0.8c0.6-0.1,1.1-1.1,1-1.9
	c0.2,0.1,0.4,0.2,0.7,0.4c0,0.4,0,1.2,0.2,1.7c-0.5,0-1,0.5-1.3,0.7c-0.2,0.2-0.1,0.6,0.3,0.5c0.4-0.1,1.6-0.2,1.6,1.7
	c-0.1,0.4,0.5,0.5,0.6,0.1c0.1-0.4,0.3-0.7,0.1-1.3c0.2,0.2,0.6,0,0.4-0.5c0.3-0.2,0.8-0.6,0.8-1.6c0,0,0.3-0.6,0.3-0.9
	c0.2,0.1,0.5,0.2,0.7,0.3c-0.3,3.5-0.1,10.7,0.5,13.8c0.2,0.8,0.7,0.6,0.6-0.3c-0.1-0.6,0.3-4,0.4-5.3c0-0.2,0.1-0.4,0.1-0.7
	c-0.1,6.4,0.7,14.8,4.8,18.8c0.6,0.5,0.9,0.1,0.5-0.5c-1.1-1.7-2.1-7.9-1.5-12.6c0.2,5.7,1.2,11.8,4.2,14c0.4,0.2,0.5-0.2,0.2-0.7
	c-4.3-7.4-3.4-19.4-3.1-23.3c2.1,1.3,3.8,2.6,4.6,3.7C219.9,61.3,219.8,60.7,219.7,60.2z"/>
<path fill-rule="evenodd" clip-rule="evenodd" fill="#FFFFFF" d="M116.3,81c0.8,0.1,1.6,0.5,2.5,0.6c3.9,0.1,9.1-1.9,12.8-0.2
	c1.7,0.8,4,3.7,5.5,5.5c1.2,1.4,4.5,4.5,4.5,6.4c0.1,2.8-4,4.9-4.7,7c1,4,0.1,11.4-1.3,14.5c-0.3,0.7-1,1.2-1.3,1.9
	c-0.6,1.5-1,3.2-1.7,5.1c-0.5,1.4-1.9,4.2-1.7,5.3c0.2,1,1.5,1,2.3,1.9c1,1.2,1.3,2.7,0.8,4.5c0.8,1.1,2.1,3.6,1.7,3.8
	c-0.4,0.1-2.8-2.4-3.8-4c-0.9-1.5-1.4-3.5-1.8-5.4c-1.1,3.6-0.5,8-1.7,11.1c0.9,0.6,1.4,2.3,0.9,3.8c-1.9,0.7-5.7,0.8-6.4-0.6
	c-0.4-0.8,0.7-2.5,1.3-4.6c0.4-1.3,1-3.8,0.7-4.1c-1.1-1.1-1.5-2.9-2.1-4.5c-0.4,2.3-1.5,6.1-1.3,9.1c0.3,4.2,1.6,7.7,1.4,8.2
	c-0.4,0.9-3.6,1.4-5.8,1.1c-2.1-0.2-3.9-1-4.1-1.3c-0.4-0.5,0.5-1.2,0.2-2.3c-5,0.5-9-3.3-7-7.5c-0.2-0.6-0.3-1-0.6-1.7
	c1.2-9.3-0.7-17.6,0.8-24.3c-0.9-1.4-3.5-1.3-4.7-1.5c-1.2-0.2-3.7-1.7-4.9-3c-0.3-0.3-0.3-1-0.8-1.5c-0.2-0.2-0.8-0.4-1.1-0.8
	c-1.1-1-2.4-1.9-3.4-2.8c-1.5-1.4-4.3-4.9-3.8-7.4c0.2-1,2.8-3.4,3.6-4.3c3.9-4.3,8.2-7.9,15.1-7.4c0.6,0.1,0.9-0.2,1.7-0.2
	C110.9,81.4,112.5,80.6,116.3,81 M114.2,125.4c-0.5-0.1-0.6,0.2-1,0.2c-0.2,4.5-1.8,9.3,1.3,12.1
	C115.9,133.8,116.9,128.7,114.2,125.4 M132.7,130.3c-0.5,0.8,0.5,1.8,0.8,2.5C134,131.9,132.9,131.1,132.7,130.3"/>
<path fill="#FFFFFF" d="M64.5,50.6c0.3-0.3,0.7-0.7,1.1-0.9c0.3,0,0.5,0.3,0.6,0.6c-0.2,0.6,0.2,0.8,0.7,0.9
	c2.3,0.4,3.7,4.4,4.2,4.6c0.2,0.1,0.5,0.9,0.1,1.3c-0.7,0.7-1,1.1-1,1.3c-0.1,0.2-0.4,0.6-0.6,0.8c0.3-0.2-0.7,0.7-0.8,0.8
	c-0.1,0.1-0.4,0.3-0.5,0.4c-0.1,0.1-0.2,0.1-0.5,0.2c-0.5,0.1-0.7-0.1-1.1-0.3c-0.4-0.2-0.2-0.5-0.3-0.7c-0.1-0.6-0.8-0.5-1-0.9
	c-1.1,0.1-1,1.5-1.4,2.2c-0.5,2.3-0.4,4.7-1.1,6.8c0,0-0.1,0.1-0.1,0.3c0,0.2-0.5,1.4-0.7,1.5c-0.2,0.1-0.3,0.5-0.4,0.8
	c-0.4,2.1-1.3,4.2-1,6.4c0.3,0.6,0.3,1.3,0.7,1.9c0.7,0.4,1.6,0.5,1.8,1.4c0.1,0.5-0.2,1.1-0.4,1.4c-0.2,0.3-2.6,0.3-3,0.2
	c-0.4-0.1-0.7-0.7-1.1-0.4c-0.5-0.1-0.8-0.6-1-1c0-1.2-0.1-2.6-1-3.4c-0.2-1.2-0.3-2.4-0.8-3.5c-0.3-0.2-1.3,0.4-1.4,0.6
	c0.3,1.6-1.1,2.9-0.3,4.4c0.5,0.2,1.1,0.1,1.5,0.6c0.3,0.4,0.2,0.9,0.2,1.4c-0.2,0.7-0.8,0.5-1.4,0.6c-0.3,0-0.8,0.2-1.1,0.2
	c-0.3,0-1.7-0.4-2.5-0.6c-1.6-1.3-0.1-3.8-1-5.5c-0.3-1,0-2.2,0-3.4c-0.1-0.5-0.5-0.4-0.8-0.3c-0.8,0.1-0.9,1-1.3,1.5
	c-1.8,2.3-4.5,4.4-3.6,7.9c0.2,0.7,0.2,1.9,1.2,2.1c0.5-0.1,0.9,0,1.3,0.2c0.4,0.4,0.7,0.7,0.7,1.3c-0.2,0.7-0.9,1.3-1.3,1.5
	c-0.5,0.2-3,0.2-3.8-0.9c-0.2-0.2-0.2-0.6-0.5-0.6c-0.7-1.3-1.3-2.7-2.3-3.7c-0.2-0.3-0.2-0.9,0-1.3l0.3-0.5
	c0.5-1.7,1.4-4.1,0.1-5.7c-0.8,0.6-0.9,1.7-1.5,2.5c-1.5,1.9-3.6,2.8-5,4.9l-1.2,2.3c-0.2,0.8,0.8,0.3,1.1,0.5
	c0.6,0.4,0.9,1,0.6,1.7c-0.3,0.2-0.5,0.8-1,0.5c-1.1,0.7-2.5,0.2-3.6-0.1c-0.7-0.2-0.6-1.1-0.6-1.7l0.1-0.1l-0.1-0.1
	c0.2-0.3,0.1-0.8,0.3-1.1c-1.3-0.1-2.3-0.5-3-1.6c-0.5-1.1-0.6-3,0.3-4c0.7-0.6,1.2-1.5,2.2-1c0.9,0.6,0.2,2.1,0.3,2.9
	c0.2,0.2,0.4,0.4,0.7,0.2c1.4-0.9,0.7-2.9,1.2-4.3c0.1-1.8,0.3-3.1,0.5-4.9c0.1-1.7,0.8-3,1.7-4.3c3.3-4.6,8.7-5.6,13.4-8
	c0.8-0.4,2.5-0.4,2.8-0.2c0.2,0.1,0.6,0,0.9,0.1c1,0.2,2.2,0.2,3.1-0.2c1.4-1.7,3.8-1.8,5-3.6c1.3-1.1,2.8-2.1,4.4-2.5
	c0.3-0.5,0.8-0.9,1.4-1C64.3,49.6,64.3,50.2,64.5,50.6L64.5,50.6z"/>
<path fill="#FFFFFF" d="M106.4,72.7c-0.7-0.3-0.3-1.3-0.5-2.1c-0.4-0.2-0.4-1.1-0.3-1.7h0.2C106.4,69.8,107.1,71.6,106.4,72.7
	 M78,47.7c0.2-0.9,0.4-1.6,0.8-2.1c-0.2,0.9-0.3,2.1-0.1,3.4c0.1,0.6,0.3,1.1,0.2,1.7c0,0.5-0.1,1-0.2,1.5
	C77.9,50.7,77.8,48.9,78,47.7 M131.4,52.4c-0.2-0.2-0.3-0.5-0.5-0.8c-0.3-0.3-0.8-0.5-1-0.8c-0.3-0.4-0.5-1.1-0.8-1.6
	c-0.4-0.9-1.1-2,0.2-2.3c0.9-0.2,1.2-0.7,0.6-0.8c-0.9-0.3-1.5-0.6-2-0.9c1-0.3,2.2-0.8,3.1-1.5c1.6-1.3,2-3.5,1.9-3.5
	c-0.4,0-1,1-3,2.1c-2,1.1-3.8,0.3-3.8,0.3s0.2-0.2,0.9-1c0.4-0.4,0.5-1.5,0.3-1.3c-1.9,1.7-3.4,1.7-3.4,1.7c-0.3,0-0.6,0.1-0.7,0.3
	c-0.2,0-0.4,0.1-0.5,0.2c-0.9-0.5-2.1-0.4-2.8,0.2c-0.3-0.1-1-0.5-2.7-0.5c-0.4-0.3-0.5-0.7-1.1-0.9c-0.6,0.6-0.4,0.2-1.2,0.2
	c-0.6,0,0,0-1.2,0c-0.5,0-0.1,0.3-0.8,0.1c-1-0.2-0.5,0.6-1.1,0c-0.5-0.4-1.4,0-2-0.4c-0.9-0.7-1.6-1.2-3.2-0.7
	c-0.6,0.2-2.9,0.2-3.4,0.4c-0.4,0.1-4.1,0.7-3.5,0.5c-2.8,0.6-5,0.7-8.3,0.7c-1.5,0-2.8-0.5-4.2-0.7c-0.9-0.1-1.7-0.5-2.4-0.5
	c-1.2-0.2-1.9,0.6-2.5,1.2c-0.3,0.1-4.7,0.9-5.4,4.5c-0.3,1.7,0.4,5.1,1.2,8.2c0,0.1,0,0.2,0,0.3c0,1.3,0.5,2.3,0.5,3.7
	c0.2,0.1,0.5,0.2,0.8,0.2c0,0.1,0.1,0.2,0.1,0.3c-0.1,0.3-0.4,0.5-0.5,0.9c-0.1,0.5,0.2,0.7,0.2,0.9c0,0.2-0.1,0.5,0,0.8
	c0.2,0.8,1.1,1.7,1.3,3.1c0,0.3,0,0.6,0,0.9c0.1,1,0.4,1.7,0.3,2.9c-0.1,1.3,0,2.6,0.3,3.7c0.1,0.5,0,1,0.3,1.3
	c0.6,0.6,1.4,0.4,2.1,0.5c0.1-0.4,0.1-0.5,0.2-1c0.2,0.1,0.2,0.6,0.5,0.7c2.4,0.2,0.7-1.9,0-2.8c0.3-1.1-1-1.7-1.3-2.7
	c-0.3-1-0.3-2.3-0.4-3.5c-0.1-1.1-0.3-2.2,0-3.5c0.3-0.1,0.7-0.2,1.1-0.2c0.4,0.4,0.5,0.9,0.8,1.5c0.2,0.5,0.5,1,0.6,1.5
	c0.1,0.3-0.1,0.5,0,0.8c0,0.2,0.2,0.4,0.3,0.7c0.2,1-0.3,2.3,0.3,3.4c0.2,0.2,0.6,0.1,0.8,0.2c0.2,0.4-0.2,0.7-0.3,1
	c0.1,1.2,1.7,1.1,3.1,1.1c0.2-0.3-0.1-0.6-0.2-0.9c0.5,0.2,0.8,0.8,1.4,0.4c-0.4-1.1-1.2-1.8-2-2.5c-0.7-2.1-2-4.8-1.6-7.5
	c0,0,3.5-0.5,4.9,0c0.9,0.3,3.3,0.6,3.7,0.7c2.5,0.5,4.6,1.4,7.2,1.6c0.5,0.6,0,1.5,0.1,2.2c0.1,1.5,1.2,3.2,1.1,4.9
	c-0.1,1-0.4,2.1-0.5,2.8c0,0.3,0.5,0.8,0.5,1.2c0.1,0.4-0.1,0.7-0.1,1.1c0.3,1.2,1.7,1.4,3.1,1.4c0.3-0.2,0.2-0.7,0.3-1.1
	c0.3,0,1,0.6,1.5,0.2c0-0.7-0.4-1.1-0.6-1.6c0.7,0.3,1.6,1,2.5,0.5c0.2-0.2,0.1-0.4,0-0.8c0.2-0.1,0.9,0.4,1.1,0
	c-0.2-0.9-1.3-1.2-2-1.9c-0.5-0.5-0.8-1.2-0.9-2.1c-0.2-0.2-0.3-0.5-0.6-0.6c-0.5-1.3-0.5-2.7-0.4-4c0.1-0.1,0.4-0.2,0.7-0.3
	c0.6-0.4,1.4-0.5,1.9-1c0.2-0.2,0.5-0.4,0.7-0.7c0.2-0.2,0.5-0.3,0.7-0.5c0.2-0.2,0.2-0.5,0.3-0.7c0.4-0.7,2.3-2.1,1.5-1.9
	c0.9-0.2,1.3-0.1,1.9-0.7c0.8-0.8,2.1-0.4,2.9-1c0.3-0.2,0.3,0.1,0.6-0.2c0.6-0.7,1.5-1,1.7-1.7c0.9,0.1,1.4,0.3,2.3,0.3
	c0.9,0,1.6-0.7,2.2-0.7c0.6,0,1,0.5,1.5,0.8c1.5-0.5,2,1.2,3.4,0.5c0.3-0.1,0.4-0.6,0.7-0.8c0.3-0.2,0.7-0.2,1-0.5
	c-0.1-1.5,1.8-2.4,0.5-3.7C132,52.6,131.7,52.6,131.4,52.4"/>
</svg>
