<?xml version="1.0" encoding="utf-8"?>
<!-- Generator: Adobe Illustrator 19.1.0, SVG Export Plug-In . SVG Version: 6.00 Build 0)  -->
<svg version="1.1" id="Layer_1" xmlns="http://www.w3.org/2000/svg" xmlns:xlink="http://www.w3.org/1999/xlink" x="0px" y="0px"
	 width="48.7px" height="42.8px" viewBox="0 0 48.7 42.8" enable-background="new 0 0 48.7 42.8" xml:space="preserve">
<g>
		<path  style="fill:#527296;" d="M41.8,31.9c0-0.1,0-0.3,0-0.5c-0.1-0.2-0.1-0.6,0-0.9c0-0.6,0-1.1,0-1.8
			c-0.1-0.9-0.3-1.7-0.5-2.4c0-0.3,0-0.7-0.1-1c0-0.3-0.1-0.6-0.1-0.9c-0.1-0.3,0-0.6,0-0.9c0-0.4-0.1-0.7-0.1-1.1
			c0-0.7-0.1-1.3,0-1.9c0-0.6-0.1-1.1-0.1-1.7c0-0.4,0-0.7,0-1.1c0-0.4,0.1-1,0-1.5c0-0.2-0.1-0.5-0.1-0.7c0,0,0,0,0,0
			c0,0,0-0.1,0-0.1c0,0,0-0.1,0-0.2c0-0.1-0.1-0.3-0.1-0.4c-0.1-0.1-0.1-0.2-0.2-0.3c-0.1-0.1-0.1-0.2-0.3-0.2
			c-0.2-0.2-0.5-0.2-0.8-0.2c-0.1,0-0.3,0-0.4,0c0,0-0.1,0-0.1,0c-0.1,0-0.2,0-0.3,0c-0.4-0.1-0.9-0.1-1.2-0.1
			c-0.3-0.1-0.7-0.1-1-0.1c-0.3-0.1-0.7-0.2-1.1-0.1c-0.4-0.1-1-0.1-1.4,0c-0.8,0.1-1.7,0.2-2.3,0.5c-0.2,0-0.5,0-0.7,0.1
			c-0.2,0-0.4,0.1-0.6,0.1c-0.5,0-0.9,0-1.4,0.1c-0.1,0-0.2,0-0.4-0.1c-0.3,0-0.5,0-0.7,0c-0.3,0-0.5,0-0.8,0
			c-0.2,0-0.3-0.1-0.4-0.1c-0.1,0-0.2,0-0.3,0c-0.1,0-0.2,0-0.3,0c-0.2,0-0.4,0-0.5,0c-0.3,0-0.5,0-0.8,0c-0.1,0.1-0.4,0-0.5,0.1
			c-0.2,0-0.5,0-0.7,0c-0.2,0-0.5,0.1-0.7,0.1c-0.2,0-0.4,0-0.5,0c-0.3,0-0.6,0-0.9,0c-0.1,0-0.2,0-0.3,0c-0.1,0-0.3,0-0.4,0.1
			c-0.1,0-0.1,0-0.1,0c-0.4-0.1-0.8-0.1-1.2-0.1c-0.1,0-0.2,0-0.3,0c-0.1,0-0.2,0-0.2,0c-0.1,0-0.2,0-0.3,0c-0.1,0-0.1,0-0.2,0
			c-0.2,0-0.4-0.1-0.6,0c-0.1-0.1-0.4,0-0.5-0.1c-0.2,0-0.3-0.1-0.5-0.1c-0.1,0-0.3,0-0.4,0c-0.2,0-0.4,0-0.6,0
			c-0.1,0-0.2,0.1-0.3,0.1c-0.2-0.1-0.5,0-0.8,0c-0.4,0.1-0.8,0.2-1.3,0.2c-0.2,0-0.5,0-0.8,0c-0.3-0.1-0.6-0.2-0.9-0.2
			c-0.3-0.1-0.6-0.1-1-0.2c-0.1-0.1-0.3-0.1-0.4-0.2c-0.2,0-0.3-0.2-0.4-0.2c-0.1-0.1-0.2,0-0.3-0.1c-0.1,0-0.2-0.1-0.3-0.1
			c-0.3,0-0.5-0.2-0.8-0.2c-0.2-0.1-0.3-0.2-0.5-0.2c-0.3-0.2-0.6-0.3-0.9-0.4C7,12.6,7,12.5,6.9,12.3c-0.1-0.1-0.1-0.3-0.2-0.4
			c-0.1-0.1-0.2-0.2-0.3-0.3c-0.2-0.1-0.4-0.2-0.5-0.3c-0.1,0-0.2-0.1-0.2-0.1c0,0-0.1,0-0.1,0c-0.1,0-0.1-0.1-0.2-0.1
			c-0.2,0-0.4-0.1-0.6-0.2c-0.2,0-0.4-0.2-0.7-0.2c-0.1-0.1-0.6-0.2-0.7-0.2c-0.2,0.1,0.2,0.3,0.3,0.4c0.1,0.1,0.3,0.2,0.4,0.4
			c0.2,0.1,0.3,0.3,0.4,0.4c0.1,0.2,0.2,0.3,0.2,0.6c0,0.2-0.1,0.3-0.3,0.4c-0.1,0.1-0.3,0.2-0.4,0.3c-0.2,0.2-0.4,0.5-0.7,0.7
			c-0.1,0.2-0.2,0.3-0.3,0.5c-0.2,0.2-0.3,0.3-0.3,0.4c-0.2,0.2-0.2,0.3-0.3,0.4c-0.1,0.1-0.1,0.2-0.2,0.3c-0.1,0.1-0.2,0.2-0.2,0.3
			c0,0-0.1,0.1-0.1,0.1c-0.1,0.1,0,0-0.1,0.1c-0.1,0.1-0.2,0.2-0.3,0.4c-0.1,0.1-0.3,0.2-0.4,0.3c-0.2,0.3-0.5,0.4-0.7,0.7
			C0.3,17.4,0,17.5,0,18c0,0,0,0,0,0.1c0,0.1,0.1,0.1,0.1,0.2c0.1,0,0.1,0.1,0.2,0.1c0.1,0.1,0.2,0.2,0.3,0.3
			c0.1,0.2,0.3,0.3,0.5,0.4c0.2,0,0.3,0,0.6,0c0.2-0.1,0.4-0.1,0.5-0.2c0,0,0,0,0.1,0c0.1,0,0.1,0,0.2-0.1c0,0,0.1-0.1,0.1-0.1
			c0,0,0.1,0,0.2,0c0.1,0,0.1-0.1,0.2-0.1c0.2,0,0.3,0.1,0.4,0.1c0.2,0,0.4,0.1,0.6,0.1c0.1,0,0.2-0.1,0.3,0
			c0.2-0.1,0.3-0.1,0.5-0.2c0.2-0.1,0.4-0.1,0.6-0.1c0.2,0,0.4,0.1,0.5,0.1c0,0,0.2,0,0.2,0c0.3,0,0.3,0,0.6,0c0.3,0,0.5,0,0.8,0.1
			c0.3,0.2,0.5,0.6,0.7,0.9c0.1,0.4,0.4,0.7,0.6,1.1C8.9,20.8,9,20.9,9.1,21c0.1,0.1,0.2,0.3,0.3,0.4c0.2,0.3,0.4,0.5,0.6,0.7
			c0.2,0.2,0.4,0.4,0.7,0.6c0.1,0.1,0.2,0.2,0.3,0.3c0.1,0.1,0.2,0.2,0.3,0.4c0.2,0.1,0.3,0.2,0.4,0.4c0.2,0.3,0.3,0.5,0.5,0.8
			c0.2,0.3,0.3,0.6,0.4,0.8c0.2,0.3,0.3,0.5,0.5,0.8c0.1,0.1,0.2,0.3,0.2,0.4c0.1,0.1,0.2,0.2,0.3,0.4c0.1,0.1,0.3,0.2,0.4,0.3
			c0.1,0.1,0.2,0.2,0.3,0.3c0.1,0,0.2,0.1,0.3,0.2c0.3,0.1,0.6,0.2,1,0.3c0.4-0.1,0.9,0,1.1,0.3c0,0.1,0,0.1,0,0.1
			c0,0.1,0.1,0.3,0.1,0.4c0.1,0.1,0.1,0.2,0.1,0.4c0.1,0.3,0.1,0.6,0.2,0.8c0.1,0.2,0.1,0.5,0.2,0.7c0.1,0.3,0.2,0.4,0.2,0.7
			c0.1,0.3,0.1,0.7,0.1,1c0,0,0,0,0,0c0,0.4,0.1,0.7,0.1,1.1c0,0.3-0.1,0.5-0.1,0.8c0,0.1,0,0.2,0,0.3c0,0.1-0.1,0.2-0.1,0.4
			c-0.1,0.2-0.3,0.3-0.4,0.5c-0.2,0.1-0.2,0.4-0.4,0.5c-0.1,0.2-0.3,0.3-0.4,0.5c0,0.1-0.2,0.2-0.2,0.3c0,0.1-0.2,0.2-0.1,0.3
			c0.1,0.1,0.3,0.1,0.4,0.1c0,0,0.1,0,0.1,0c0,0,0,0,0.1,0c0,0,0.1,0,0.1,0c0.3,0,0.6-0.1,0.9-0.1c0.2,0,0.4,0,0.5,0.1
			c0.2-0.2,0.3-0.5,0.5-0.7c0.6,0,1.2-0.1,1.9,0c0-0.1,0.1-0.1,0.2-0.2c0-0.1,0.1-0.1,0.1-0.2c0.1-0.1,0.2-0.3,0.3-0.4
			c0.2-0.1,0.4-0.2,0.6-0.3c0.1-0.2,0.1-0.5,0-0.8c0-0.2-0.1-0.4-0.1-0.6c-0.1-0.5,0-0.9,0-1.3c0.1-0.4,0.1-0.9,0.1-1.4
			c-0.1-0.2-0.1-0.4-0.2-0.6c0-0.5-0.1-1.1,0-1.5c0-0.4,0.1-0.6,0.2-1c0.1-0.1,0.3-0.2,0.4-0.3c0.1,0,0.3,0,0.4,0
			c0.3,0.1,0.5,0.2,0.8,0.2c0.3,0,0.5,0.1,0.8,0.1c0.3,0.1,0.7,0.1,1,0.2c0.3,0.1,0.6,0,0.9,0.1c0.2,0,0.3-0.1,0.5,0
			c0.3-0.1,0.6-0.2,1-0.2c0.1-0.1,0.2-0.1,0.4-0.1c0.1,0,0.2-0.1,0.3-0.2c0.2-0.1,0.5-0.1,0.7-0.3c0.5-0.2,0.9-0.4,1.6-0.4
			c0.1,0,0.1,0.1,0.2,0.1c0.1,0,0.2,0.1,0.3,0.1c0.2,0.2,0.4,0.5,0.6,0.7c0.2,0.2,0.5,0.4,0.7,0.7c0.1,0.3,0.2,0.6,0.2,1
			c0.1,0.1,0.1,0.3,0.2,0.4c0,0.2,0.1,0.3,0.2,0.4c0.3-0.1,0.3-0.5,0.3-0.8c0-0.1,0-0.3,0-0.5c0-0.2,0-0.4,0.1-0.4
			c0.1-0.1,0.1,0,0.2,0.1c0.1,0.1,0.1,0.1,0.1,0.3c0,0.2,0,0.4,0.1,0.6c0,0.2,0.1,0.4,0.1,0.5c0,0.2,0.1,0.3,0.3,0.3
			c0.2,0,0.1-0.3,0.2-0.4c0-0.2,0.1-0.3,0.1-0.5c0.1-0.1,0.1-0.3,0.1-0.5c0-0.2,0-0.4,0.2-0.4c0.1,0,0.2,0.2,0.2,0.3
			c0,0.1,0.1,0.2,0.1,0.4c0.1,0.3,0.1,0.6,0.1,0.8c0,0,0,0.1,0,0.1c-0.1,0.8-0.5,1.3-0.8,1.9c0,0.1,0,0.3,0,0.4
			c-0.2,0.4-0.4,0.8-0.7,1.1c-0.1,0.2-0.2,0.4-0.4,0.5c-0.1,0.1-0.2,0.2-0.3,0.4c0,0.1-0.1,0.1-0.1,0.1c-0.1,0.2-0.3,0.4-0.4,0.6
			c-0.1,0.2-0.3,0.4-0.3,0.7c0.1,0.2,0.4,0.1,0.6,0.1c0.2,0,0.5,0,0.7,0c0.1,0,0.2-0.1,0.2,0c0-0.1,0.2,0,0.2-0.1c0.2,0,0.4,0,0.6,0
			c0.1-0.1,0.2-0.1,0.2-0.3c0-0.1,0.1-0.2,0.1-0.4c0.1-0.2,0.2-0.4,0.3-0.6c0.2,0,0.5,0,0.6-0.1c0.1-0.2,0.1-0.6,0.2-0.8
			c0-0.3,0.1-0.5,0.1-0.8c0.1-0.5,0.4-0.9,0.7-1.3c0.1-0.3,0.2-0.6,0.3-0.9c0.1-0.3,0.2-0.6,0.3-0.9c0-0.3,0.2-0.6,0.3-0.9
			c0.1-0.1,0.1-0.3,0.2-0.4l0-0.1l-0.3-0.4c0,0-0.1-0.2,0.2-0.3c0.1,0,0.1,0,0.3,0.2c0.1,0.1,0.2,0.2,0.2,0.3l0.2,0.2
			c0.1,0.1,0.2,0.2,0.3,0.3c0,0.1,0.1,0.1,0.2,0.2c0,0,0,0,0,0c0,0.1,0.1,0.2,0.1,0.3c0,0.1,0,0.1,0.1,0.2c0.1,0.2,0.2,0.3,0.2,0.5
			c0,0.3,0.1,0.7,0.1,1.1c0,0.4-0.1,0.7-0.1,1.1c-0.1,0.3-0.1,0.7-0.1,1c-0.1,0.5-0.2,1-0.2,1.6c-0.1,0.1-0.1,0.2-0.2,0.3
			c-0.1,0.1-0.1,0.2-0.2,0.2c-0.2,0.1-0.3,0.3-0.4,0.5c-0.2,0.2-0.2,0.4-0.4,0.5c-0.1,0.1-0.1,0.2-0.2,0.3c0,0.1-0.2,0.2-0.1,0.3
			c0.1,0.1,0.2,0,0.3,0c0.5,0,1.1-0.1,1.6-0.1c0,0,0.1,0,0.1,0c0.2,0,0.3-0.1,0.4,0c0.2-0.4,0.5-0.6,0.5-1.1c0-0.2-0.2-0.2-0.2-0.4
			c0.1-0.1,0.1-0.3,0.2-0.4c0.1-0.1,0.2-0.2,0.4-0.2c0.1,0,0.1-0.1,0.2-0.2c0.1,0,0.2-0.1,0.2-0.2c0-0.3-0.2-0.7-0.3-1.1
			c0-0.6-0.1-1-0.1-1.5c0-0.2,0-0.3,0.1-0.4c0.2,0.1,0.3,0.4,0.5,0.5c0.1,0,0.2,0.1,0.4,0.1C41.9,32.2,41.8,32,41.8,31.9 M20,32.7
			c-0.1,0.3-0.1,0.5-0.1,0.9c0,0.2-0.1,0.3-0.1,0.5c0,0.2-0.1,0.3-0.1,0.5c-0.1,0.1-0.1,0.3-0.2,0.4c-0.1,0.1-0.1,0.3-0.3,0.3
			c-0.1,0-0.1,0-0.1,0c0-0.4,0-0.8,0.1-1.2c0-0.4,0-0.8,0.1-1.2c0-0.1,0-0.3,0-0.5c0,0,0,0,0-0.1c-0.1-0.4,0-0.8,0-1.3
			c0-0.2-0.1-0.4,0.2-0.5c0.1,0,0.2,0.2,0.2,0.3c0.1,0.1,0.2,0.2,0.2,0.3c0,0.2,0.1,0.3,0.2,0.5C20.1,32,20,32.3,20,32.7z
			 M40.4,24.7c0,0.5,0,1-0.1,1.4c0,0.2,0,0.4-0.1,0.5c-0.2,0-0.2-0.2-0.3-0.4c0-0.2-0.2-0.4-0.3-0.6c-0.1-0.1-0.1-0.3-0.2-0.4
			c0,0,0-0.1,0-0.1c0,0-0.1-0.1-0.1-0.2c-0.1-0.2,0-0.3-0.1-0.5c0-0.1,0-0.2,0-0.3c0.1-0.4,0.2-0.8,0.3-1.2c0.1-0.1,0.1-0.3,0.2-0.5
			c0-0.1,0.1-0.2,0.1-0.4c0-0.2,0.1-0.3,0.1-0.5c0-0.1,0-0.2,0-0.3c0-0.1,0-0.1,0.1-0.2c0.1-0.4,0-0.7,0.1-1.1c0-0.1,0-0.2,0-0.3
			c0-0.2,0-0.3,0.1-0.5c0-0.1,0-0.2,0-0.3c0-0.1,0-0.2,0.1-0.2c0.2,0,0.1,0.3,0.2,0.5c0,0.1,0.1,0.1,0.1,0.2c0,0.9,0.1,2,0,2.8
			c0,0.3,0,0.6,0,0.9c0,0.3,0.1,0.7,0.1,1C40.4,24.3,40.4,24.5,40.4,24.7z"/>
</g>
</svg>
