<?xml version="1.0" encoding="utf-8"?>
<!-- Generator: Adobe Illustrator 19.1.0, SVG Export Plug-In . SVG Version: 6.00 Build 0)  -->
<svg version="1.1" id="Layer_1" xmlns="http://www.w3.org/2000/svg" xmlns:xlink="http://www.w3.org/1999/xlink" x="0px" y="0px"
	 width="48.7px" height="42.8px" viewBox="0 0 48.7 42.8" enable-background="new 0 0 48.7 42.8" xml:space="preserve">
<g>
		<path  fill-rule="evenodd" style="fill:#527296;" clip-rule="evenodd" d="M22.7,27.4l-0.2-0.2c0,0-0.2-0.2-0.3-0.5
			c0-0.1,0.1-0.2,0.2-0.2c0.1,0,0.3,0.1,0.3,0.1s0.1,0,0.1,0.1c0.1,0.2,0.2,0.4,0.4,0.6c0,0,0,0,0.1,0.1l0.2,0.2
			c0.1,0.1,0.2,0.2,0.3,0.3c0.2,0.1,0.3,0.3,0.4,0.3c0.1,0.1,0.2,0.1,0.3,0.1c0.1,0,0.2,0.1,0.4,0.1c0.2,0.1,0.7,0.2,0.6,0.4
			c-0.1,0.2-0.4,0.1-0.6,0.1c-0.1,0-0.2,0-0.3,0c-0.1,0-0.2,0-0.3,0c-0.2,0-0.4,0-0.6,0c-0.2,0-0.4,0-0.6,0c-0.5,0.1-1,0-1.4,0.4
			c-0.2,0.1-0.4,0.1-0.6,0.1c-0.3,0.1-0.4,0.2-0.6,0.4c0,0,0,0,0,0.1c-0.1,0.2-0.2,0.4-0.1,0.7c0.1,0.1,0.3-0.1,0.5-0.1
			c0.2,0,0.3-0.1,0.5-0.1c0.1,0.1,0.2,0.3,0.3,0.4c0.2,0.1,0.5,0.1,0.7,0c0.3-0.1,0.5-0.1,0.7-0.1c0.1,0.1,0.2,0.1,0.3,0.3
			c0.3,0.1,0.6,0,0.8,0c0.5-0.1,1-0.2,1.4-0.2c0.5-0.1,1.2,0,1.7-0.1c0.5-0.1,0.7,0,1.1-0.1c0.2,0,0.5-0.1,0.7,0c0.1,0,0.2,0,0.3,0
			c0.1,0,0.2,0,0.3,0c0.2-0.1,0.3-0.1,0.5-0.3c0-0.2,0.1-0.4,0-0.7c0-0.1-0.1-0.2-0.2-0.4c0-0.1,0-0.2,0-0.3c0-0.1,0-0.2,0.1-0.2
			c0.2-0.1,0.2-0.1,0.4-0.1c0.2,0,0.4-0.1,0.6-0.1c0.2-0.1,0.7-0.3,0.9-0.7c0.2,0,0.2-0.1,0.4,0c0.1,0.1,0.1,0,0.2,0.1
			c0.2,0.1,0.3,0.1,0.4,0.3c0.1,0.1,0.3,0.5,0.5,0.9c0.2,0.2,0.3,0.4,0.5,0.6c0.1,0.3,0.4,0.4,0.6,0.6c0.1,0.1,0.2,0.2,0.3,0.3
			c0.1,0.1,0.2,0.2,0.3,0.3c0.1,0.1,0.2,0.2,0.3,0.3c0.1,0.1,0.2,0.2,0.3,0.3c0.1,0,0.4,0.4,0.5,0.4c0,0.1,0.3,0.2,0.3,0.2
			c0.1,0.1,0.4,0.3,0.5,0.4c0.1,0.1,0.6,0.4,0.7,0.5c0.3,0.1,0.4,0.3,0.6,0.4c0.2,0.2,0.5,0.2,0.7,0.4c0.1,0,0.7,0.3,0.8,0.4
			c0.3,0.1,0.5,0.2,0.8,0.4c0.2,0,0.7,0.3,0.8,0.4c0.1,0,0.6,0.2,0.6,0.2c0.1,0.1,0.6,0.2,0.8,0.3c0.1,0,0.3,0.1,0.4,0.1
			c0.1,0.1,0.3,0.1,0.5,0.2c0.1,0.1,0.7,0.2,0.9,0.2c0.2,0,0.3,0,0.5,0c0.2,0,0.5,0,0.6,0c0.2,0,0.4-0.1,0.5,0
			c0.2-0.1,0.3-0.1,0.4-0.1c0.2,0,0.3-0.1,0.4-0.2c0.2-0.1,0.4-0.2,0.5-0.3c0.1,0,0.2-0.1,0.3-0.2c0.2-0.1,0.3-0.3,0.4-0.5
			c0.1-0.3,0.2-0.5,0.2-0.8c0,0,0,0,0-0.1c0-0.2-0.1-0.4-0.1-0.6c-0.1-0.2-0.3-0.5-0.5-0.6c-0.2-0.2-0.5-0.5-0.6-0.6
			c-0.1-0.1-0.4-0.3-0.4-0.4c-0.4-0.2-0.2-0.2-0.7-0.5c-0.3-0.1-0.5-0.3-0.8-0.4c-0.1-0.1-0.3-0.1-0.4-0.2c-0.1-0.1-0.2-0.1-0.4-0.2
			c-0.2-0.1-0.5-0.2-0.8-0.4c-0.2-0.2-0.5-0.2-0.8-0.3c-0.1,0-0.5-0.1-0.6-0.2c-0.1,0-0.2-0.1-0.3-0.1c-0.1,0-0.2-0.1-0.3-0.1
			C42,29,41.8,29,41.8,28.9c-0.2-0.1-0.4-0.2-0.7-0.2c-0.2-0.1-0.4-0.2-0.7-0.2c-0.5-0.3-1.2-0.5-1.8-0.7c-0.5-0.2-1-0.5-1.5-0.8
			c-0.2-0.1-0.3-0.2-0.5-0.4l-0.2-0.3c-0.1-0.1-0.4-0.4-0.4-0.3c0-0.1-0.6-0.6-0.6-0.8c-0.2-0.4-0.2-0.5-0.5-0.9
			C35,24,34.9,24,34.7,23.6c-0.1-0.2-0.1-0.3-0.2-0.5c-0.2-0.3-0.1-0.4-0.3-0.7c-0.1-0.2-0.2-0.2-0.3-0.5c-0.2-0.3-0.2-0.5-0.3-0.7
			c-0.1-0.2-0.3-0.4-0.3-0.6c-0.3-0.4-0.5-0.7-0.8-1.2c-0.3-0.3-0.4-0.5-0.7-0.9c-0.3-0.4-0.7-0.8-0.7-0.8c-0.2-0.1-0.7-0.8-1.2-1.1
			c-0.4-0.4-0.8-0.5-1.2-1c-0.1-0.1-0.3-0.2-0.5-0.3c-0.2-0.1-0.9-0.4-1.1-0.5c-0.1-0.2-0.3,0-0.4-0.2c-0.2-0.1-0.4-0.1-0.6-0.1
			c-0.1,0-0.3-0.2-0.4-0.1c-0.1-0.1-0.2,0-0.3-0.1c-0.1,0-0.3-0.1-0.4-0.1c-0.2-0.1-0.4-0.1-0.5-0.1c-0.2,0-0.4-0.1-0.6-0.1
			c-0.1,0-0.6,0-0.7-0.1c-0.3,0-0.4,0-0.8-0.1c-0.3,0-0.7,0-1,0c-0.1,0-0.3,0.1-0.4,0c-0.1,0-0.4,0-0.5,0c-0.5,0.1-0.9,0.1-1.4,0.3
			c0,0-0.4,0.1-0.4,0.1c-0.6,0.2-0.8,0.3-1.3,0.6c-0.2,0.1-0.5,0.2-0.7,0.3c-0.4,0.2-0.9,0.3-1.2,0.6c-0.4,0.2-0.8,0.3-1.2,0.6
			c-0.2,0-0.4,0.2-0.5,0.2c-0.2,0.1-0.3,0.1-0.5,0.1c0,0,0,0,0,0c-0.2,0-0.3,0-0.6,0.1c-0.3,0-0.7,0-0.9,0c-0.1,0-0.2,0-0.4,0
			c-0.1,0-0.2,0-0.4,0c-0.2,0-0.4,0-0.7,0c-0.3,0.1-0.6,0-0.8,0.1c-0.3,0-0.6,0-1,0c-0.2,0.1-0.4,0-0.6,0.1c-0.1,0-0.3,0.1-0.4,0
			c-0.1,0-0.2,0-0.3,0c-0.2,0.1-0.4,0.1-0.6,0.2c-0.2,0.1-0.4,0.1-0.6,0.2c-0.5,0.1-0.7,0.3-1.2,0.5c-0.4,0.2-0.9,0.7-1.2,1
			c0,0.1-0.2,0.2-0.2,0.4c-0.1,0.1-0.1,0.2-0.2,0.3c-0.1,0.2-0.5,0.8-0.5,0.9c-0.1,0.2-0.1,0.2-0.3,0.5c-0.2,0.4-0.4,0.8-0.3,1.1
			c0.1,0.1,0.1,0.3,0.2,0.4c-0.2,0.1-0.4,0.2-0.6,0.3c-0.2,0.1-0.4,0.2-0.7,0.3c-0.2,0.1-0.4,0.3-0.7,0.4c-0.2,0.1-0.5,0.2-0.5,0.5
			c0.1,0.2,0.2,0.1,0.4,0.1c0.4-0.2,0.7-0.4,1.3-0.6c0.3-0.1,0.5-0.2,0.8-0.3c0.5-0.2,0.6-0.2,0.9,0.2c0,0.1-0.2,0.1-0.3,0.2
			c-0.3,0.2-0.6,0.4-0.9,0.6C2,24,1.9,24.1,1.7,24.2c-0.1,0.1-0.2,0.2-0.3,0.3c-0.2,0.2-0.4,0.4-0.2,0.6c0.1,0.1,0.2,0,0.3-0.1
			c0.1-0.1,0.3-0.2,0.4-0.3c0.4-0.3,0.8-0.6,1.4-0.9c0.2-0.2,0.4-0.2,0.6,0c0,0.1,0,0.1-0.1,0.1c0,0,0,0.1-0.1,0.1
			c-0.1,0.1-0.2,0.2-0.3,0.4c-0.2,0.2-0.1,0.2-0.3,0.4C3,25,3,25.2,2.8,25.4c-0.1,0.2-0.2,0.5,0,0.6c0.2,0,0.4-0.2,0.4-0.3
			c0.2-0.2,0.2-0.3,0.3-0.5c0.2-0.3,0.4-0.4,0.6-0.7c0.1-0.1,0.2-0.2,0.3-0.4c0.4-0.2,0.3-0.1,0.6-0.1c0.1,0,0.4,0,0.5,0.1
			c0.1,0.1,0.2,0.1,0.3,0.2c0.2,0.1,0.2,0.1,0.5,0.2c0.5,0.2,1.1,0.2,1.5,0.3c0,0,0.3,0,0.4,0c0.1,0,0.2,0,0.3,0c0.1,0,0.4,0,0.5,0
			c0.4,0,0.5,0,0.7,0c0.3-0.1,0.5,0,0.8,0c0,0,0.1,0.1,0.1,0.1c0.2,0.2,0.4,0.3,0.6,0.5c0.2,0.2,0.5,0.4,0.7,0.6
			c0.2,0.3,0.4,0.7,0.6,0.9c0.1,0.2,0,0.3,0.1,0.4c-0.1,0.1-0.1,0.3-0.2,0.4c-0.2,0.1-0.3,0.2-0.4,0.3c-0.1,0.2-0.2,0.3-0.3,0.5
			c0,0.1-0.1,0.3-0.1,0.4c0,0.1,0,0.1,0,0.2c0,0.1-0.1,0.1-0.1,0.2c-0.1,0.1-0.2,0.3-0.3,0.3c-0.3,0-0.3,0.1-0.6,0.1
			c-0.1,0-0.6,0-0.8,0.1c-0.1,0.1-0.2,0.1-0.2,0.2c-0.2,0.1-0.3,0.2-0.4,0.4c0,0.1-0.1,0.1-0.1,0.2c0.1,0.1,0,0.2,0.1,0.3
			c0.2,0.1,0.3,0.1,0.7,0.1c0.3,0,0.6,0,0.9,0c0.1,0,0.2,0,0.3,0c0,0,0.3,0,0.3,0c0.1,0,0.9,0,1.2-0.1c0.1,0,0.3-0.1,0.5,0
			c0.2,0,0.3,0,0.5,0c0.1,0,0.2-0.1,0.3-0.2c0.1-0.1,0.1-0.3,0.3-0.5c0-0.1,0-0.3,0.1-0.5c0.1-0.2,0.4-0.3,0.6-0.4
			c0.2-0.1,0.3,0,0.5-0.1c0,0,0.1-0.1,0.1-0.1c0.1-0.1,0.1-0.3,0.2-0.4c0.2-0.2,0.5-0.1,0.7-0.3c0.2-0.2,0.1-0.2,0.4-0.4
			c0.1-0.1,0.2,0,0.3-0.1c0.2-0.1,0.3,0,0.5-0.1c0.1,0,0.2-0.1,0.3,0c0.1,0,0.6-0.5,0.7-0.4c0.2-0.1,0.3,0,0.5,0c0.2,0,0.2,0,0.4,0
			c0.1,0,0.2,0.1,0.4,0.1c0.1,0,0.2,0,0.3,0c0.1,0,0.2,0,0.3,0.1c0.2,0,0.6,0,0.8,0c0.3-0.1,0.5,0.1,0.8,0c0.2,0,0.4,0,0.6,0
			C22.5,27.4,22.6,27.4,22.7,27.4"/>
</g>
</svg>
