<?xml version="1.0" encoding="utf-8"?>
<!-- Generator: Adobe Illustrator 19.1.0, SVG Export Plug-In . SVG Version: 6.00 Build 0)  -->
<svg version="1.1" id="Layer_1" xmlns="http://www.w3.org/2000/svg" xmlns:xlink="http://www.w3.org/1999/xlink" x="0px" y="0px"
	 width="49.5px" height="43.5px" viewBox="0 0 49.5 43.5" enable-background="new 0 0 49.5 43.5" xml:space="preserve">
<g>
		<path  fill-rule="evenodd" style="fill:#527296;" clip-rule="evenodd" d="M21.4,15.8c0,0,0,0.1,0,0.1c0,0.1,0,0.1,0,0.1l0,0.1
			c0,0.1,0,0.2,0,0.2c0,0-0.1,0.2-0.1,0.2s0,0.1,0.2,0.1c0.1,0,0.1-0.1,0.1-0.1s0.1-0.1,0.1-0.2c0,0,0-0.1,0-0.1l0-0.1l0-0.3
			c0-0.1,0-0.1,0-0.2c0,0,0-0.1,0-0.2c0,0,0-0.2,0.1-0.2c0.1-0.1,0.1-0.1,0.1-0.3c0.2-0.3,0.3-0.5,0.3-0.9c0.1-0.3,0.2-0.7,0.3-1
			c0-0.6,0.2-1,0.4-1.5c0-0.2-0.1-0.5-0.1-0.8c0-0.1,0-0.3,0-0.4c0-0.1,0-0.3,0.1-0.4c0-0.1,0-0.3,0.1-0.4c0-0.1,0-0.1,0-0.2
			c0-0.1-0.1-0.2-0.1-0.4c0-0.2,0-0.4,0.1-0.6c0-0.2,0.1-0.3,0.1-0.6c0-0.2,0-0.4,0.1-0.6c0.1-0.2,0.1-0.3,0.2-0.5
			c0-0.1,0-0.1,0-0.2c0.1-0.4,0.2-0.7,0.3-1c0.1-0.3,0.2-0.7,0.3-1c0,0,0-0.1,0-0.1c0-0.1,0-0.2,0-0.4C24,4,24,3.8,24.1,3.6
			c0-0.2,0.2-0.3,0.2-0.5c0.1-0.1,0.1-0.1,0.1-0.2c0.1-0.2,0.2-0.5,0.3-0.7c0-0.1,0-0.2,0.1-0.3c0.1-0.3,0.2-0.5,0.2-0.8
			C25,1.1,25,0.9,25.1,0.7c0.1-0.1,0.2-0.3,0.3-0.4c0.2-0.1,0.4-0.1,0.6-0.2c0,0,0.1,0,0.1-0.1C26.2,0.1,26.4,0,26.6,0
			c0.2,0,0.4,0,0.6,0c0.2,0,0.4,0,0.5,0.2c0,0.1-0.1,0.2-0.2,0.3c-0.1,0-0.3,0.1-0.4,0c-0.1,0.1-0.3,0.1-0.5,0.1
			c-0.1,0.1-0.2,0.2-0.3,0.3c0,0.2-0.1,0.4-0.1,0.5C26.1,1.7,26.1,1.9,26,2c0,0.1-0.1,0.2-0.2,0.3c0,0.1-0.1,0.2-0.1,0.3
			c0.1,0.1,0.2,0.1,0.3,0c0.1-0.1,0.1-0.2,0.1-0.3c0.1-0.2,0.1-0.4,0.4-0.4c0.2,0,0.2,0.1,0.3,0.2c0.1,0.3-0.1,0.4-0.2,0.7
			c-0.1,0.2-0.2,0.3-0.3,0.5c-0.1,0.1-0.3,0.3-0.4,0.5c-0.1,0.1-0.1,0.2-0.2,0.2c-0.1,0.1-0.1,0.2-0.2,0.2c0,0.1,0,0.2,0,0.3
			c0.1,0.4,0.1,0.8,0.1,1.2c0,0.2,0.1,0.5,0.1,0.7c0,0.1,0,0.2,0,0.2c0,0.3,0,0.5,0,0.7c0.1,0.2,0.1,0.4,0.2,0.6c0,0.3,0,0.7,0,1.1
			c0,0.4,0,0.8-0.1,1.1c-0.1,0.3-0.1,0.6-0.2,0.9c-0.1,0.2-0.1,0.3-0.2,0.5c0,0.1-0.1,0.2-0.1,0.3c0,0.2,0.1,0.3,0.1,0.5
			c0,0.5,0,0.9-0.1,1.3c0,0.2,0.1,0.3,0.1,0.4c0,0.1-0.1,0.3-0.1,0.4c0,0.1,0,0.1-0.1,0.2c0,0.1,0,0.1,0,0.2
			c-0.1,0.2-0.2,0.4-0.3,0.6c-0.1,0.2-0.1,0.3-0.2,0.5c0,0.1,0,0.2,0,0.3c0,0.1-0.1,0.2-0.1,0.3c-0.1,0.3-0.2,0.5-0.4,0.8
			c-0.1,0.2-0.1,0.5-0.2,0.7c0,0.2-0.2,0.4-0.2,0.7c0,0.2,0.1,0.3,0.1,0.5c0,0.1-0.1,0.3-0.1,0.4c0,0.2,0,0.4,0.1,0.6
			c0.1,0.1,0.1,0.2,0.2,0.3c0,0.1,0.1,0.2,0.2,0.3c0.1,0.1,0.2,0.1,0.2,0.2c0.1,0.1,0.2,0.1,0.2,0.2c0.1,0.2,0.4,0.3,0.5,0.5
			c0.1,0.1,0,0.2,0,0.3c0,0.1,0.1,0.3,0.2,0.4c0.1,0.1,0.1,0.2,0.2,0.4c0,0.2,0,0.4,0,0.5c0,0.2,0.2,0.4,0.2,0.7
			c0,0.4-0.1,0.6-0.2,1c0,0.1,0,0.3,0,0.4c0,0.3-0.2,0.5-0.2,0.8c0,0.2,0.1,0.2,0.1,0.3c0,0.3-0.1,0.5-0.2,0.7c0,0,0,0,0,0
			c0,0,0,0.1-0.1,0.2c0,0.1-0.1,0.2-0.1,0.3c0,0.1,0.1,0.1,0.2,0c0.3-0.3,0.2-0.3,0.5-0.4c0.2-0.1,0.6-0.1,1-0.3c0.1,0,0.2,0,0.2,0
			c0.2,0.1,0.5,0.1,0.8,0.1l0.3,0c0.2,0,0.4,0,0.6,0.1c0.1,0,0.1,0.1,0.2,0.1c0.1,0,0.1,0,0.2,0.1c0.2,0.2,0.3,0.3,0.5,0.5
			c0.2,0.1,0.3,0.3,0.5,0.5c0.1,0.1,0.1,0.2,0.2,0.4c0.1,0.3,0.3,0.5,0.5,0.7c0.1,0.3,0,0.4,0.1,0.6c0,0,0,0.3,0,0.3
			c0,0.1,0,0.3,0.1,0.4c0,0.2,0.2,0.1,0.3,0.4c0.1,0.2,0.3,0.2,0.5,0.3c0.1,0,0.2,0.1,0.3,0.1c0.1,0.1,0.2,0.1,0.2,0.1
			c0,0.1,0.1,0.1,0.1,0.2c0.1,0.3,0.2,0.5,0.3,0.7c0,0.1,0.1,0.3,0.1,0.4c0,0,0,0,0,0c0,0,0,0.1,0,0.2c0,0,0,0.1,0,0.1
			c0,0.1,0,0.1,0,0.2c0,0.1-0.1,0.2-0.2,0.2c-0.2,0-0.3-0.3-0.4-0.4c-0.1-0.1-0.3-0.3-0.4-0.4c-0.1,0-0.2-0.3-0.4-0.3
			c-0.1,0-0.7-0.2-0.8-0.3c-0.2,0-0.3-0.1-0.6-0.1c-0.1,0-0.2,0-0.2,0c0,0-0.1,0-0.1,0c-0.1,0-0.2,0-0.3,0.1
			c-0.1,0.1-0.4,0.2-0.5,0.3c-0.1,0.1-0.1,0.3-0.1,0.4c-0.1,0.2-0.2,0.3-0.3,0.3c-0.1,0-0.1-0.1-0.2,0c-0.1,0-0.1-0.1-0.2-0.2
			c-0.1-0.3,0.1-0.5,0.2-0.7c0.1-0.2,0.3-0.3,0.4-0.7c0,0,0,0,0,0c0.1-0.1-0.1-0.3-0.2-0.5c-0.1-0.1-0.1-0.3-0.1-0.3L28,30.6
			l-0.1-0.1l-0.1-0.2c0,0,0-0.1,0-0.1c0-0.1-0.2,0-0.2,0.1c0,0-0.1,0.1-0.1,0.1l0,0.1l0.1,0.2l0.1,0.1l0,0.1c0,0-0.1,0.1-0.1,0.1
			c0,0.1-0.1,0.1-0.1,0.2c-0.1,0-0.1,0.1-0.1,0.1c-0.1,0-0.1,0.1-0.1,0.1c-0.2,0.1-0.4,0.2-0.6,0.3c-0.2,0.1-0.4,0.3-0.6,0.4
			c-0.4,0.1-0.8,0.2-1.1,0.4c-0.1,0-0.3,0-0.4,0.1c-0.2-0.1-0.5-0.2-0.8-0.1c-0.2-0.1-0.4-0.1-0.6-0.2c-0.2,0-0.3,0-0.5,0
			c-0.2,0.1-0.2,0.4-0.4,0.5c-0.3,0.1-0.5,0.3-0.7,0.5c-0.1,0.2-0.3,0.4-0.4,0.6c-0.2,0.1-0.4,0.2-0.6,0.4c-0.1,0.1-0.2,0.3-0.3,0.4
			c-0.1,0.1-0.2,0.2-0.3,0.2c-0.1,0.1-0.2,0.1-0.3,0.2c-0.1,0.1-0.2,0.2-0.3,0.3c-0.1,0.1-0.2,0.1-0.2,0.1c0,0.1-0.1,0.1-0.2,0.2
			c-0.1,0-0.2,0.1-0.4,0.1c0,0.1-0.1,0.2,0,0.4c0,0.1,0.1,0,0.1,0.1c0.1,0,0.1,0.1,0.2,0c0.1,0.1,0.2,0.1,0.3,0.1
			c0.1,0,0.2,0.1,0.3,0.1c0.1,0,0.2,0.1,0.3,0.1c0.2,0.2,0.3,0.3,0.5,0.4c0.1,0,0.1,0.1,0.2,0.1c0.1,0,0.1,0.1,0.2,0.1
			c0.1,0.1,0.2,0.1,0.3,0.2c0.2,0.1,0.4,0.3,0.6,0.3c0.3,0.2,0.5,0.4,0.7,0.7c0.1,0.2,0.2,0.4,0.3,0.7c0,0.1,0,0.2,0.1,0.3
			c0,0.1,0,0.2,0,0.3c0,0.1,0,0.2,0,0.3c0,0.2,0.2,0.3,0.2,0.4c0.1,0.2,0.2,0.3,0.3,0.4c0.1,0.1,0.2,0.2,0.3,0.3
			c0.1,0.1,0.2,0.2,0.3,0.3c0,0.2,0,0.4-0.3,0.5c-0.2,0-0.4-0.2-0.5-0.3c0,0,0,0-0.1,0c-0.1-0.1-0.1-0.3-0.2-0.3
			c-0.2-0.1-0.2,0.2-0.3,0.4c-0.1,0.1-0.2,0.2-0.3,0.4c0,0.2,0.1,0.2,0.2,0.4c0.1,0.1,0.1,0.2,0.2,0.3c0.1,0,0.2,0,0.3,0.1
			c0.1,0.1,0.3,0.1,0.4,0.2c0,0.1,0.1,0.2,0.1,0.3c-0.1,0.1-0.1,0.2-0.3,0.2c0,0-0.2,0-0.2,0c-0.1,0-0.2,0-0.3,0
			c-0.1-0.1-0.3-0.1-0.5-0.2c0-0.1-0.1-0.1-0.2-0.1c-0.1,0,0-0.1-0.1-0.1c0,0,0-0.1-0.1-0.1c0-0.1-0.1-0.1-0.1-0.1
			c-0.2-0.1-0.4-0.1-0.6-0.3c0-0.1-0.1-0.1-0.1-0.1c-0.1-0.4,0-0.7,0-1c0.1-0.2,0.1-0.5,0.2-0.7c0-0.1,0.1-0.3,0.1-0.4
			c0-0.2,0.1-0.2,0.1-0.4c0-0.2-0.1-0.3-0.2-0.4c-0.4,0-0.7-0.1-1.1,0c-0.2,0-0.4-0.1-0.6-0.1c-0.2,0-0.3-0.1-0.5-0.1
			c-0.1-0.1-0.1-0.1-0.2-0.1c-0.1-0.1-0.3-0.3-0.5-0.4c-0.2,0-0.2-0.1-0.4-0.1c0-0.1-0.2,0-0.2-0.1c-0.1,0-0.1-0.1-0.2-0.1
			c0,0-0.1,0-0.2-0.1c-0.1,0-0.1-0.1-0.2-0.1c-0.2-0.2-0.4-0.4-0.6-0.5c-0.1-0.2-0.2-0.4-0.4-0.6c-0.2-0.2-0.4-0.3-0.6-0.5
			c-0.1-0.1-0.1-0.2-0.2-0.4c-0.1-0.3-0.1-0.6,0-0.9c0.1-0.2,0.2-0.4,0.3-0.6c0.1-0.2,0.1-0.5,0.2-0.7c0.2-0.3,0.4-0.6,0.4-1
			c0.1-0.2,0.1-0.4,0.2-0.5c0.1-0.2,0.2-0.3,0.3-0.5c0.1-0.2,0.1-0.4,0.2-0.6c0-0.1,0.1-0.1,0.1-0.2c0.1-0.2,0.2-0.3,0.4-0.5
			c0.1-0.1,0.2-0.2,0.3-0.3c0.1-0.1,0.2-0.2,0.3-0.2c0.1-0.1,0.1-0.3,0.2-0.4c0.1-0.1,0.3-0.2,0.4-0.2c0-0.1,0.1-0.2,0-0.4
			c0-0.1-0.1-0.2-0.2-0.3c-0.1-0.1-0.1-0.2-0.2-0.3c0-0.2-0.1-0.3-0.2-0.5c-0.1-0.2-0.2-0.4-0.3-0.5c-0.1-0.4-0.3-0.7-0.4-1.1
			c-0.1-0.1-0.1-0.2-0.2-0.3c-0.1-0.1-0.1-0.2-0.2-0.4c-0.1-0.3,0-0.8-0.3-0.7c-0.1,0-0.1,0.1-0.1,0.2c0,0,0,0.1,0,0.2
			c0,0.3,0,0.5-0.1,0.8c0,0.1,0,0.2,0,0.4c0,0.2-0.1,0.4-0.1,0.6C16,27.3,16,27.4,16,27.5c0,0.1-0.1,0.1-0.1,0.3c0,0.1,0,0.1,0,0.2
			c0,0.1,0,0.2,0.1,0.3c0,0.1-0.1,0.2-0.2,0.4c0,0.1-0.1,0.2-0.1,0.3c0,0,0,0.1-0.1,0.1c0,0,0,0,0,0c0,0.1-0.1,0.2-0.2,0.4
			c0,0.1-0.1,0.1-0.1,0.2c0,0.1-0.1,0.2-0.2,0.3c0,0.1-0.1,0.1-0.2,0.2c-0.1,0.2-0.2,0.3-0.2,0.5c-0.1,0.1-0.2,0.2-0.3,0.3
			c-0.1,0.1-0.2,0.2-0.3,0.3c-0.2,0.2-0.3,0.5-0.5,0.7c-0.2,0.1-0.4,0.3-0.7,0.4c-0.1,0.1-0.2,0.3-0.3,0.4c-0.1,0.1-0.1,0.2-0.2,0.2
			c0,0-0.1,0.1-0.2,0.1c-0.1,0-0.1,0.1-0.1,0.1c0,0.1-0.1,0.1-0.2,0.2c0,0.1-0.1,0.1-0.1,0.2c-0.1,0.1-0.2,0.2-0.3,0.4
			c-0.1,0.2-0.1,0.4-0.1,0.6c-0.1,0.3-0.2,0.5-0.3,0.7c0,0.1,0,0.2-0.1,0.2c0,0.1-0.1,0.1-0.1,0.2c0,0,0,0.1-0.1,0.1
			c0,0-0.1,0.1-0.1,0.1c-0.1,0.1-0.2,0.3-0.2,0.5c0,0.3,0.1,0.6,0,0.9c-0.1,0.1,0,0.2-0.1,0.2c0,0.1-0.1,0.1-0.2,0.2
			c0,0.4,0.1,0.6,0.3,0.9c0.1,0.2,0.3,0.3,0.4,0.5c0,0,0,0,0,0c0,0.1,0,0.3,0,0.3c0,0.1-0.1,0.1-0.2,0.1c-0.2,0-0.2-0.1-0.4-0.1
			c-0.1-0.1-0.2-0.1-0.3-0.2c-0.2-0.1-0.5-0.2-0.7-0.3c-0.1-0.4-0.3-0.7-0.4-1c0-0.1,0-0.3,0-0.4c0-0.1,0-0.2,0.1-0.3
			c0-0.4,0-1-0.1-1.4c0-0.1,0.1-0.2,0.1-0.3c0.1-0.1,0.1-0.2,0.2-0.4c0.1-0.1,0.1-0.2,0.2-0.3c0-0.1,0.1-0.2,0.2-0.2c0,0,0,0,0-0.1
			c0.1-0.1,0.2-0.2,0.3-0.3c0.1-0.1,0-0.3,0.1-0.4c0,0,0,0,0.1-0.1c0.1-0.1,0.1-0.3,0.2-0.4c0.1-0.4,0.2-0.8,0.4-1.1
			c0.1-0.3,0.3-0.7,0.5-1c0-0.3,0.1-0.6,0.2-0.8c0.2-0.3,0.3-0.5,0.5-0.8c0.1-0.1,0.2-0.3,0.4-0.4c0.1-0.2,0.2-0.3,0.3-0.5
			c0.1-0.1,0.1-0.1,0.2-0.2c0,0,0.1-0.1,0.1-0.1c0.1-0.1,0.2-0.3,0.3-0.4c0,0,0.1-0.1,0.1-0.1c0-0.1,0.1-0.1,0.1-0.2
			c0,0,0-0.1,0.1-0.2c0-0.1,0-0.1,0-0.2c0-0.2-0.1-0.4,0-0.6c0,0,0,0,0-0.1c0-0.1,0-0.3,0.1-0.4c0-0.2,0-0.3-0.1-0.5
			c0-0.1,0-0.2,0.1-0.3c0,0,0,0,0-0.1c0-0.1,0.1-0.2,0.1-0.3c0-0.2,0.1-0.4,0.2-0.6c0-0.2,0-0.5-0.1-0.7c0-0.1,0-0.1,0-0.2
			c0.1-0.2,0.2-0.3,0.2-0.5c0,0,0-0.1,0-0.1c0-0.2,0-0.2,0-0.3c0-0.1,0-0.1,0-0.1c0-0.1,0.1-0.3,0.2-0.4c0.1-0.1,0.1-0.3,0.2-0.4
			c0-0.1,0-0.2,0-0.4c0.1-0.1,0.1-0.3,0.2-0.4c0-0.1,0.1-0.2,0.1-0.3c0-0.1,0.1-0.2,0.2-0.3c0.2-0.2,0.3-0.2,0.5-0.4l0.1,0l0,0
			c0,0,0.1,0.1,0.1,0.1c0,0,0,0.1,0.1,0.1l0.1,0.1l0.2,0.2l0.2,0.2l0.2,0.1l0.2,0.1c0,0,0.2,0.1,0.2,0c0.1-0.1,0.1,0,0.1-0.1
			c0-0.1-0.1-0.1-0.2-0.2c-0.1,0-0.3-0.2-0.3-0.2c-0.1,0-0.1-0.1-0.1-0.1l-0.2-0.2L15.8,20c0,0,0-0.1-0.1-0.1c0,0-0.1-0.1-0.1-0.2
			l0-0.1c0,0,0-0.1-0.1-0.2c0-0.1-0.1-0.3-0.1-0.4c-0.1-0.2-0.1-0.3-0.2-0.5c-0.1-0.1-0.2-0.4-0.3-0.6c0-0.2-0.1-0.5-0.1-0.8
			c-0.1-0.2-0.2-0.3-0.2-0.4c0-0.1-0.1-0.2-0.1-0.2c0-0.2,0-0.3,0-0.5c0-0.1,0-0.3,0.1-0.4c0-0.1,0.1-0.2,0.2-0.3
			c0.1-0.1,0.1-0.2,0.2-0.3c0.1-0.1,0.3-0.2,0.5-0.1c0.1,0,0.2,0,0.2,0.1c0.1,0,0.2,0,0.2,0.1c0.1,0,0.1-0.2,0.2-0.2
			c0.1-0.2,0.2-0.3,0.4-0.4c0.4-0.1,0.7-0.2,1-0.3c0.3,0,0.6,0,0.8-0.1c0.2,0,0.4,0.1,0.7,0.1c0.1,0.1,0.2,0.1,0.3,0.2
			c0.1,0.1,0.1,0.2,0.2,0.2c0.3-0.2,0.7-0.3,1.1-0.2c0,0,0.1,0,0.1,0c0,0,0.1,0,0.1,0c0,0,0,0,0,0c0,0,0.1,0,0.1,0c0,0,0,0,0,0
			c0,0,0,0,0.1,0c0.1,0.1,0.1,0.1,0.2,0.2c0,0.1,0,0.1,0.1,0.1l0.1,0.2c0,0.2,0,0.1,0,0.4C21.4,15.7,21.4,15.7,21.4,15.8"/>
</g>
</svg>
