<?xml version="1.0" encoding="utf-8"?>
<!-- Generator: Adobe Illustrator 19.1.0, SVG Export Plug-In . SVG Version: 6.00 Build 0)  -->
<svg version="1.1" id="Layer_1" xmlns="http://www.w3.org/2000/svg" xmlns:xlink="http://www.w3.org/1999/xlink" x="0px" y="0px"
	 width="48.7px" height="42.8px" viewBox="0 0 48.7 42.8" enable-background="new 0 0 48.7 42.8" xml:space="preserve">
<g>
		<path  style="fill:#527296;" fill-rule="evenodd" clip-rule="evenodd" d="M0.1,28l0.2,0.1c0.1,0.1,1,0.2,1.2,0.2
			c0.1,0,0.5,0.2,0.9,0.1c0.2,0,1.4-0.3,1.5-0.3c0.3,0.1,1-0.3,1.2-0.3c0.3-0.1,0.4-0.2,0.6-0.3c0.3-0.2,0.6-0.4,0.6-0.4
			s0.9-0.3,1.2-0.5c0.1-0.1,0.4-0.3,0.5-0.4c0.1-0.1,0.4-0.4,0.6-0.6c0.2-0.2,0.6-0.4,0.8-0.6c0.1-0.1,0.4-0.5,0.5-0.6
			c0.5-0.3,0.6-0.5,0.6-0.5l0.3-0.2c0.2-0.1,0.3-0.1,0.4,0l0.1,0.1c0,0.1,0.1,0.1,0.2,0.2c0.1,0.7,0,1,0,1.8c-0.1,0.5-0.2,1-0.4,1.6
			c0,0.1,0,0.1-0.1,0.2c0,0.1,0,0.1,0,0.2c0,0.1-0.2,0.2-0.2,0.3c-0.1,0.2-0.3,0.4-0.4,0.6c-0.1,0.1-0.2,0.2-0.2,0.2
			c-0.1,0.1-0.1,0.2-0.2,0.2c-0.1,0.2-0.3,0.3-0.5,0.5c-0.2,0.1-0.3,0.3-0.5,0.5c-0.1,0.2-0.3,0.3-0.5,0.5c0,0.1-0.1,0.3-0.1,0.4
			c0,0.5-0.1,1-0.1,1.5c0,0.3,0,0.5,0,0.8c0,0.2-0.1,0.5-0.1,0.7c-0.1,0.2-0.1,0.4-0.1,0.7c0,0.2-0.1,0.4-0.2,0.7c0,0.1,0,0.3,0,0.4
			c0.1,0.2,0.2,0.3,0.2,0.5c0.1,0.2,0.1,0.4,0.2,0.6c0,0.1,0.1,0.2,0.1,0.3c0,0.1,0.1,0.2,0.2,0.3c0.2,0.2,0.2,0.2,0.8,0.2
			c0.7,0,1.7,0,2.3-0.1c0.2,0,0.6,0.1,0.7-0.2c0.2-0.2-0.1-0.5-0.2-0.8c-0.1,0-0.1-0.1-0.2-0.2c-0.2-0.2-0.3-0.3-0.4-0.4
			c-0.2-0.1-0.4-0.1-0.6-0.2c0,0-0.1-0.1-0.1-0.1c0,0-0.1-0.1-0.1-0.1c-0.1-0.1-0.1-0.2-0.2-0.2c0-0.2-0.1-0.4-0.1-0.6
			c0-0.4,0-0.6,0.1-1c0-0.4,0.1-0.7,0.1-1.1c0.2-0.4,0.4-0.8,0.6-1.2c0.1,0,0.1-0.1,0.2-0.2c0.6-0.3,1.2-0.7,1.7-1.1
			c0.2-0.1,0.4-0.1,0.7-0.3c0.2-0.1,0.4-0.2,0.6-0.3c0.1-0.1,0.3-0.2,0.5-0.3c0.2-0.1,0.3-0.1,0.5-0.2c0.2-0.1,0.4-0.3,0.6-0.4
			c0.1-0.1,0.2-0.2,0.3-0.4c0.1-0.2,0.2-0.2,0.4-0.4c0.3-0.3,0.6-0.6,0.9-0.9c0.1-0.1,0.1-0.2,0.1-0.2c0.1-0.1,0.2-0.2,0.3-0.4
			c0.3-0.2,0.4-0.4,0.7-0.7c0.1-0.1,0.2-0.2,0.4-0.3l0.1-0.1c0.1-0.1,0.2-0.1,0.3-0.1c0.2,0,0.3,0,0.5,0c0.1,0,0.3,0.1,0.4,0.2
			c0.1,0,0.2,0,0.3,0c0,0,0.1,0,0.1,0.1c0.2,0,0.5,0,0.7,0c0.4-0.1,0.7,0,1.2,0c0.4,0.1,0.7,0.2,1,0.4c0.3,0.1,0.5,0.2,0.9,0.3
			c0.2,0,0.3,0.1,0.5,0.1c0.2,0.1,0.3,0,0.4,0.1c0.2,0,0.3,0,0.5,0.1c0.3,0.1,0.5,0.2,0.9,0.2c0.2,0.1,0.4,0.2,0.7,0.2
			c0.2,0.1,0.4,0.2,0.6,0.3c0.1,0.1,0.1,0.3,0.3,0.3c0.6,0.1,1.2,0.3,1.8,0.2c0.3,0,0.5,0.2,0.7,0.3c0.1,0.2,0.3,0.2,0.3,0.5
			c0.2,0.2,0.4,0.4,0.6,0.6c0.2,0.3,0.1,0.6,0.2,1.2l-0.1,0.5c0.2,0.5,0.1,1.1,0.2,1.6c0.2,0.4,0.5,0.6,0.6,1c0,0,0,0.1,0.1,0.1
			c0.1,0.5,0.2,1,0.2,1.5c0.1,0.1,0.2,0.2,0.3,0.3c0.1,0.1,0.2,0.2,0.3,0.3c0,0.2,0.2,0.2,0.2,0.4c0.1,0.1,0.1,0.2,0.1,0.3
			c0.1,0.1,0.1,0.3,0.1,0.4c0.1,0.1,0.1,0.3,0.2,0.4c0.1,0.1,0.2,0.1,0.3,0.2c0.2,0,0.4,0,0.6,0c0.2,0,0.3,0,0.5,0
			c0.2,0,0.3,0,0.5,0c0.3,0,0.7,0,1,0c0.1,0,0.2,0,0.4,0c0,0,0.1,0,0.1,0c0.1-0.1,0-0.3,0-0.5c-0.1-0.3-0.3-0.6-0.5-0.8
			C37,36.1,37,36.1,37,36c-0.3-0.1-0.4-0.2-0.7-0.3c-0.1-0.2-0.3-0.3-0.4-0.5c-0.1-0.3,0-0.8-0.1-1.2c-0.1-0.4-0.2-0.8-0.1-1.3
			c0,0,0-0.1,0-0.1c0.1-0.3,0.2-0.8,0.3-1.1c0.1-0.3,0.1-0.6,0.1-0.9c0-0.1,0-0.3,0-0.4c0-0.1,0.1-0.2,0.1-0.3
			c0.1-0.6,0.3-1.2,0.4-1.7c0.1-0.3,0.5-0.5,0.7-0.7c0.2-0.4,0.4-0.7,0.6-1.1c0.1-0.1,0.1-0.1,0.2-0.2c0.4-0.3,0.4-0.5,0.8-0.8
			c0.2-0.2,0.4-0.6,0.4-0.9c0-0.3,0-0.4,0.1-0.7c0-0.3,0.1-0.3,0.1-0.7c0.1-0.5,0.1-0.8,0.2-1.2c0-0.3,0.2-0.5,0.3-0.7
			c0.1-0.2,0.2-0.4,0.3-0.6c0.1-0.2,0.2-0.4,0.4-0.6c0.1-0.2,0.3-0.4,0.3-0.6c0.1-0.1,0.2-0.3,0.4-0.4c0.1-0.2,0.2-0.3,0.3-0.4
			c0.1-0.4,0.3-0.7,0.4-1.1c0.1-0.1,0.2-0.3,0.4-0.4c0.1-0.1,0.5-0.3,0.9-0.3c0.8,0,1,0.1,1.7-0.1c0.1,0,0.2,0,0.4,0
			c0.3-0.1,0.6-0.1,0.8-0.2c0.4-0.1,0.5-0.2,0.8-0.3c0-0.1,0.1-0.1,0.2-0.1c0.1-0.2,0.4-0.3,0.5-0.5c0.1-0.2,0.3-0.4,0.3-0.6
			c0.1-0.1,0.2-0.2,0.3-0.3c0.2-0.3,0.3-0.5,0.3-0.7c-0.1-0.1-0.2-0.2-0.3-0.2c-0.2-0.1-0.3-0.2-0.5-0.2c-0.3-0.1-0.5-0.2-0.8-0.3
			c-0.4-0.2-0.7-0.3-0.9-0.4c-0.1-0.1-0.3-0.1-0.5-0.2c-0.2,0-0.3-0.1-0.5-0.2c-0.1-0.1-0.2-0.2-0.3-0.2c-0.3-0.4-0.6-0.9-0.9-1.1
			c-0.2-0.1-1.7-0.5-2.8-0.5c-0.5,0-1,0.1-1.5,0.1c-0.5,0.1-0.7,0.1-1.1,0.3c0,0-0.1,0.1-0.2,0.1c-0.2,0.1-0.3,0.3-0.5,0.4
			c-0.1,0.2-0.3,0.3-0.4,0.5c-0.1,0.2-0.3,0.3-0.4,0.5c-0.1,0.2-0.3,0.3-0.4,0.4c-0.3,0.3-0.6,0.6-0.8,0.9c-0.2,0.1-0.2,0.3-0.4,0.4
			c0,0.1-0.1,0.1-0.1,0.1c0,0.1-0.1,0.1-0.2,0.2c-0.1,0.1-0.1,0.1-0.1,0.2c-0.2,0.2-0.5,0.4-0.7,0.6c-0.1,0-0.1,0.1-0.2,0.1
			c-0.1,0.1-0.2,0.1-0.3,0.2c-0.1,0.1-0.2,0.1-0.3,0.2c-0.5,0.2-0.8,0.4-1.3,0.5c-0.2,0-0.2,0.1-0.4,0.1c-0.2,0-0.2,0.1-0.4,0.1
			c-0.1,0-0.3,0.1-0.4,0.1c-0.4,0.1-0.8,0.2-1.1,0.3c-0.5,0-1.1,0-1.4,0c-0.5,0-0.9,0-1.4,0c-0.4,0-0.9,0-1.3-0.1
			c-0.5-0.1-0.9,0-1.3-0.1c-0.6,0.1-0.8-0.1-1.4-0.1c-0.2-0.1-0.6-0.1-0.8-0.2c-0.3-0.1-0.6-0.1-0.8-0.2c-0.1,0-0.2,0-0.4,0
			c-0.7-0.1-1.6-0.2-2.4-0.2C18.1,16,17,16,16.4,16.2c-0.3,0-0.5,0.2-0.7,0.1c-0.2,0.1-0.4,0.1-0.6,0.1c-0.2,0.1-0.6,0.2-0.8,0.2
			c-0.1,0.1-0.6,0.3-0.8,0.4C13,17.3,12,18,11.7,18.3L10.9,19c0,0-0.4,0.8-1.1,1.3c-0.1,0.1-0.7,0.9-0.8,1c-0.1,0.1-0.4,0.3-0.7,0.7
			C7.9,22.6,7.4,23,7.4,23s-0.7,0.7-1.2,1.2c-0.4,0.5-1.6,1.2-1.9,1.4c-0.3,0.2-1.6,0.9-1.9,0.9c-0.2,0-1.2,0.4-2,0.7
			C0,27.4-0.1,27.7,0.1,28"/>
</g>
</svg>
