<?xml version="1.0" encoding="utf-8"?>
<!-- Generator: Adobe Illustrator 19.1.0, SVG Export Plug-In . SVG Version: 6.00 Build 0)  -->
<svg version="1.1" id="Layer_1" xmlns="http://www.w3.org/2000/svg" xmlns:xlink="http://www.w3.org/1999/xlink" x="0px" y="0px"
	 width="56.4px" height="43.5px" viewBox="0 0 56.4 43.5" enable-background="new 0 0 56.4 43.5" xml:space="preserve">
<g>
		<path  fill-rule="evenodd" style="fill:#527296;" clip-rule="evenodd" d="M35.1,30.7c-0.1,0.1-0.4,1-0.5,1.1
			c0,0.1-0.1,0.1-0.1,0.2c0,0-0.1,0.1-0.1,0.1c0,0-0.1,0.1-0.1,0.1c0,0-0.1,0-0.1,0.1c0,0,0,0,0,0c-0.1,0-0.1,0-0.2,0.1
			c-0.5,0.1-0.7,0.4-1.1,0.6c-0.2,0.1-0.4,0.2-0.6,0.3c-0.2,0.1-0.4,0.2-0.6,0.2c-0.3,0.2-0.7,0.4-1.2,0.4c-0.2,0-0.4-0.1-0.5-0.1
			c-0.1,0-0.2,0.1-0.3,0.1c-0.1,0.1-0.2,0.1-0.3,0.1c-0.2,0,0-0.3-0.2-0.3c-0.1,0-0.2,0.1-0.3,0.1c-0.1,0.1-0.2,0.1-0.3,0.1
			c-0.1,0-0.1,0-0.2-0.1c0,0,0-0.2-0.1-0.1c-0.2,0-0.3,0.1-0.4,0.2c-0.1,0.1-0.3,0.1-0.4,0.1c-0.1-0.2,0.1-0.3,0.1-0.4
			c-0.1,0-0.2,0-0.2,0.1c-0.1,0-0.2,0-0.3,0c0-0.2,0.2-0.3,0.4-0.4c0.2-0.1,0.4-0.2,0.6-0.3c0.3-0.2,0.7-0.4,1-0.6c0,0,0,0,0,0
			c0.4,0,0.7-0.1,1.1-0.2c0.1,0,0.1-0.1,0.2-0.1c0.1,0,0.1,0,0.3-0.1c0.2,0,0.4,0,0.6-0.1c0,0,0.1,0,0.1,0c0.2,0,0.5-0.9,0.5-0.9
			c0-0.1,0-0.1,0-0.1c-0.1-0.1-0.1-0.2-0.2-0.3c-0.2-0.4-0.3-0.5-0.7-0.8c0,0-0.1-0.1-0.2-0.1c0,0-0.1-0.1-0.1-0.1
			c0,0-0.1-0.1-0.1-0.1c0-0.1-0.1-0.1-0.1-0.1c-0.4,0-1,0-1,0c-0.1,0-0.2,0.1-0.4,0.1c0,0-0.1,0,0,0.1c-0.1,0-0.1,0.2-0.1,0.3
			c-0.1,0.1,0,0.2-0.1,0.3c-0.1,0.1-0.2,0.3-0.3,0.4c-0.1,0.1-0.2,0.1-0.3,0.1c0,0-0.1,0.1-0.1,0.1l-0.1,0.1c0,0,0,0,0,0.1
			c0,0.1-0.1,0.1-0.2,0.1c0,0,0,0-0.1,0c-0.1,0.1-0.3,0.1-0.4,0.1c0,0-0.1,0.1-0.1,0.1c-0.1,0.1-0.1,0.1-0.2,0.2c0,0.1,0,0.2,0,0.3
			c0,0.2,0,0.1-0.1,0.3c0,0,0,0,0,0.1c-0.1,0.1-0.2,0.1-0.3,0.2c-0.1,0-0.1,0.1-0.2,0.1c-0.1,0.1-0.6,1.1-0.6,1.2
			C26,33.4,26,33.5,26,33.8c-0.1,0.1-0.2,0.4-0.3,0.5c-0.1,0.2-0.2,0.3-0.4,0.5c-0.2,0.1-0.3,0.2-0.5,0.4c-0.2,0.1-0.3,0.1-0.5,0.2
			c-0.1,0-0.1,0-0.2,0.1c-0.1,0-0.1,0.1-0.1,0.1c-0.1,0.1-0.2,0.1-0.3,0.1c-0.1,0-0.1,0.1-0.1,0.1c-0.1,0-0.1,0.1-0.2,0.1
			c-0.1,0-0.1,0-0.2,0.1c-0.1,0-0.1,0-0.1,0c-0.1,0-0.2,0-0.3,0c-0.1,0-0.2-0.1-0.2-0.1c0-0.1-0.1-0.2-0.2-0.2
			c-0.2,0.1-0.3,0.1-0.4,0.2c-0.2,0-0.3,0.2-0.5,0.2c-0.1-0.1-0.2-0.1-0.2-0.2c0-0.1,0.1-0.2,0-0.3c-0.2,0-0.3,0.1-0.5,0.2
			c-0.1,0.1-0.3,0.2-0.4,0.1c-0.1-0.2,0.1-0.3,0.2-0.4c0.1-0.1,0.4-0.2,0.4-0.3c-0.1,0-0.4,0-0.4-0.2c0.1-0.3,0.4-0.4,0.7-0.5
			c0.1-0.1,0.2-0.2,0.4-0.2c0.2-0.1,0.3-0.1,0.5-0.1c0.2-0.1,0.3-0.1,0.5-0.2c0.1-0.1,0.2-0.2,0.4-0.2c0.1-0.1,0.3-0.1,0.3-0.3
			c0.1-0.1,0.2-0.2,0.2-0.3c0,0,0,0,0-0.1c0-0.2,0.4-1.4,0.3-1.6c-0.1-0.2-0.2-0.3-0.2-0.5c0,0,0,0,0,0c0-0.3-0.1-0.3-0.1-0.4l0-0.2
			c0-0.2-0.1-0.3-0.1-0.5c-0.2-0.3-0.4-0.5-0.6-0.8c-0.1-0.1-0.1-0.1-0.2-0.2c0-0.1-0.1-0.1-0.2-0.2c-0.1-0.1-0.2-0.1-0.3-0.2
			l-0.4-0.2l-0.4-0.3c0,0-0.2-0.1-0.3-0.2c-0.1,0-0.2,0.1-0.2,0.1c0,0.1,0,0.1,0,0.1c0,0.1,0,0.2,0,0.2l0.1,0.1l0.2,0.2l0,0.1
			c0,0-0.1,0.1-0.1,0.1c0,0.2-0.2,0.4-0.3,0.4c-0.1,0.1-0.2,0.2-0.2,0.3c-0.1,0.1-0.2,0.2-0.3,0.3c-0.1,0.1-0.3,0.2-0.4,0.3
			c-0.1,0.1-0.3,0.2-0.3,0.4c-0.1,0.1-0.2,0.3-0.3,0.4c-0.1,0.1-0.2,0.3-0.3,0.4c-0.2,0.3-0.4,0.4-0.8,0.6c0,0.1-0.1,0.1-0.2,0.2
			c-0.1,0-0.2,0.1-0.2,0.1c-0.1,0.1-0.6,1.2-0.7,1.3c-0.1,0.1-0.2,0.3-0.3,0.4c0,0.1-0.1,0.1-0.1,0.2c0,0.1-0.1,0.1-0.1,0.2
			c-0.2,0.2-0.4,0.5-0.5,0.8c-0.1,0.1-0.2,0.2-0.3,0.2c-0.1,0.1-0.2,0.1-0.4,0.2c-0.2,0.1-0.5,0.3-0.7,0.4c-0.2,0.1-0.5,0.1-0.8,0.1
			c-0.3,0-0.6-0.1-0.9,0c-0.1,0-0.2,0.1-0.2,0.1c0,0-0.1,0-0.1,0c0,0-0.1,0-0.1,0c0,0,0,0,0,0c-0.1,0.1-0.2,0.1-0.4,0
			c-0.2-0.1,0.1-0.3-0.1-0.4c-0.5,0-0.8,0.4-1.3,0.2c-0.2-0.1,0.1-0.2,0-0.4c-0.2,0-0.3,0-0.4,0.1c-0.1,0-0.3,0-0.3-0.1
			c0-0.2,0.1-0.3,0.2-0.4c0.1-0.1,0.2-0.2,0.3-0.3c0.1-0.3,0.5-0.4,0.9-0.5c0.2-0.1,0.3-0.1,0.5-0.2c0.6-0.2,1.2-0.1,1.7-0.3
			c0.1-0.1,0.2-0.1,0.2-0.2c0.2-0.2,0.6-1.5,0.8-1.7c0-0.1,0.1-0.2,0.1-0.3c0,0,0,0,0,0c0,0,0-0.1,0-0.1c0.1-0.2,0.1-0.3,0.2-0.5
			c0.1-0.3,0.2-0.5,0.2-0.8c0.1-0.3,0.2-0.6,0.2-0.9c0.1-0.3,0.1-0.6,0.2-0.9c0.2-0.6,0.1-1.4-0.2-1.9c0-0.1-0.1-0.3-0.2-0.4
			c0-0.1,0-0.1-0.1-0.2c0-0.1-0.1-0.1-0.1-0.2c-0.1-0.1-0.1-0.1-0.2-0.1c-0.1-0.1-0.4-0.1-0.5-0.2c0,0,0,0-0.1,0
			c-0.2,0.1-0.4,0.1-0.6,0.1c-0.1,0-0.1,0.1-0.2,0.2c-0.1,0.1-0.1,0.1-0.2,0.1c0,0,0,0,0,0c-0.1,0-0.5,0-0.7-0.1
			c-0.2,0-0.5,0-0.7-0.1c0,0,0,0,0,0c-0.2,0-0.2,0.3-0.4,0.3c-0.2-0.1-0.6,0-0.7-0.1c-0.3,0-0.4-0.1-0.6-0.1c0,0.1,0.1,0.2,0.2,0.3
			c0,0.1,0.2,0.2,0.2,0.3c0.2,0.2,0.3,0.4,0.4,0.6c0.1,0.1,0.2,0.2,0.2,0.3c0,0,0,0.1,0.1,0.1c0,0,0.1,0.1,0.1,0.1
			c0.1,0.1,0.1,0.2,0.2,0.3c0.1,0.1,0.2,0.2,0.1,0.3c0,0-0.1,0-0.1,0c-0.2,0-0.3-0.1-0.3-0.2c-0.1-0.1-0.1-0.2-0.2-0.3
			c-0.1-0.1-0.2-0.2-0.2-0.3c-0.1,0-0.1-0.1-0.1-0.1c0-0.1-0.1-0.1-0.1-0.2c-0.2-0.2-0.3-0.4-0.5-0.6c0-0.1-0.2-0.2-0.3-0.3
			c-0.1,0-0.1-0.1-0.2-0.1c0-0.1-0.1,0-0.2-0.1c0,0,0,0,0,0c-0.2,0-0.2,0-0.3,0.1c-0.1,0-0.2,0-0.3,0.1c0.1,0.2,0.1,0.4,0.1,0.6
			c0.1,0.4,0.1,0.8,0.2,1.2c0,0.1,0,0.2,0,0.3c0,0.1,0,0.2-0.1,0.2c0,0,0,0,0,0c-0.1,0-0.1-0.1-0.2-0.2c-0.1-0.3-0.1-0.7-0.2-0.9
			c-0.1-0.2-0.1-0.4-0.1-0.6c-0.1-0.1-0.1-0.4-0.3-0.5c-0.1-0.1-0.2,0-0.4,0c-0.2,0-0.3,0-0.4,0c-0.1,0.1,0,0.4,0,0.5
			c0,0.2,0,0.4,0.1,0.5c0.1,0.2,0,0.6,0.1,0.8c0,0.1,0,0.2-0.1,0.2c0,0,0,0,0,0c-0.1,0-0.2,0-0.2,0c0,0,0,0,0,0c0,0-0.1,0-0.1,0
			c0-0.1,0-0.2,0-0.3c0-0.2-0.1-0.4-0.1-0.6c0-0.2-0.1-0.4-0.1-0.5c0-0.1-0.1-0.2-0.1-0.3c-0.1-0.1-0.1-0.2-0.2-0.2c0,0,0,0-0.1,0
			c-0.1,0-0.2,0-0.3,0c-0.3-0.1-0.6,0-0.9-0.1C5,26,4.9,26,4.8,26c-0.1-0.1-0.3-0.1-0.4-0.2c-0.1-0.1-0.3-0.1-0.3-0.3c0,0,0,0,0,0
			c0-0.2,0.2-0.3,0.3-0.4c0.1-0.1,0.1-0.1,0.2-0.2c0.1-0.1,0.2-0.1,0.2-0.2c0-0.1-0.1-0.1-0.1-0.2c-0.1,0-0.1-0.1-0.2-0.2
			c-0.1-0.1-0.1-0.1-0.2-0.2c-0.1,0-0.1-0.1-0.2-0.1c-0.1-0.1-0.3-0.2-0.4-0.3c-0.1-0.1-0.3-0.2-0.3-0.4c0,0,0,0,0,0
			c0.2-0.1,0.4,0.1,0.5,0.1c0.1,0.1,0.3,0.2,0.4,0.3c0.1,0.1,0.2,0.2,0.4,0.3C4.9,23.9,4.9,24,5,24c0,0,0.1,0.1,0.2,0.1
			c0.1,0,0.1-0.1,0.2-0.1c0-0.1,0.1-0.1,0.2-0.2c0.1-0.1,0.2-0.2,0.2-0.4c0-0.1-0.1-0.1-0.1-0.2c-0.1,0-0.1-0.1-0.2-0.2
			c0-0.1-0.1-0.1-0.2-0.1c-0.1-0.1-0.2-0.1-0.2-0.2c-0.2-0.1-0.3-0.2-0.4-0.3c-0.1-0.1-0.4-0.1-0.3-0.3c0.1-0.1,0.1-0.1,0.2-0.1
			c0.1,0,0.2,0.1,0.3,0.1c0.2,0.1,0.3,0.2,0.4,0.3c0.1,0.1,0.3,0.2,0.5,0.3c0.2,0.1,0.2,0.3,0.5,0.3c0.1,0,0.1-0.2,0.2-0.3
			c0.1-0.1,0.1-0.3,0.1-0.4c-0.1-0.3-0.1-0.6-0.1-0.9c0-0.3,0.1-0.6,0.2-0.8c0.1-0.2,0.2-0.4,0.4-0.6c0-0.1,0.1-0.1,0.1-0.2
			c0,0,0.1-0.1,0.1-0.2c0.1-0.1,0.1-0.2,0.2-0.3c0-0.1,0-0.2,0-0.2C7.3,19,7.1,18.9,7,18.6c-0.1-0.1-0.1-0.2-0.2-0.3
			c0-0.1-0.1-0.2-0.2-0.4c-0.1-0.4-0.2-0.9-0.1-1.3c0-0.1,0.1-0.3,0.2-0.3c0,0,0.1,0,0.1,0c0.1,0,0.2,0.1,0.3,0.1
			c0.1,0,0.2,0.1,0.3,0.2c0.1,0.1,0.2,0.1,0.2,0.2C7.7,17,7.8,17,7.9,17.1c0.1,0,0.2,0.1,0.3,0.1c0,0,0.1,0.1,0.1,0.1v-0.1
			c-0.1-0.4,0-0.9,0.1-1.3c0.1-0.1,0.1-0.3,0.2-0.2c0,0,0.1,0,0.1,0c0.1,0,0.2,0.1,0.3,0.2C9.2,15.9,9.2,16,9.3,16
			c0.1,0.1,0.1,0.1,0.2,0.2c0.1,0.1,0.2,0.1,0.3,0.2c0.1,0,0.2,0.1,0.3,0.2c0.1,0.1,0.2,0.1,0.2,0.2c0,0,0,0,0.1,0c0,0,0,0,0,0
			c0,0,0.1,0,0.1,0c0,0,0,0.1,0.1,0.1c0,0,0.1,0,0.1,0.1c0,0,0.1,0,0.1,0l0.1,0l0.2,0c0,0,0.1,0,0.1,0c0.2,0,0.4,0,0.7,0
			c0.3-0.1,0.5-0.2,0.8-0.2c0.2,0,0.5,0,0.7,0c0.2,0,0.5,0,0.7,0c0.1,0,0.3,0.2,0.5,0.2c0.1,0,0.2,0.1,0.3,0.1c0.1,0,0.1,0,0.1,0
			c0.1,0,0.1,0.1,0.2,0.1c0.1,0,0.2,0,0.3,0c0,0,0.1,0,0.1,0.1c0.1,0,0.1,0,0.1,0c0,0,0.2,0,0.3,0c0.1,0,0.2,0,0.3,0
			c0.1,0,0.2,0,0.3,0c0.1,0,0.2,0,0.3-0.1c0,0,0,0,0-0.1c0,0,0.1,0,0.1,0c0,0,0.1-0.1,0.1-0.1c0.1,0,0.1,0,0.2,0
			c0.1,0,0.1-0.1,0.2-0.1c0.1,0,0.2,0,0.3,0c0,0,0.1,0,0.1,0c0,0,0.1,0,0.2,0c0.1,0,0.1-0.1,0.2-0.1c0.1,0,0.1-0.1,0.2-0.1
			c0.1,0,0.1-0.1,0.2-0.1c0.1-0.1,0.3-0.1,0.4-0.2c0,0,0.1,0,0.1,0c0.1,0,0.1,0,0.2,0c0.1,0,0.3-0.1,0.3-0.2c0.1-0.1,0-0.1,0.1-0.1
			c0,0,0.1,0,0.2,0c0.1,0,0.2-0.1,0.3-0.1c0.1,0,0.2,0,0.2,0c0.1,0,0.2,0,0.3-0.1c0.2,0,0.4-0.1,0.6-0.2c0.1,0,0.2-0.1,0.2-0.1
			c0,0,0.1,0,0.2,0c0.1,0,0.1,0,0.2,0c0,0,0.1,0,0.1,0c0,0,0.1,0,0.1,0c0.1,0,0.1,0,0.2,0c0.1,0,0.1-0.1,0.1-0.1
			c0.1,0,0.2,0,0.2-0.1c0,0,0.1,0,0.2-0.1c0.1,0,0.1-0.1,0.1-0.1c0,0,0,0,0.1,0c0.1,0,0.1-0.1,0.1-0.1c0,0,0.2-0.1,0.2-0.1
			c0.1,0,0.2,0,0.3-0.1c0,0,0.1,0,0.1,0c0.1,0,0.3,0,0.3,0c0.1,0,0,0,0.1,0c0.1,0,0.1,0,0.2,0c0,0,0.1,0,0.1,0c0.1,0,0.1,0,0.2,0
			c0,0,0,0,0.1-0.1c0.1,0,0.1-0.1,0.2-0.1c0.1,0,0.1-0.1,0.2-0.1c0.1,0,0.2,0,0.2-0.1c0.1,0,0.2-0.1,0.2-0.1c0.1,0,0.2,0,0.3,0l0,0
			c0.1,0,0.2,0,0.3,0c0.2,0,0.4,0.1,0.6,0c0.2,0,0.3-0.1,0.5-0.1c0.3-0.1,0.6-0.2,0.9-0.3c0.2,0,0.4,0,0.7,0c0.1,0,0.2-0.1,0.3-0.1
			c0.4,0,0.8,0,1.2,0c0.3,0,0.5-0.1,0.7,0c0.1,0,0.2,0,0.3,0.1c0.2,0,0.5,0.1,0.7,0.1c0.4,0,1,0.1,1.4,0.2c0.3,0.2,0.9,0.1,1.3,0.2
			c0.2,0,0.3,0.1,0.4,0.1c0.2,0.1,0.4,0.3,0.7,0.4c0.4,0.1,0.8,0.3,1.2,0.4c0.1,0,0.2,0.1,0.3,0.1c0.1,0.1,0.2,0.1,0.3,0.1
			c0.2,0.1,0.4,0.1,0.6,0.2c0,0,0.1,0.1,0.1,0.1c0.1,0.1,0.2,0.2,0.2,0.3c0,0,0,0,0,0c0.1,0.1,0.1,0.1,0.2,0.2
			c0.2,0.1,0.4,0.2,0.7,0.3c0.1,0.1,0.2,0.1,0.2,0.3c0.2,0.3,0.6,0.4,0.8,0.6c0,0.1,0.1,0.1,0.1,0.1c0.1,0,0.1,0.1,0.1,0.1
			c0.1,0.1,0.2,0.2,0.2,0.2c0,0,0.1,0.1,0.1,0.1c0,0,0.1,0.1,0.1,0.1c0.1,0.1,0.1,0.2,0.2,0.3c0.1,0.2,0.2,0.4,0.3,0.6
			c0.1,0.1,0.1,0.2,0.2,0.2c0.1,0.1,0.1,0.2,0.2,0.3c0.1,0.2,0.3,0.4,0.4,0.5c0.1,0.2,0.2,0.4,0.3,0.7c0.1,0.2,0.3,0.4,0.4,0.6
			c0.1,0.1,0.1,0.2,0.2,0.3c0.1,0.1,0.1,0.3,0.1,0.5c0,0.1,0,0.1,0,0.2c0,0.1,0.1,0.1,0.1,0.1c0,0,0.1,0.1,0.1,0.2
			c0,0.1,0,0.2,0.1,0.2c0.1,0.1,0.1,0.1,0.2,0.1c0,0,0.1,0.1,0.1,0.2c0,0.1,0.1,0.1,0.1,0.2c0,0.1,0,0.2,0.1,0.2
			c0,0.1,0.1,0.1,0.1,0.1c0.1,0.1,0.1,0.3,0.2,0.4c0,0.1,0.1,0.1,0.1,0.2c0,0,0,0,0,0.1c0.1,0.1,0.1,0.1,0.2,0.2
			c0.1,0.1,0.1,0.1,0.1,0.3c0,0,0.2,0.1,0.2,0.2c0,0,0.1,0.1,0.1,0.1c0,0.1,0.1,0.1,0.1,0.2c0,0.1,0.1,0.2,0.1,0.3
			c0,0.1,0,0.1,0.1,0.2c0.1,0,0.1,0.1,0.2,0.1c0.1,0.1,0,0.2,0.1,0.2c0,0,0,0,0.1,0c0,0,0,0.1,0,0.1c0.1,0.1,0.2,0.1,0.2,0.2
			c0,0.1,0.1,0.1,0.1,0.2c0,0.1,0.1,0.1,0.2,0.1c0,0,0.1,0.1,0.1,0.1c0.1,0.1,0.1,0.1,0.2,0.2c0.1,0.1,0.1,0.3,0.2,0.3
			c0,0,0.1,0.1,0.1,0.1c0.1,0.1,0.3,0.1,0.3,0.2c0,0,0,0,0,0c0,0,0,0,0.1,0.1c0,0,0.1,0.1,0.1,0.1c0.1,0.1,0.2,0.2,0.2,0.3
			c0.1,0,0.1,0.1,0.1,0.2c0.1,0.1,0,0.1,0,0.1c0.1,0,0.2,0.1,0.2,0.1c0.1,0,0.1,0.1,0.2,0.2c0,0,0.1,0.1,0.2,0.1
			c0,0.1,0.1,0.1,0.1,0.2c0.1,0.1,0.2,0.2,0.3,0.3c0.1,0.1,0.1,0.2,0.2,0.3c0,0.1,0.1,0.1,0.1,0.2c0,0,0.1,0.1,0.1,0.1
			c0,0.1,0.1,0.1,0.1,0.2c0,0.1,0,0.1,0.1,0.1c0,0,0,0.1,0.1,0.1c0,0,0,0.1,0.1,0.1c0,0.1,0.2,0.1,0.2,0.2c0,0,0.1,0.1,0.1,0.1
			c0,0,0.1,0.1,0.2,0.1c0,0,0,0,0,0.1c0,0,0,0,0,0c0,0,0,0.1,0.1,0.1c0,0,0,0.1,0,0.1c0,0.1,0.1,0.1,0.1,0.2c0.1,0.1,0,0.1,0,0.2
			c0,0,0,0.1,0,0.1c0,0,0,0.1,0,0.1c0.1,0.1,0.3,0.3,0.4,0.4c0.1,0.1,0.1,0.2,0.2,0.2c0,0.1,0.1,0.2,0.1,0.4c0,0.1,0.1,0.1,0,0.2
			c0,0,0,0.1,0,0.1c0,0,0,0.1,0,0.1c0,0,0,0.1,0,0.1c0,0.1,0.1,0.1,0.1,0.2c0.1,0.1,0.1,0.1,0.2,0.2c0,0.1,0.1,0.1,0.1,0.2
			c0,0,0,0.1,0.1,0.1c0,0,0,0.1,0.1,0.1c0,0,0,0.1,0,0.1c0,0,0,0,0,0.1c0,0.1,0,0.1,0,0.2c0,0,0,0.1,0.1,0.1c0,0,0,0,0,0
			c0,0,0,0,0,0.1c0,0,0,0.1,0.1,0.1c0,0,0,0.1,0.1,0.1c0,0,0,0,0,0.1c0.1,0.1,0.1,0.2,0.2,0.3c0,0.1,0,0.2,0.1,0.2
			c0,0.1,0.1,0.2,0,0.2c0,0.1,0,0.2,0,0.2c0,0.1,0,0.2,0,0.2c0,0,0,0.1,0,0.1c0,0,0,0,0,0c0,0,0,0,0,0c0,0,0,0.1,0,0.1c0,0,0,0,0,0
			c0,0,0,0,0,0c0,0,0,0,0,0c0,0,0,0,0,0c0,0,0,0,0,0c0,0,0,0,0,0.1c0,0,0,0.1,0,0.1c0,0.1,0,0.2,0,0.3c-0.1,0.2-0.2,0.3-0.2,0.4
			c0,0,0,0,0,0c0,0,0,0.1,0,0.1c0,0.1,0.1,0.2,0.1,0.3c0,0.1,0,0.2,0,0.3c0,0.3-0.2,0.4-0.2,0.6c0,0.1,0,0.1,0,0.2c0,0,0,0.1,0,0.1
			c0,0.1,0,0.2,0,0.3c0,0.2,0,0.4,0,0.6c-0.1,0.2-0.1,0.3-0.2,0.4c-0.1,0.1,0,0.2,0,0.3c0,0.1,0,0.1-0.1,0.2c0,0.1-0.1,0.1-0.1,0.2
			c0,0,0,0.1,0,0.1c0,0,0,0,0,0c0,0,0,0,0,0c0,0,0,0,0,0c0,0,0,0,0,0.1c-0.1,0.1-0.1,0.1-0.2,0.2c0,0.1-0.3,0.2-0.4,0.1
			c0-0.1-0.3,0-0.3-0.1c-0.1,0-0.1,0-0.1-0.1c0,0-0.1,0-0.1-0.1c-0.1,0-0.1-0.1-0.1-0.1c0,0-0.2-0.3-0.3-0.3c0,0-0.1-0.1-0.1-0.1
			c-0.1-0.1-0.1-0.2-0.2-0.2c-0.1-0.1-0.2,0-0.3-0.1c0,0-0.1-0.1-0.1-0.1c0-0.1,0-0.1-0.1-0.1c0-0.1-0.1-0.2-0.1-0.3
			c0,0-0.1,0-0.1-0.1c-0.1,0-0.2,0-0.2-0.1c-0.1,0-0.1-0.1-0.2-0.2c-0.1-0.1-0.1-0.1-0.2-0.2c-0.1,0-0.2,0-0.3-0.1
			c-0.1-0.1-0.2-0.1-0.2-0.1c0,0,0-0.1-0.1-0.1c-0.1-0.1-0.2,0-0.3-0.1c-0.1,0-0.1-0.2-0.2-0.2c-0.1-0.1-0.2,0-0.2-0.1
			c-0.1-0.2-0.4-0.3-0.5-0.5c-0.1-0.1-0.1-0.2-0.2-0.3c0,0,0-0.1-0.1-0.1c-0.1-0.1-0.1-0.1-0.2-0.1c-0.1,0-0.1-0.1-0.2-0.1
			c-0.1,0-0.1-0.1-0.2-0.1c-0.1-0.1-0.2-0.1-0.3-0.2c-0.1,0-0.1,0-0.2-0.1c0,0-0.1-0.1-0.1-0.1c-0.1-0.1-0.2-0.2-0.3-0.3
			c-0.1-0.1-0.1-0.1-0.2-0.2c-0.1-0.1-0.1-0.3-0.2-0.4c-0.1-0.2-0.2-0.5-0.4-0.6c-0.1-0.1-0.2-0.1-0.3-0.3c0-0.1,0,0,0,0
			c-0.1-0.1-0.2-0.1-0.2-0.2c-0.1-0.2-0.2-0.3-0.3-0.5c0,0,0-0.1-0.1-0.2c0,0-0.1-0.3-0.2-0.3c0-0.1,0-0.1-0.1-0.2
			c0-0.1-0.1-0.1-0.1-0.2c-0.1-0.2-0.1-0.4-0.2-0.5c0,0,0-0.1-0.1-0.1c0,0,0,0,0,0c0,0-0.1-0.1-0.1-0.1c-0.1-0.1-0.2-0.2-0.3-0.3
			c0-0.1-0.1-0.1-0.2-0.2c0-0.1-0.1-0.2-0.1-0.3c0,0,0-0.2-0.1-0.3c0-0.1-0.1-0.1-0.1-0.1c-0.1-0.1-0.2-0.1-0.2-0.2
			c-0.2-0.1-0.2-0.3-0.2-0.4c-0.1-0.2-0.3-0.2-0.4-0.4c0-0.1-0.1-0.1-0.1-0.2c0-0.1,0-0.2-0.1-0.2c-0.1-0.1,0-0.1-0.1-0.2
			c0,0-0.1-0.1-0.1-0.1c0,0-0.1,0-0.1,0c0,0,0,0-0.1-0.1c0,0-0.1,0.1-0.1,0.1l-0.4,0.4L40,31l-0.2,0.4c0,0.2,0.1,0.4,0,0.6
			c-0.1,0.1-0.5,1.2-0.5,1.3c0,0.1-0.1,0.1-0.1,0.2c0,0.1-0.1,0.1-0.1,0.1c0,0-0.1,0.1-0.1,0.1c-0.1,0-0.1,0.1-0.1,0.1
			c0,0,0,0-0.1,0.1c-0.1,0-0.1,0-0.2,0.1c-0.5,0.1-0.9,0.4-1.2,0.7c-0.2,0.1-0.4,0.2-0.7,0.3c-0.3,0.1-0.5,0.2-0.7,0.3
			c-0.4,0.2-0.8,0.5-1.5,0.5c-0.2,0-0.4-0.1-0.6-0.1c-0.1,0-0.2,0.1-0.3,0.1c-0.1,0.1-0.2,0.1-0.4,0.1c-0.2,0,0-0.3-0.2-0.3
			c-0.1,0-0.2,0.1-0.3,0.1c-0.1,0.1-0.2,0.1-0.4,0.1c-0.1,0-0.1,0-0.2-0.1c0-0.1,0-0.2-0.1-0.2c-0.2,0-0.3,0.1-0.4,0.2
			c-0.1,0.1-0.3,0.2-0.5,0.1c-0.1-0.2,0.2-0.3,0.1-0.5c-0.1,0-0.2,0-0.3,0.1c-0.1,0-0.2,0.1-0.3-0.1c-0.1-0.2,0.3-0.4,0.4-0.5
			c0.2-0.1,0.4-0.2,0.7-0.3c0.4-0.2,0.8-0.5,1.2-0.8c0,0,0,0,0.1,0c0.4,0,0.8-0.1,1.2-0.2c0.1,0,0.2-0.1,0.3-0.1
			c0.1,0,0.2-0.1,0.3-0.1c0.2,0,0.4-0.1,0.7-0.1c0,0,0.1,0,0.1,0c0.1-0.1,0.5-1.1,0.6-1.1c0-0.1,0-0.1,0-0.2
			c-0.1-0.1-0.2-0.2-0.2-0.3c-0.2-0.5-0.6-1-0.7-0.9"/>
</g>
</svg>
