<?xml version="1.0" encoding="utf-8"?>
<!-- Generator: Adobe Illustrator 19.1.0, SVG Export Plug-In . SVG Version: 6.00 Build 0)  -->
<svg version="1.1" id="Layer_1" xmlns="http://www.w3.org/2000/svg" xmlns:xlink="http://www.w3.org/1999/xlink" x="0px" y="0px"
	 width="42.4px" height="37.2px" viewBox="0 0 42.4 37.2" enable-background="new 0 0 42.4 37.2" xml:space="preserve">
<g>
		<path  fill-rule="evenodd" style="fill:#527296;" clip-rule="evenodd" d="M27.5,22c0,0.1-0.1,0.1-0.1,0.2c0,0.1,0,0.1,0,0.2
			c0,0,0.1,0.1,0.1,0.1c0,0,0.1,0.1,0.1,0.1l0.3,0.4c0.2,0.2,0.3,0.4,0.6,0.7c0.3,0.4,0.8,0.6,1.1,1c0.1,0.1,0.2,0.2,0.3,0.2
			c0.1,0.1,0.2,0.2,0.3,0.2c0.1,0.1,0.2,0.2,0.3,0.2c0.1,0.1,0.2,0.2,0.3,0.3c0.2,0.3,0.2,0.5,0.3,0.8c0,0.1,0.1,0.5,0.1,0.6
			c0,0.1,0.1,0.2,0.1,0.4c0,0.1,0,0.1,0,0.2c0.1,0.2,0.1,0.3,0.2,0.5c0.1,0.2,0.2,0.4,0.3,0.5c0.1,0.2,0.3,0.6,0.4,0.9
			c0,0.4-0.1,0.8-0.1,1.3c0,0,0,0,0,0c0.1,0.4,0.4,0.6,0.5,0.9c0.2,0.3,0.2,0.7,0.7,0.8c0.4,0.2,0.8,0,1.2,0.1
			c0.7,0,0.9,0.1,1.1-0.2c0-0.1,0-0.2,0-0.3c0,0,0-0.1,0-0.1c0-0.3-0.2-0.4-0.2-0.7c-0.1-0.1-0.2-0.3-0.3-0.4
			c-0.1-0.1-0.2-0.2-0.3-0.2c-0.1-0.1-0.2-0.1-0.3-0.2c-0.1-0.1-0.2-0.1-0.3-0.2c0-0.1-0.1-0.1-0.1-0.1c-0.1,0-0.1-0.1-0.1-0.1
			c0-0.1-0.1-0.2-0.2-0.3c0-0.1-0.1-0.1-0.1-0.2c0-0.3-0.2-0.6-0.2-1c-0.1-0.3,0-0.1-0.1-0.4c-0.1-0.4-0.1-0.6-0.2-1
			c0-0.1,0-0.4,0-0.5c0-0.3,0.1-0.5,0-0.9c0-0.1,0-0.2,0-0.4c0-0.1,0-0.3,0-0.4c0-0.1-0.1-0.3-0.1-0.4c0-0.3-0.2-0.5-0.2-0.8
			c-0.1-0.2-0.2-0.4-0.2-0.6c0-0.1,0-0.2-0.1-0.3c0.1-0.8,0.2-1.2,0-1.9c-0.1-0.3-0.1-0.7-0.2-1c0-0.4-0.1-0.7-0.3-0.9
			c-0.1-0.3-0.2-0.6-0.3-0.9c-0.2-0.3-0.3-0.5-0.4-0.8c-0.2-0.3-0.3-0.5-0.5-0.8c-0.1-0.1-0.2-0.2-0.3-0.4c0-0.1-0.1-0.1-0.1-0.2
			l-0.1-0.2c0.1-0.3,0.2-0.6,0.3-0.9c0-0.1,0-0.2,0-0.4c0-0.2-0.1-0.4-0.1-0.6c-0.1-0.1-0.2-0.2-0.4-0.3c-0.3-0.1-0.4,0.1-0.6,0.1
			c-0.1,0.1-0.3,0.1-0.5,0.2c-0.2,0.1-0.5-0.3-0.7-0.5c-0.1-0.1-0.2-0.2-0.4-0.2c-0.1-0.1-0.1-0.1-0.2-0.1c0-0.1-0.1-0.1-0.2-0.1
			c-0.2-0.1-0.4-0.2-0.6-0.2c-0.1,0-0.2,0-0.2-0.1c-0.1,0-0.3,0-0.4-0.1c-0.1,0-0.2-0.1-0.2-0.1c0,0-0.1,0-0.1,0
			c-0.1,0-0.2-0.1-0.4-0.1c-0.3-0.1-0.7-0.2-1-0.3c-0.3-0.1-0.6-0.2-0.9-0.3c-0.1,0-0.2,0-0.3,0c0,0-0.1,0-0.1,0
			c-0.1,0-0.1,0-0.2-0.1c-0.1,0-0.2,0-0.3,0c-0.2,0-0.4,0-0.6-0.1c-0.2,0-0.4,0-0.6,0c0,0-0.1,0-0.2-0.1c-0.1,0-0.2-0.1-0.3-0.2
			c-0.2-0.1-0.1-0.1-0.3-0.2c-0.1-0.1-0.2-0.1-0.3-0.2c-0.1,0-0.2-0.1-0.3-0.1c-0.3-0.2-0.9-0.2-1.3-0.3c-0.1,0-0.3-0.1-0.4-0.1
			c-0.1-0.1-0.2-0.1-0.2-0.2C19,10,18.8,9.8,18.7,9.6c-0.2-0.2-0.3-0.4-0.5-0.6c0-0.2-0.1-0.4-0.1-0.6c0-0.1-0.1-0.3-0.1-0.5
			c-0.1-0.4-0.1-0.7-0.2-1c-0.1-0.2-0.2-0.5-0.2-0.7c0-0.1-0.1-0.2-0.1-0.3c0-0.1,0-0.1-0.1-0.2c-0.1-0.2-0.2-0.4-0.3-0.6
			c0,0-0.1-0.1-0.1-0.1c-0.1-0.1-0.1-0.2-0.1-0.3c0-0.3,0-0.6,0-0.9c0-0.4-0.1-0.9-0.3-1.2c-0.1-0.2-0.2-0.3-0.3-0.4
			C16.2,2,16.1,2,16,1.8c-0.3-0.2-0.4-0.6-0.7-0.8C15.2,0.7,15,0.6,15,0.2c0-0.1-0.1-0.2-0.1-0.2c-0.2,0-0.2,0-0.4,0.2
			c0,0.1-0.1,0.1-0.1,0.2c0,0.1-0.1,0.1-0.1,0.2c-0.1,0,0,0.1-0.1,0.2c0,0.1,0,0.1-0.1,0.2c0,0.1-0.1,0.2-0.2,0.3
			c-0.2,0.1-0.3,0.2-0.5,0.2C13,1.4,12.6,1.2,12,1.2c-0.3,0-0.4-0.1-0.8,0c-0.3,0-0.5,0.1-0.8,0c-0.1,0-0.2,0.1-0.3,0.1
			c-0.1,0-0.2,0-0.2,0.1c-0.2,0-0.3,0.1-0.5,0.2C9.1,1.5,9,1,8.8,0.8c0-0.2-0.1-0.3-0.2-0.4C8.5,0.4,8.4,0.2,8.2,0.3
			c-0.1,0-0.1,0-0.2,0.1C8,0.4,8,0.5,8,0.5c0,0.1,0,0.1,0,0.2C8,0.8,8,1,8,1.1c0,0.2,0,0.4-0.1,0.6C7.8,1.9,7.8,2.1,7.7,2.3
			c0,0.2-0.2,0.3-0.2,0.6C7.4,3,7.4,3.2,7.4,3.5C7.3,3.8,7.2,4,7.1,4.3C7.1,4.5,7,4.8,6.9,5.1c0,0.2,0,0.4,0,0.6
			C6.9,5.9,7,6.1,7,6.3c0,0.2,0.1,0.4,0.1,0.6c0,0,0,0,0,0.1c0,0.2-0.2,0.4-0.3,0.5C6.8,7.7,6.7,7.9,6.7,8.1C6.6,8.5,6.6,9,6.5,9.4
			c0,0.4,0.1,0.8,0.1,1.1c0.1,0.2,0.3,0.4,0.5,0.4c0.2,0,0.4,0,0.5,0c0.2,0,0.3,0.2,0.5,0.2c0,0,0.1,0,0.2,0c0.1,0,0.2,0,0.4,0
			c0.1,0,0.1,0,0.2,0c0.1,0,0.1,0,0.2,0c0.1,0,0.1,0,0.2,0c0.1,0,0.2,0,0.4,0c0.4,0.1,0.6,0.3,0.9,0.6c0.1,0.4,0.2,0.2,0.2,0.5
			c0.1,0.3,0.3,0.6,0.3,1c0,0.3-0.2,0.5-0.3,0.7c0,0.1-0.1,0.2-0.1,0.4c-0.1,0.1-0.1,0.2-0.1,0.4c-0.1,0.2-0.2,0.5-0.3,0.7
			c-0.1,0.2-0.2,0.5-0.3,0.7c-0.1,0.6-0.2,1.2-0.2,1.9c-0.1,0.3-0.2,0.5-0.2,0.9c-0.1,0.3-0.1,0.7-0.1,1c-0.1,0.7,0.1,1.4,0.2,2
			c0.1,0.3,0.2,0.6,0.2,0.9c0,0.2,0,0.2,0.1,0.3c0,0.1,0,0.3,0,0.4c0,0.3,0,1.1-0.1,1.4c0,0.2-0.1,0.3-0.1,0.4c0,0.2,0,0.3,0,0.5
			c0,0.4,0,0.6-0.1,0.9c0,0.6,0,1.3,0.1,2c0,0.2,0.1,0.4,0.1,0.6c0,0.2,0,0.5,0,0.7c0,0.2,0,0.4,0.1,0.7c0.1,0.4,0.1,0.8,0.2,1.2
			c-0.1,0.6,0,1.3-0.1,2c-0.1,0.1,0,0.3-0.1,0.5c0,0.2,0,0.2,0,0.4c0,0.4,0,0.5,0,0.9c0,0.1,0,0.2,0.1,0.3c0.1,0.1,0.1,0.3,0.2,0.4
			c0.1,0,0.2,0.1,0.3,0.1c0.1,0,0.2,0,0.4,0c0,0,0,0,0,0c0.3,0,0.4,0,0.6,0c0.2,0,0.3,0.1,0.5,0.1c0.2,0,0.6-0.2,0.8-0.3
			c0.2,0,0.4,0,0.6,0c0.1-0.1,0.3-0.2,0.4-0.3c0-0.1,0-0.1,0.1-0.2c0-0.5-0.1-1.2-0.2-1.7c-0.1-0.5-0.3-0.9-0.5-1.2c0,0,0,0,0-0.1
			c-0.1-0.7-0.2-1.4-0.3-2.1c0,0,0-0.1,0-0.1c0-0.5,0.2-0.8,0.3-1.3c0.1-0.4,0.2-0.8,0.2-1.2c0-0.2,0.1-0.5,0.1-0.7
			c0.1-0.2,0.1-0.4,0.1-0.7c0-0.2,0.1-0.5,0.1-0.7c0-0.3,0.1-0.4,0.1-0.7c0-0.3,0-0.6-0.1-0.9c0-0.2,0-0.3,0-0.7c0-0.2,0-0.4,0-0.4
			c0.2-0.1,0.2,0.2,0.3,0.2c0.1,0.1,0.2,0.2,0.3,0.3c0.1,0.1,0.2,0.1,0.3,0.2c0.2,0,0.2,0.1,0.4,0.2c0.1,0.1,0.3,0.1,0.4,0.2
			c0.1,0,0.3,0.1,0.4,0.1c0.2,0.2,0.7,0.3,1,0.4c0.4,0.1,0.9,0,1.3,0c0.1,0,0.4,0,0.6-0.1c0.2,0,0.4-0.1,0.6-0.1
			c0.1,0,0.3-0.1,0.4-0.1c0.2,0,0.3,0.1,0.5,0.3c0.1,0.2,0.1,0.1,0.2,0.3c0.2,0.3,0.2,0.7,0.4,1.1c0.1,0.3,0.1,0.7,0.2,1
			c0,0.4,0.1,0.7,0.2,1.1c0,0.4,0.1,0.7,0.2,1.1c0.1,0.3,0.1,0.7,0.1,1.1c0,0.2-0.1,0.3-0.1,0.4c-0.1,0.3-0.2,0.5-0.3,0.9
			c0,0.2,0,0.4,0,0.5c0,0.4,0.1,1,0,1.3c-0.1,0.2,0.1,0.3-0.1,0.4c-0.1,0.2-0.3,0.3-0.4,0.5c-0.1,0.1-0.1,0.2-0.2,0.4
			c0,0.1-0.1,0.2-0.1,0.3c0,0.1-0.1,0.2-0.1,0.3C20,36,20,36.5,20.2,36.9c0.1,0,0.1,0.1,0.2,0.1c0.1,0.1,0.3,0,0.5,0
			c0.2,0.1,0.3,0.1,0.5,0.2c0.3,0,0.7,0,0.9-0.1c0.1,0,0.2,0.1,0.4,0.1c0.1,0,0.1,0,0.2,0c0.1,0,0.2,0,0.3,0c0.2,0,0.3-0.1,0.4-0.1
			c0.2,0,0.3,0,0.4-0.1c0,0,0,0,0,0c0.1-0.2,0.2-0.3,0.2-0.5c0-0.6-0.1-1.2-0.2-1.7c0-0.2,0-0.5,0-0.7c0.1-0.3,0.2-0.5,0.2-0.8
			c0-0.5-0.1-0.9-0.2-1.2c0-0.4-0.1-0.8,0-1.2c0.1-0.5,0.1-1.1,0.2-1.6c0.1-0.5,0.1-1.1,0.2-1.6c0-0.7-0.1-1.4,0-2
			c0-0.2,0.2-0.2,0.2-0.3c0.2-0.3,0.5-0.5,0.7-0.8c0.2-0.3,0.4-0.5,0.6-0.9c0.3-0.5,0.5-1,0.8-1.3c0,0,0-0.1,0.1-0.1L27,22
			c0.1-0.2,0.3-0.5,0.3-0.5s0.2-0.3,0.3-0.2c0.1,0,0.1,0.1,0.2,0.2c0,0.1-0.1,0.2-0.1,0.4"/>
</g>
</svg>
