<?xml version="1.0" encoding="utf-8"?>
<!-- Generator: Adobe Illustrator 19.1.0, SVG Export Plug-In . SVG Version: 6.00 Build 0)  -->
<svg version="1.1" id="Layer_1" xmlns="http://www.w3.org/2000/svg" xmlns:xlink="http://www.w3.org/1999/xlink" x="0px" y="0px"
	 width="40px" height="35.1px" viewBox="0 0 40 35.1" enable-background="new 0 0 40 35.1" xml:space="preserve">
<g>
		<path  style="fill:#527296;" d="M34.5,9.4c0-0.1,0-0.1,0-0.2c0-0.4-0.1-0.7-0.3-1C34.2,8.1,34.1,8,34,7.9
			c-0.1-0.1-0.1-0.2-0.2-0.3c0-0.1-0.1-0.1-0.1-0.2c-0.1,0-0.1-0.1-0.1-0.2c-0.1-0.1-0.1-0.2-0.2-0.4c0-0.1-0.1-0.3-0.1-0.3
			c0-0.2,0-0.3,0-0.5c0-0.1,0-0.2,0-0.4c0-0.2-0.1-0.4-0.1-0.6c0-0.1-0.1-0.1-0.1-0.2c-0.1-0.1-0.1-0.2-0.1-0.3
			c-0.1-0.1-0.2-0.2-0.2-0.2c-0.1-0.1-0.2-0.2-0.3-0.2C32.4,4,32.2,4,31.9,3.9c-0.2,0-0.4,0-0.6,0c-0.2,0-0.3,0.1-0.5,0.1
			c-0.1,0-0.2,0.1-0.3,0.1c-0.1,0-0.2,0.1-0.3,0.1c0,0-0.1,0.1-0.1,0.1c-0.1,0-0.1,0.1-0.2,0.1c0,0-0.1,0.1-0.1,0.1
			c0,0.1-0.1,0.1-0.1,0.1c0,0-0.1,0.1-0.1,0.1c0,0-0.1,0.1-0.1,0.1c-0.1,0.1-0.2,0.2-0.3,0.2c0,0.1-0.1,0.2-0.2,0.3
			c0,0-0.1,0.1-0.1,0.1c0,0-0.1,0.1-0.1,0.1c-0.1,0.2-0.2,0.4-0.3,0.6c0,0,0,0.1-0.1,0.1c0,0,0,0.1-0.1,0.1
			c-0.1,0.1-0.1,0.2-0.1,0.2c0,0,0,0.1,0,0.1c0,0-0.1,0.1,0,0.1c-0.1,0.1-0.1,0.2-0.1,0.2c-0.1,0.4-0.4,0.6-0.5,1
			c-0.2,0.2-0.2,0.4-0.4,0.6c-0.2,0.2-0.3,0.4-0.4,0.6c-0.1,0.1-0.1,0.2-0.2,0.3c-0.1,0.2-0.3,0.3-0.4,0.4c-0.1,0.1-0.3,0.2-0.4,0.3
			c-0.1,0-0.2,0.1-0.4,0.1c0,0.1-0.1,0-0.1,0.1c-0.1,0-0.1,0-0.2,0.1c-0.1,0-0.3,0.1-0.4,0.1c-0.1,0-0.1,0-0.2,0.1
			c-0.1,0-0.1,0-0.2,0c-0.1,0-0.2,0.1-0.4,0.1c-0.1,0-0.2,0-0.2,0c-0.1,0-0.1,0-0.2,0c-0.1,0.1-0.3,0-0.4,0.1c-0.2,0-0.3,0.1-0.4,0
			c0,0-0.1,0-0.2,0.1c-0.2,0-0.3,0.1-0.4,0c-0.1,0.1-0.2,0-0.4,0.1c-0.3,0-0.5,0-0.8,0.1c0,0-0.1,0-0.2,0c-0.2,0-0.3,0-0.4,0
			c0,0-0.1,0-0.1,0c0,0-0.1,0-0.1,0c-0.1,0.1-0.1,0-0.2,0c-0.1,0-0.1,0-0.2,0c-0.2,0-0.3,0-0.5,0c-0.1,0-0.2,0-0.2,0
			c0,0-0.1,0-0.1,0c-0.3,0-0.6-0.1-0.9-0.1c0,0-0.1,0-0.2-0.1c0-0.1-0.1-0.1-0.2-0.1c0-0.1-0.1-0.1-0.1-0.1c0,0-0.1-0.1-0.2-0.1
			c0,0-0.1-0.1-0.1-0.1c0,0,0,0-0.1,0c0,0,0,0,0,0c0-0.1-0.1,0-0.1-0.1c-0.1,0-0.1-0.1-0.1-0.1c0,0-0.1,0-0.1-0.1c0,0-0.1,0-0.1-0.1
			c0-0.1-0.1-0.1-0.1-0.1c-0.1,0-0.1-0.1-0.1-0.1c0,0,0,0-0.1,0c0,0,0-0.1-0.1-0.1c0-0.1-0.1-0.1-0.1-0.1C16.1,10,16,9.9,16,9.8
			c-0.1,0-0.1-0.1-0.1-0.1c-0.1,0-0.1-0.1-0.2-0.1c0-0.1-0.1-0.1-0.2-0.1c-0.1,0-0.1-0.1-0.1-0.1c0-0.1-0.1-0.2-0.1-0.2
			c0-0.1-0.1-0.2-0.1-0.3C15.1,8.6,15,8.4,15,8.3c0-0.4-0.1-0.7-0.2-1.1c0-0.2-0.1-0.3-0.1-0.5c0,0,0-0.1,0-0.1c0,0,0,0,0,0
			c0,0,0,0,0,0c0-0.1,0-0.2,0-0.3c-0.1-0.2-0.2-0.4-0.2-0.6c-0.1-0.2-0.1-0.4-0.2-0.6c0-0.2-0.1-0.4-0.2-0.6
			c-0.1-0.1-0.1-0.2-0.1-0.2c0-0.1-0.1-0.1-0.1-0.2c-0.1-0.1-0.2-0.3-0.3-0.4c-0.1-0.2-0.2-0.3-0.3-0.4c0-0.1-0.1-0.1-0.2-0.2
			c-0.1,0-0.1-0.1-0.2-0.2c-0.2-0.1-0.3-0.2-0.4-0.3c0,0-0.1-0.1-0.2-0.1c-0.2-0.2-0.4-0.3-0.6-0.4c-0.1,0-0.2,0-0.2,0
			c-0.1-0.1-0.3-0.1-0.3-0.3c0,0,0-0.1,0-0.1c0,0,0.1-0.1,0.1-0.1c0-0.1,0.1-0.1,0.2-0.2c0-0.1,0.1-0.2,0.1-0.2c0-0.1,0-0.2,0-0.3
			c0-0.1,0-0.1,0-0.2c0-0.1-0.1-0.1-0.1-0.2c-0.1-0.1-0.1-0.1-0.2-0.2C11,0.1,10.9,0,10.8,0c-0.1,0-0.2,0-0.4,0
			c-0.1,0-0.1,0-0.2,0.1c-0.1,0-0.1,0.1-0.2,0.1c0,0-0.1,0.1-0.2,0.1c0,0.1-0.1,0.1-0.2,0.1c-0.1,0-0.1,0.1-0.2,0.1
			c-0.1,0-0.1,0-0.2,0.1c-0.1,0-0.1,0-0.1,0c0,0-0.1,0-0.2,0C9,0.5,9,0.4,8.9,0.4c-0.1,0-0.2,0-0.3-0.1c-0.1,0-0.2,0.1-0.3,0.1
			c0,0.1-0.1,0-0.1,0.1c0,0-0.1,0.1-0.1,0.1C7.9,0.7,7.8,0.8,7.7,0.9c0,0.1-0.1,0.1-0.1,0.2c0,0-0.1,0.1-0.1,0.1c0,0,0,0.1,0,0.1
			c0,0-0.1,0-0.1,0.1c0,0-0.1,0-0.1,0c0,0-0.1,0-0.1,0C7,1.4,6.9,1.5,6.8,1.5c0,0-0.1,0-0.1,0.1c0,0-0.1,0.1,0,0.1c0,0-0.1,0-0.1,0
			c0,0.1,0,0.2-0.1,0.3c0,0.2,0,0.3,0,0.4c0,0,0,0.1,0,0.1c0,0,0,0,0,0c0,0.1,0,0,0,0c0,0-0.1,0.1-0.1,0.2c0,0-0.1,0.1-0.1,0.1
			c0,0-0.1,0.1-0.1,0.1C6.3,3,6.2,3,6.2,3.1C6.1,3.1,6,3.2,6,3.2c0,0.1-0.1,0.1-0.2,0.1c-0.1,0-0.1,0.1-0.2,0.1
			c0,0.1-0.1,0.1-0.1,0.2c0,0,0,0.1,0,0c0,0,0,0,0,0.1c0,0,0,0.1,0,0.1c0,0,0,0.1,0.1,0.1c0,0,0,0,0,0c0,0,0,0.1,0,0.1
			c0.1,0.1,0.2,0.1,0.4,0.1C6,4.2,6.1,4.2,6.3,4.2c0.1,0,0.2,0,0.3,0C6.8,4.2,6.9,4.4,7,4.6c0,0.1,0,0.2,0,0.3c0,0,0,0.1,0,0.1
			c0,0.1,0,0.1,0,0.1c0.1,0.1,0,0.2,0,0.2c0,0.1,0,0.2,0,0.3c0,0,0,0.1,0,0.1c0,0,0.1,0.1,0,0.1c0,0,0.1,0.1,0.1,0.2
			c0,0.1,0.1,0.1,0.1,0.2c0.1,0.1,0.1,0.1,0.1,0.2c0.1,0,0.2,0.1,0.3,0.1c0.1,0,0.3,0.1,0.4,0.1c0.1,0,0.2-0.1,0.3-0.1
			c0.1,0,0.3,0,0.3,0c0.1,0.1,0,0.3,0,0.5C8.7,7.2,8.7,7.4,8.6,7.5c0,0.1,0,0.2-0.1,0.2c0,0.1-0.1,0.1-0.1,0.2
			C8.4,8,8.4,8.1,8.3,8.1c0,0.1-0.1,0.1-0.1,0.2c0,0.1-0.1,0,0,0.1c0,0.1,0,0.1,0,0.1c0,0,0,0.1,0,0.1c0,0,0,0.1-0.1,0.1
			C8.1,9,8,9,8,9.1c0,0.1,0,0.2-0.1,0.2c0,0.1,0,0.2,0,0.2c0,0.1,0,0.2,0,0.3c0,0.1-0.1,0.1,0,0.2c-0.1,0,0,0.2-0.1,0.3
			c0,0.2,0,0.4,0,0.6c0,0.1,0,0.2,0,0.3c0,0.1,0,0.1,0,0.1c0,0,0,0.1,0,0.1c-0.1,0.1,0,0.2,0,0.3c0,0,0,0.1,0,0.1c0,0,0,0.1,0,0.1
			c-0.1,0.4-0.2,0.8-0.2,1c-0.1,0.2-0.1,0.4-0.1,0.6c0,0.2-0.1,0.4-0.1,0.6c0,0.2-0.1,0.4-0.1,0.6C7,15,7,15.2,7,15.4
			c0,0.2,0,0.3,0,0.4c0,0,0,0.1,0,0.1c0,0,0,0,0,0.1c0,0.1,0,0.2,0,0.3c0,0,0,0.1,0,0.1c0,0,0,0,0,0c0,0.1,0,0.1,0,0.1
			c0,0.1,0,0.2,0.1,0.3c0,0.1,0,0.3,0,0.4c0,0.1,0,0.1,0,0.1c0,0.2,0,0.3,0.1,0.5c0,0.1,0,0.2,0.1,0.2c0,0.1,0.1,0.1,0.1,0.2
			c0,0,0,0.1,0,0.1c0,0,0,0.1,0,0.1c0.1,0,0.1,0.2,0.1,0.2c0,0.2,0.1,0.3,0.2,0.4c0.1,0.1,0.1,0.3,0.2,0.4c0,0.1,0.1,0.1,0.1,0.2
			c0.1,0.1,0.2,0.2,0.2,0.3c0,0,0,0,0,0c0,0,0,0,0.1,0.1c0,0,0.1,0.1,0.1,0.1c0.1,0.1,0.2,0.3,0.2,0.4c0.1,0.1,0.2,0.2,0.3,0.4
			c0.2,0.2,0.3,0.5,0.5,0.7c0.1,0.1,0.2,0.2,0.3,0.3c0.1,0.1,0.2,0.2,0.3,0.3c0,0,0.1,0.1,0.1,0.2c0,0.1,0.1,0,0.1,0.1
			c0,0,0.1,0,0.1,0.1c0.1,0,0.1,0.1,0.1,0.2c0.1,0.1,0.1,0.1,0.1,0.2c0.1,0,0.1,0.1,0.1,0.1c0,0,0,0,0,0.1c0,0,0,0,0.1,0
			c0,0,0,0,0,0c0,0,0.1,0.1,0.1,0.1c0.1,0,0,0.1,0.1,0c0,0,0,0,0,0.1c0,0,0,0,0.1,0.1c0,0,0.1,0,0.1,0.1c0.1,0,0.1,0.1,0.1,0.1
			c0.1,0.1,0.2,0.1,0.3,0.2c0.2,0.2,0.4,0.3,0.6,0.4c0.1,0.1,0.2,0.1,0.3,0.2c0.1,0,0.1,0.1,0.2,0.1c0,0.1,0.1,0,0.2,0.1
			c0.2,0.1,0.5,0.2,0.7,0.3c0.2,0.1,0.5,0.2,0.7,0.3c0.1,0,0.2,0.1,0.4,0.1c0.1,0.1,0.2,0.1,0.4,0.1c0,0,0.1,0,0.2,0.1
			c0.1,0,0.1,0.1,0.2,0c0.1,0.1,0.2,0.1,0.4,0.1c0,0,0.1,0.1,0.1,0.1c0.1,0,0.2,0.2,0.3,0.3c0.1,0,0,0,0,0.1c0,0,0,0.1,0.1,0.1
			c0,0.2,0.2,0.2,0.2,0.4c0.1,0.1,0.1,0.2,0.2,0.3c0.1,0.1,0.1,0.2,0.2,0.2c0.1,0.1,0.1,0.2,0.2,0.2c0,0.1,0.1,0.1,0.1,0.1
			c0,0,0.1,0.1,0.1,0.1c0.1,0.1,0.1,0.2,0.2,0.2c0,0,0.1,0.1,0.1,0.1c0,0,0.1,0.1,0.1,0.1c0.1,0.1,0.2,0.1,0.3,0.2
			c0,0,0.1,0.1,0.1,0.1c0,0.1,0.1,0.1,0.1,0.1c0,0.1,0.1,0.1,0.1,0.2c0,0,0,0.1,0,0.1c0,0.2,0,0.4,0,0.6c0,0.2,0,0.2,0,0.4
			c-0.1,0.3-0.1,0.5-0.2,0.8c0,0.1-0.1,0.2-0.1,0.4c-0.1,0.1-0.1,0.3-0.2,0.4c0,0.1-0.1,0.1-0.1,0.1c0,0.1-0.1,0.2-0.1,0.4
			c0,0.1,0,0.1-0.1,0.2c0,0,0,0.1,0,0.1c0,0,0,0.1,0,0.1c-0.1,0.1-0.2,0.3-0.3,0.4c-0.1,0.1-0.2,0.3-0.3,0.4
			c-0.1,0.1-0.3,0.2-0.4,0.3c-0.1,0-0.2,0.1-0.3,0.1c-0.1,0-0.2,0.1-0.3,0.1c-0.1,0-0.2,0.1-0.3,0.1c-0.1,0-0.2,0-0.3,0.1
			c-0.1,0-0.2,0-0.3,0c-0.1,0-0.2,0-0.4,0c-0.1,0-0.3,0-0.4-0.1c-0.1,0-0.1,0-0.2,0c0,0-0.1,0-0.2,0c-0.1,0-0.1,0-0.2,0.1
			c0,0-0.1,0-0.1,0c0,0-0.1,0-0.1,0c0,0,0,0,0,0.1c0,0,0,0,0,0c-0.1,0-0.1,0-0.1,0.1c0,0-0.1,0-0.1,0c-0.1,0-0.1,0.1-0.2,0.1
			c0,0.1-0.1,0.1-0.1,0.1c0,0.1-0.1,0.1-0.1,0.1c0,0,0,0.1,0,0.1c0,0,0,0,0,0.1c0,0,0,0,0,0c0,0.1,0.1,0.2,0.1,0.2
			c0.1,0.1,0.1,0.1,0.2,0.1c0,0,0,0,0.1,0c0,0,0,0,0,0c0.1,0,0.2-0.1,0.4-0.1c0.1-0.1,0.2-0.1,0.3-0.2c0.1-0.1,0.3,0,0.4-0.1
			c0.2,0,0.3,0,0.4,0c0.2,0,0.4,0,0.6,0c0,0,0.1,0,0.1,0c0.3,0.1,0.6,0.2,1,0.3c0.2,0,0.3,0,0.5,0c0.2-0.1,0.3-0.1,0.5-0.2
			c0.2-0.1,0.3-0.1,0.5-0.1c0,0,0.1,0,0.1,0c0.1,0,0.3,0,0.5,0c0.2,0.1,0.4,0.1,0.6,0.2c0.1,0,0.2,0,0.3,0.1c0.1,0,0.1,0,0.2,0
			c0.1,0,0.1-0.1,0.2-0.1c0.1-0.1,0.1-0.1,0.2-0.2c0.1,0,0.1-0.1,0.2-0.1c0.1,0,0-0.1,0.1-0.1c0,0,0.1,0,0.1,0c0.2,0,0.3,0,0.4,0.1
			c0,0,0,0.1,0.1,0.1c0,0.1,0.1,0.1,0.1,0.1c0.1,0,0.2,0.1,0.3,0.1c0.1,0,0.2,0,0.3,0c0.1,0,0.1-0.1,0.2-0.1c0.2,0,0.5-0.1,0.8-0.1
			c0.1,0,0.2,0,0.3,0c0.1,0,0.2,0,0.4,0.1c0.2,0,0.4,0,0.5,0c0.1-0.1,0.3-0.1,0.5-0.1c0.1,0,0.2,0,0.3,0c0.1,0,0.2,0,0.4,0.1
			c0.2,0.1,0.4,0.2,0.7,0.2c0.4,0,0.9,0,1.3,0c0,0,0.1-0.1,0.2-0.1c0-0.1,0-0.1,0-0.2c0,0,0,0,0,0c0-0.1,0-0.1,0-0.1c0,0,0,0,0-0.1
			c-0.1-0.1-0.1-0.2-0.2-0.2c-0.1-0.1-0.2-0.1-0.2-0.2c-0.1,0-0.2-0.1-0.3,0c0,0-0.2,0-0.2,0c-0.3,0-0.6-0.1-0.9-0.2c0,0,0,0,0,0
			c-0.1-0.1-0.3-0.2-0.3-0.3c-0.1-0.2-0.2-0.3-0.3-0.6c0-0.1,0.1-0.2,0.1-0.3c0,0,0.1-0.1,0.1-0.1c0.1,0,0.1-0.1,0.2-0.1
			c0.1,0,0.2-0.1,0.3-0.2c0.1-0.1,0.2-0.1,0.3-0.2c0-0.2-0.1-0.3-0.2-0.3c-0.3-0.1-0.5,0-0.7-0.1c0,0,0-0.1-0.1-0.1
			c0-0.1-0.1-0.2-0.1-0.3c0-0.1,0-0.2,0-0.3c0-0.2,0-0.4,0-0.7c0-0.2,0-0.4,0-0.7c0-0.3,0-0.5,0.1-0.8c0-0.3,0-0.5,0.1-0.8
			c0-0.1,0.1-0.2,0-0.3c0,0,0,0,0-0.1c0.1-0.1,0.1-0.2,0.2-0.3c0.1-0.1,0.1-0.2,0.2-0.3c0.1,0,0.1-0.1,0.2-0.1c0,0,0.1,0,0.1-0.1
			c0,0,0.1,0,0.1-0.1c0,0,0.1,0,0.1,0c0,0,0.1,0,0.1-0.1c0.1,0,0.1-0.1,0.2-0.1c0.1,0,0-0.1,0.1-0.1c0,0,0.1,0,0.1-0.1
			c0.1,0,0.1-0.1,0.2-0.1c0.1-0.1,0.1-0.1,0.2-0.1c0.1,0,0.1-0.1,0.2-0.1c0-0.1,0.1-0.1,0.1-0.2c0.1,0,0.1-0.1,0.2-0.2
			c0,0,0.1-0.1,0.1-0.2c0,0,0-0.1,0-0.1c0,0,0.1,0,0.1-0.1c0,0,0.1-0.1,0.1-0.2c0,0,0-0.1,0.1-0.1c0,0,0-0.1,0.1-0.1
			c0-0.1,0.1-0.1,0.1-0.2c0,0,0-0.1,0.1-0.1c0,0,0.1,0,0.1-0.1c0.1,0,0.1-0.1,0.2-0.1c0.1,0,0.1-0.1,0.2-0.1c0-0.1,0.1-0.1,0.2-0.1
			c0.1,0,0.1-0.1,0.2-0.1c0-0.1,0.1-0.1,0.2-0.1c0,0,0,0,0.1-0.1c0,0,0,0,0,0c0,0,0,0,0,0c0,0,0,0,0.1,0c0,0,0,0,0,0
			c0,0,0.1-0.1,0.1-0.1c0,0,0.1,0,0.1-0.1c0,0,0,0,0,0c0,0,0,0,0,0c0,0,0,0,0,0c0,0,0.1-0.1,0.1-0.1c0.1-0.1,0.2-0.2,0.3-0.4
			c0,0,0-0.1,0.1-0.1c0,0,0,0,0,0c0,0,0,0,0-0.1c0,0,0-0.1,0.1-0.1c0,0,0-0.1,0.1-0.1c0,0,0.1-0.1,0.1-0.1c0,0,0-0.1,0.1-0.1
			c0,0,0,0,0,0c0,0,0-0.1,0.1-0.1c0.1-0.2,0.1-0.3,0.2-0.5c0-0.1,0-0.1,0-0.3c0.1-0.1,0.1-0.2,0.1-0.3c0,0,0-0.1,0-0.2
			c0,0,0,0,0-0.1c0,0,0,0,0-0.1c0-0.1,0.1-0.2,0-0.3c0.1-0.1,0.1-0.2,0.1-0.3c0,0,0-0.1,0-0.1c0,0,0-0.1,0.1-0.1
			c0,0,0.1-0.1,0.1-0.1c0,0,0,0,0,0c0,0,0.1,0,0.1-0.1c0.1-0.1,0.2-0.2,0.3-0.4c0.1,0,0.1-0.1,0.1-0.1c0,0,0.1,0,0.1-0.1
			c0,0,0.1,0,0.1-0.1c0.1-0.1,0.2-0.2,0.2-0.2c0-0.1,0.1-0.1,0.1-0.1c0.1,0,0.1-0.1,0.1-0.1c0-0.1,0.1-0.1,0.1-0.2
			c0.1-0.1,0.1-0.2,0.2-0.3c0.1-0.1,0.1-0.3,0.2-0.4c0.1-0.2,0.2-0.5,0.3-0.7c0-0.1,0.1-0.2,0.1-0.4c0.1-0.2,0.1-0.5,0.2-0.7
			c0-0.2,0.1-0.2,0.1-0.4c0.1-0.2,0.1-0.4,0.2-0.5c0.1-0.2,0.2-0.3,0.3-0.5c0.1-0.1,0.1-0.2,0.2-0.3c0-0.1,0.1-0.2,0.2-0.3
			c0-0.2,0.1-0.2,0.1-0.4c0,0,0,0,0-0.1c0,0,0,0,0-0.1c0,0,0-0.1,0.1-0.2c0-0.1,0-0.1,0-0.2c0-0.1,0-0.2,0-0.3
			c0-0.4-0.1-0.8-0.1-1.1c0-0.1,0-0.1,0-0.1c0,0,0-0.1,0-0.1c0,0,0-0.2,0-0.2c0,0,0-0.1,0-0.1c0-0.1,0-0.2,0.1-0.3
			c0-0.1,0.1-0.2,0.1-0.3c0.1,0,0.1-0.1,0.2-0.2c0-0.1,0.1-0.2,0.2-0.2c0-0.1,0.1-0.2,0.1-0.3c0-0.1,0.1-0.2,0.1-0.4
			C34.5,9.5,34.5,9.5,34.5,9.4 M21.6,27.7C21.7,27.7,21.6,27.7,21.6,27.7C21.6,27.7,21.7,27.7,21.6,27.7z M23.7,30.1
			c0,0,0,0.1,0,0.1c0,0.1,0,0.1,0,0.2c0,0.3,0,0.5,0,0.8c0,0.3-0.1,0.7-0.1,1c0,0.1,0,0.3-0.1,0.5c0,0.2-0.1,0.3-0.1,0.4
			c0,0,0,0,0,0.1c0,0,0,0.1,0,0.1c0,0.1-0.1,0.1-0.1,0.1c-0.1,0.1-0.1,0.2-0.2,0.2c-0.1,0.1-0.2,0.1-0.3,0.1c-0.2,0-0.3-0.1-0.4-0.1
			c-0.1,0-0.2-0.1-0.3-0.1c-0.2,0-0.3-0.1-0.5-0.1c-0.1,0-0.4,0-0.5,0c-0.2,0.1-0.4,0.1-0.6,0.2c-0.1,0-0.2,0.1-0.3,0.1
			c-0.1,0-0.2,0-0.3,0c-0.3,0-0.5-0.2-0.7-0.2c-0.1-0.1-0.2-0.1-0.3-0.3c0-0.1,0-0.2,0.1-0.2c0-0.1,0.1-0.1,0.1-0.1
			c0.3,0,0.5,0,0.9-0.1c0.2-0.1,0.3-0.2,0.3-0.4c0-0.1-0.1-0.1-0.1-0.2c-0.1,0-0.1,0-0.2-0.1c-0.1,0-0.2,0-0.3,0c-0.1,0-0.1,0-0.2,0
			c-0.1,0-0.1,0-0.1-0.1c0-0.1,0-0.3,0-0.4c0.1-0.1,0.1-0.2,0.1-0.4c0.1-0.2,0.2-0.4,0.3-0.6c0.1-0.2,0.2-0.4,0.3-0.6
			c0.1-0.1,0.2-0.3,0.3-0.4c0.1-0.2,0.2-0.3,0.3-0.5c0-0.1,0.1-0.1,0.1-0.2c0.1-0.2,0.3-0.4,0.4-0.6c0,0,0.1-0.1,0.1-0.1
			c0-0.1,0.1-0.1,0.1-0.1c0.1-0.1,0.2-0.1,0.2-0.2c0.2-0.1,0.4-0.2,0.5-0.3c0,0,0,0,0,0c0,0,0,0,0,0c0.1,0,0.2,0,0.3,0
			c0,0,0,0,0.1,0c0.1,0,0.1,0,0.2,0c0.1,0,0.1,0,0.2,0c0.1,0,0.1,0.1,0.2,0.1c0.1,0,0.1,0.1,0.1,0.1c0.1,0.1,0.2,0.2,0.2,0.2
			c0,0.1,0.1,0.2,0.1,0.3c0,0.1,0.1,0.2,0.1,0.3c0,0.2,0,0.4,0.1,0.6c0,0.3,0,0.5,0,0.7c0,0,0,0,0,0.1C23.7,30,23.7,30.1,23.7,30.1z
			"/>
</g>
</svg>
