<?xml version="1.0" encoding="utf-8"?>
<!-- Generator: Adobe Illustrator 19.1.0, SVG Export Plug-In . SVG Version: 6.00 Build 0)  -->
<svg version="1.1" id="Layer_1" xmlns="http://www.w3.org/2000/svg" xmlns:xlink="http://www.w3.org/1999/xlink" x="0px" y="0px"
	 width="473.7px" height="650.9px" viewBox="0 0 473.7 650.9" enable-background="new 0 0 473.7 650.9" xml:space="preserve">
<path fill="none" stroke="#FCEE21" stroke-width="4" stroke-miterlimit="10" d="M204.8,29.7"/>
<path fill="none" stroke="#FCEE21" stroke-width="4" stroke-miterlimit="10" d="M95.9,179.7"/>
<path fill="#FFFFFF" d="M318.4,650.9c65.1,0,129.7-23.2,151-51.3l4.3-5.6l-40.4-119.7c-0.4-1.1-1.4-1.9-2.6-1.9h-7.6h-3.5l-79.1,0
	c-1.2,0-2.3-0.8-2.6-2c-1.1-4-1.7-8.9-1.8-14.9V309.3c0-1.5,1.2-2.7,2.7-2.7H445c1.5,0,2.7-1.2,2.7-2.7V154.1c0-1.5-1.2-2.7-2.7-2.7
	H339.3c-1.5,0-2.7-1.2-2.7-2.7V2.7c0-1.5-1.2-2.7-2.7-2.7h-82.6h-28.9h-73.8c-13.3,0-28.5,9.8-30.8,28
	C108.6,103.4,74,148.6,9.1,170.3l-7.2,2.4C0.7,173,0,174.1,0,175.3v128.6c0,1.5,1.2,2.7,2.7,2.7h50.4h0H69c0,0,0,120,0,158.3
	C69,591.3,156.6,650.9,318.4,650.9z M442.5,589.8c-20.3,19.5-62,34.1-102,34.7c-1.5,0-3,0-4.5,0h0c-131.5,0-166.6-100.4-166.6-159.7
	V282.6c0-1.5-1.2-2.7-2.7-2.7h-63.6c-1.5,0-2.7-1.2-2.7-2.7v-83c0-1.1,0.7-2.1,1.7-2.5c68-26.5,105.9-79,115.9-160.3
	c0.6-4.5,4.3-4.6,4.3-4.6h84.9c1.5,0,2.7,1.2,2.7,2.7v145.9c0,1.5,1.2,2.7,2.7,2.7h105.7c1.5,0,2.7,1.2,2.7,2.7v96.4
	c0,1.5-1.2,2.7-2.7,2.7H312.2c-1.5,0-2.7,1.2-2.7,2.7l0,173.2c0.6,39,19.5,58.8,56.1,58.8c14.7,0,31.6-3.4,47.1-9.3
	c1.4-0.6,3,0.2,3.5,1.6l27,80C443.5,587.9,443.3,589.1,442.5,589.8z"/>
</svg>
